<?xml version="1.0" encoding="UTF-8"?>
<!DOCTYPE svg PUBLIC "-//W3C//DTD SVG 1.1//EN" "http://www.w3.org/Graphics/SVG/1.1/DTD/svg11.dtd">
<!-- Creator: CorelDRAW 2019 (64-Bit) -->
<svg xmlns="http://www.w3.org/2000/svg" xml:space="preserve" width="18.9398mm" height="4.4286mm" version="1.1" style="shape-rendering:geometricPrecision; text-rendering:geometricPrecision; image-rendering:optimizeQuality; fill-rule:evenodd; clip-rule:evenodd"
viewBox="0 0 149.61 34.98"
 xmlns:xlink="http://www.w3.org/1999/xlink"
 xmlns:xodm="http://www.corel.com/coreldraw/odm/2003">
 <defs>
  <style type="text/css">
   <![CDATA[
    .fil3 {fill:#A30005}
    .fil2 {fill:black}
    .fil1 {fill:#A30005;fill-rule:nonzero}
    .fil0 {fill:black;fill-rule:nonzero}
   ]]>
  </style>
 </defs>
 <g id="Слой_x0020_1">
  <metadata id="CorelCorpID_0Corel-Layer"/>
  <g id="_2093550150336">
   <g>
    <path class="fil0" d="M54.68 4.8l-1.7 -4.1 1.7 -0.7 40.24 0 0 4.8 -40.24 0zm-1.7 -4.1l0.7 -0.7 1 0 -1.7 0.7zm-7.4 14.2l-4.1 -1.7 0.7 -1.7 10.8 -10.8 3.4 3.4 -10.8 10.8zm-4.1 -1.7l0 -1 0.7 -0.7 -0.7 1.7zm4.8 19.38l-2.4 2.4 -2.4 -2.4 0 -19.38 4.8 0 0 19.38zm-2.4 2.4l-2.4 0 0 -2.4 2.4 2.4zm61.84 -4.8l2.4 2.4 -2.4 2.4 -61.84 0 0 -4.8 61.84 0zm2.4 2.4l0 2.4 -2.4 0 2.4 -2.4zm-4.8 -19.38l4.1 -1.7 0.7 1.7 -0 19.38 -4.8 0 0 -19.38zm4.1 -1.7l0.7 0.7 0 1 -0.7 -1.7zm-14.2 -7.4l1.7 -4.1 1.7 0.7 10.8 10.8 -3.4 3.4 -10.8 -10.8zm1.7 -4.1l1 0 0.7 0.7 -1.7 -0.7z"/>
   </g>
   <g>
    <path class="fil1" d="M-0 17.49l0 0 0.02 -0.9 0.07 -0.89 0.11 -0.88 0.15 -0.86 0.2 -0.85 0.24 -0.83 0.27 -0.81 0.31 -0.8 0.35 -0.78 0.39 -0.75 0.42 -0.73 0.45 -0.71 0.49 -0.69 0.52 -0.66 0.55 -0.63 0.58 -0.61 0.61 -0.58 0.63 -0.55 0.66 -0.52 0.69 -0.49 0.71 -0.45 0.73 -0.42 0.75 -0.39 0.78 -0.35 0.8 -0.31 0.81 -0.27 0.83 -0.24 0.85 -0.2 0.86 -0.15 0.88 -0.11 0.89 -0.07 0.9 -0.02 0 4.8 -0.65 0.02 -0.65 0.05 -0.64 0.08 -0.62 0.11 -0.61 0.14 -0.6 0.17 -0.59 0.2 -0.58 0.23 -0.56 0.25 -0.55 0.28 -0.53 0.31 -0.52 0.33 -0.5 0.35 -0.48 0.38 -0.46 0.4 -0.44 0.42 -0.42 0.44 -0.4 0.46 -0.38 0.48 -0.35 0.5 -0.33 0.52 -0.31 0.53 -0.28 0.55 -0.25 0.56 -0.23 0.58 -0.2 0.59 -0.17 0.6 -0.14 0.61 -0.11 0.62 -0.08 0.64 -0.05 0.65 -0.02 0.65 0 0 -4.8 0zm17.49 17.49l0 0 -0.9 -0.02 -0.89 -0.07 -0.88 -0.11 -0.86 -0.15 -0.85 -0.2 -0.83 -0.24 -0.81 -0.27 -0.8 -0.31 -0.78 -0.35 -0.75 -0.39 -0.73 -0.42 -0.71 -0.45 -0.69 -0.49 -0.66 -0.52 -0.63 -0.55 -0.61 -0.58 -0.58 -0.61 -0.55 -0.63 -0.52 -0.66 -0.49 -0.69 -0.45 -0.71 -0.42 -0.73 -0.39 -0.75 -0.35 -0.78 -0.31 -0.8 -0.27 -0.81 -0.24 -0.83 -0.2 -0.85 -0.15 -0.86 -0.11 -0.88 -0.07 -0.89 -0.02 -0.9 4.8 0 0.02 0.65 0.05 0.65 0.08 0.64 0.11 0.62 0.14 0.61 0.17 0.6 0.2 0.59 0.23 0.58 0.25 0.56 0.28 0.55 0.31 0.53 0.33 0.52 0.35 0.5 0.38 0.48 0.4 0.46 0.42 0.44 0.44 0.42 0.46 0.4 0.48 0.38 0.5 0.35 0.52 0.33 0.53 0.31 0.55 0.28 0.56 0.25 0.58 0.23 0.59 0.2 0.6 0.17 0.61 0.14 0.62 0.11 0.64 0.08 0.65 0.05 0.65 0.02 0 0 0 4.8zm17.49 -17.49l0 0 -0.02 0.9 -0.07 0.89 -0.11 0.88 -0.15 0.86 -0.2 0.85 -0.24 0.83 -0.27 0.81 -0.31 0.8 -0.35 0.78 -0.39 0.75 -0.42 0.73 -0.45 0.71 -0.49 0.69 -0.52 0.66 -0.55 0.63 -0.58 0.61 -0.61 0.58 -0.63 0.55 -0.66 0.52 -0.69 0.49 -0.71 0.45 -0.73 0.42 -0.75 0.39 -0.78 0.35 -0.8 0.31 -0.81 0.27 -0.83 0.24 -0.85 0.2 -0.86 0.15 -0.88 0.11 -0.89 0.07 -0.9 0.02 0 -4.8 0.65 -0.02 0.65 -0.05 0.64 -0.08 0.62 -0.11 0.61 -0.14 0.6 -0.17 0.59 -0.2 0.58 -0.23 0.56 -0.25 0.55 -0.28 0.53 -0.31 0.52 -0.33 0.5 -0.35 0.48 -0.38 0.46 -0.4 0.44 -0.42 0.42 -0.44 0.4 -0.46 0.38 -0.48 0.35 -0.5 0.33 -0.52 0.31 -0.53 0.28 -0.55 0.25 -0.56 0.23 -0.58 0.2 -0.59 0.17 -0.6 0.14 -0.61 0.11 -0.62 0.08 -0.64 0.05 -0.65 0.02 -0.65 0 0 4.8 0zm-17.49 -17.49l0 0 0.9 0.02 0.89 0.07 0.88 0.11 0.86 0.15 0.85 0.2 0.83 0.24 0.81 0.27 0.8 0.31 0.78 0.35 0.75 0.39 0.73 0.42 0.71 0.45 0.69 0.49 0.66 0.52 0.63 0.55 0.61 0.58 0.58 0.61 0.55 0.63 0.52 0.66 0.49 0.69 0.45 0.71 0.42 0.73 0.39 0.75 0.35 0.78 0.31 0.8 0.27 0.81 0.24 0.83 0.2 0.85 0.15 0.86 0.11 0.88 0.07 0.89 0.02 0.9 -4.8 0 -0.02 -0.65 -0.05 -0.65 -0.08 -0.64 -0.11 -0.62 -0.14 -0.61 -0.17 -0.6 -0.2 -0.59 -0.23 -0.58 -0.25 -0.56 -0.28 -0.55 -0.31 -0.53 -0.33 -0.52 -0.35 -0.5 -0.38 -0.48 -0.4 -0.46 -0.42 -0.44 -0.44 -0.42 -0.46 -0.4 -0.48 -0.38 -0.5 -0.35 -0.52 -0.33 -0.53 -0.31 -0.55 -0.28 -0.56 -0.25 -0.58 -0.23 -0.59 -0.2 -0.6 -0.17 -0.61 -0.14 -0.62 -0.11 -0.64 -0.08 -0.65 -0.05 -0.65 -0.02 0 0 0 -4.8z"/>
   </g>
   <g>
    <polygon class="fil1" points="32.58,19.9 32.58,15.08 63.05,15.08 63.05,19.9 "/>
   </g>
   <g>
    <polygon class="fil1" points="10.04,19.91 10.04,15.07 24.94,15.07 24.94,19.91 "/>
   </g>
   <g>
    <polygon class="fil1" points="19.91,24.94 15.07,24.94 15.07,10.04 19.91,10.04 "/>
   </g>
   <g>
    <path class="fil0" d="M149.61 17.49l-4.8 0 0 0 -0.02 -0.65 -0.05 -0.65 -0.08 -0.64 -0.11 -0.62 -0.14 -0.61 -0.17 -0.6 -0.2 -0.59 -0.23 -0.58 -0.25 -0.56 -0.28 -0.55 -0.31 -0.53 -0.33 -0.52 -0.35 -0.5 -0.38 -0.48 -0.4 -0.46 -0.42 -0.44 -0.44 -0.42 -0.46 -0.4 -0.48 -0.38 -0.5 -0.35 -0.52 -0.33 -0.53 -0.31 -0.55 -0.28 -0.56 -0.25 -0.58 -0.23 -0.59 -0.2 -0.6 -0.17 -0.61 -0.14 -0.62 -0.11 -0.64 -0.08 -0.65 -0.05 -0.65 -0.02 0 -4.8 0.9 0.02 0.89 0.07 0.88 0.11 0.86 0.15 0.85 0.2 0.83 0.24 0.81 0.27 0.8 0.31 0.78 0.35 0.75 0.39 0.73 0.42 0.71 0.45 0.69 0.49 0.66 0.52 0.63 0.55 0.61 0.58 0.58 0.61 0.55 0.63 0.52 0.66 0.49 0.69 0.45 0.71 0.42 0.73 0.39 0.75 0.35 0.78 0.31 0.8 0.27 0.81 0.24 0.83 0.2 0.85 0.15 0.86 0.11 0.88 0.07 0.89 0.02 0.9 0 0zm-17.49 17.49l0 -4.8 0 0 0.65 -0.02 0.65 -0.05 0.64 -0.08 0.62 -0.11 0.61 -0.14 0.6 -0.17 0.59 -0.2 0.58 -0.23 0.56 -0.25 0.55 -0.28 0.53 -0.31 0.52 -0.33 0.5 -0.35 0.48 -0.38 0.46 -0.4 0.44 -0.42 0.42 -0.44 0.4 -0.46 0.38 -0.48 0.35 -0.5 0.33 -0.52 0.31 -0.53 0.28 -0.55 0.25 -0.56 0.23 -0.58 0.2 -0.59 0.17 -0.6 0.14 -0.61 0.11 -0.62 0.08 -0.64 0.05 -0.65 0.02 -0.65 4.8 0 -0.02 0.9 -0.07 0.89 -0.11 0.88 -0.15 0.86 -0.2 0.85 -0.24 0.83 -0.27 0.81 -0.31 0.8 -0.35 0.78 -0.39 0.75 -0.42 0.73 -0.45 0.71 -0.49 0.69 -0.52 0.66 -0.55 0.63 -0.58 0.61 -0.61 0.58 -0.63 0.55 -0.66 0.52 -0.69 0.49 -0.71 0.45 -0.73 0.42 -0.75 0.39 -0.78 0.35 -0.8 0.31 -0.81 0.27 -0.83 0.24 -0.85 0.2 -0.86 0.15 -0.88 0.11 -0.89 0.07 -0.9 0.02 0 0zm-17.49 -17.49l4.8 0 0 0 0.02 0.65 0.05 0.65 0.08 0.64 0.11 0.62 0.14 0.61 0.17 0.6 0.2 0.59 0.23 0.58 0.25 0.56 0.28 0.55 0.3 0.53 0.33 0.52 0.35 0.5 0.38 0.48 0.4 0.46 0.42 0.44 0.44 0.42 0.46 0.4 0.48 0.38 0.5 0.35 0.52 0.33 0.53 0.31 0.55 0.28 0.56 0.25 0.57 0.23 0.59 0.2 0.6 0.17 0.61 0.14 0.62 0.11 0.64 0.08 0.65 0.05 0.65 0.02 0 4.8 -0.9 -0.02 -0.89 -0.07 -0.88 -0.11 -0.86 -0.15 -0.85 -0.2 -0.83 -0.24 -0.81 -0.27 -0.8 -0.31 -0.77 -0.35 -0.75 -0.39 -0.73 -0.42 -0.71 -0.45 -0.69 -0.49 -0.66 -0.52 -0.63 -0.55 -0.61 -0.58 -0.58 -0.61 -0.55 -0.63 -0.52 -0.66 -0.49 -0.69 -0.45 -0.71 -0.42 -0.73 -0.39 -0.75 -0.35 -0.77 -0.31 -0.8 -0.27 -0.81 -0.24 -0.83 -0.2 -0.85 -0.15 -0.86 -0.11 -0.88 -0.07 -0.89 -0.02 -0.9 0 0zm17.49 -17.49l0 4.8 0 0 -0.65 0.02 -0.65 0.05 -0.64 0.08 -0.62 0.11 -0.61 0.14 -0.6 0.17 -0.59 0.2 -0.57 0.23 -0.56 0.25 -0.55 0.28 -0.53 0.31 -0.52 0.33 -0.5 0.35 -0.48 0.38 -0.46 0.4 -0.44 0.42 -0.42 0.44 -0.4 0.46 -0.38 0.48 -0.35 0.5 -0.33 0.52 -0.3 0.53 -0.28 0.55 -0.25 0.56 -0.23 0.58 -0.2 0.59 -0.17 0.6 -0.14 0.61 -0.11 0.62 -0.08 0.64 -0.05 0.65 -0.02 0.65 -4.8 0 0.02 -0.9 0.07 -0.89 0.11 -0.88 0.15 -0.86 0.2 -0.85 0.24 -0.83 0.27 -0.81 0.31 -0.8 0.35 -0.77 0.39 -0.75 0.42 -0.73 0.45 -0.71 0.49 -0.69 0.52 -0.66 0.55 -0.63 0.58 -0.61 0.61 -0.58 0.63 -0.55 0.66 -0.52 0.69 -0.49 0.71 -0.45 0.73 -0.42 0.75 -0.39 0.77 -0.35 0.8 -0.31 0.81 -0.27 0.83 -0.24 0.85 -0.2 0.86 -0.15 0.88 -0.11 0.89 -0.07 0.9 -0.02 0 0z"/>
   </g>
   <g>
    <polygon class="fil0" points="117.03,19.9 86.56,19.9 86.56,15.08 117.03,15.08 "/>
   </g>
   <g>
    <polygon class="fil0" points="139.56,19.91 124.67,19.91 124.67,15.07 139.56,15.07 "/>
   </g>
   <rect class="fil2" x="80.36" y="11.29" width="12.39" height="12.39"/>
   <rect class="fil3" x="56.85" y="11.29" width="12.39" height="12.39"/>
  </g>
 </g>
</svg>
