<?xml version="1.0" encoding="UTF-8"?>
<!DOCTYPE svg PUBLIC "-//W3C//DTD SVG 1.1//EN" "http://www.w3.org/Graphics/SVG/1.1/DTD/svg11.dtd">
<!-- Creator: CorelDRAW 2018 -->
<svg xmlns="http://www.w3.org/2000/svg" xml:space="preserve" width="18.7658mm" height="7.0447mm" version="1.1" style="shape-rendering:geometricPrecision; text-rendering:geometricPrecision; image-rendering:optimizeQuality; fill-rule:evenodd; clip-rule:evenodd"
viewBox="0 0 59.01 22.15"
 xmlns:xlink="http://www.w3.org/1999/xlink">
 <defs>
  <style type="text/css">
   <![CDATA[
    .str2 {stroke:black;stroke-width:1.89;stroke-miterlimit:22.9256}
    .str1 {stroke:black;stroke-width:1.89;stroke-miterlimit:22.9256}
    .str0 {stroke:#A30005;stroke-width:1.89;stroke-miterlimit:22.9256}
    .fil2 {fill:none}
    .fil1 {fill:#A30005}
    .fil0 {fill:black}
    .fil5 {fill:#A30005;fill-rule:nonzero}
    .fil3 {fill:#A30005;fill-rule:nonzero}
    .fil4 {fill:black;fill-rule:nonzero}
   ]]>
  </style>
 </defs>
 <g id="Слой_x0020_1">
  <metadata id="CorelCorpID_0Corel-Layer"/>
  <g id="_802900456">
   <circle class="fil0" cx="26.04" cy="7.29" r="2.44"/>
   <circle class="fil1" transform="matrix(-0.02983 0.00799292 -0.00799292 -0.02983 32.9681 12.5617)" r="79.03"/>
   <g>
    <path class="fil2 str0" d="M46.37 14.1c0.85,3.17 4.11,5.05 7.28,4.2 3.17,-0.85 5.05,-4.11 4.2,-7.28 -0.85,-3.17 -4.11,-5.05 -7.28,-4.2 -3.17,0.85 -5.05,4.11 -4.2,7.28z"/>
   </g>
   <g>
    <polygon class="fil3" points="49.18,13.51 49.18,11.61 55.05,11.61 55.05,13.51 "/>
   </g>
   <g>
    <path class="fil2 str1" d="M3.92 12.44c2.84,1.64 6.48,0.67 8.12,-2.18 1.64,-2.84 0.67,-6.48 -2.18,-8.12 -2.84,-1.64 -6.48,-0.67 -8.12,2.18 -1.64,2.84 -0.67,6.48 2.18,8.12z"/>
   </g>
   <g>
    <polygon class="fil4" points="9.83,6.33 9.83,8.24 3.96,8.24 3.96,6.33 "/>
   </g>
   <g>
    <polygon class="fil5" points="53.06,9.63 53.06,15.5 51.16,15.5 51.16,9.63 "/>
   </g>
   <path class="fil2 str2" d="M37.09 0.94c1.84,1.55 3.2,3.67 3.79,6.08l-1.23 0 0 5.51 1.23 0c-0.99,4.06 -4.13,7.27 -8.14,8.37l0 -2.34 -6.14 0 0 2.34c-4.01,-1.1 -7.15,-4.32 -8.14,-8.37l1.24 0 0 -5.51 -1.24 0c0.59,-2.42 1.94,-4.53 3.79,-6.08l14.85 0z"/>
   <g>
    <polygon class="fil4" points="26.04,6.33 26.04,8.24 12.84,8.24 12.84,6.33 "/>
   </g>
   <g>
    <polygon class="fil3" points="46.17,11.61 46.17,13.51 32.97,13.51 32.97,11.61 "/>
   </g>
   <circle class="fil0" cx="24.48" cy="14.12" r="1.3"/>
  </g>
 </g>
</svg>
