<?xml version="1.0" encoding="UTF-8"?>
<!DOCTYPE svg PUBLIC "-//W3C//DTD SVG 1.1//EN" "http://www.w3.org/Graphics/SVG/1.1/DTD/svg11.dtd">
<!-- Creator: CorelDRAW 2018 -->
<svg xmlns="http://www.w3.org/2000/svg" xml:space="preserve" width="17.7366mm" height="5.1507mm" version="1.1" style="shape-rendering:geometricPrecision; text-rendering:geometricPrecision; image-rendering:optimizeQuality; fill-rule:evenodd; clip-rule:evenodd"
viewBox="0 0 79.06 22.96"
 xmlns:xlink="http://www.w3.org/1999/xlink">
 <defs>
  <style type="text/css">
   <![CDATA[
    .str0 {stroke:black;stroke-width:2.72;stroke-miterlimit:22.9256}
    .fil0 {fill:none}
    .fil4 {fill:#A30005}
    .fil3 {fill:black}
    .fil1 {fill:#A30005;fill-rule:nonzero}
    .fil2 {fill:black;fill-rule:nonzero}
   ]]>
  </style>
 </defs>
 <g id="Слой_x0020_1">
  <metadata id="CorelCorpID_0Corel-Layer"/>
  <g id="_807874736">
   <g>
    <path class="fil0 str0" d="M44.24 21.6l-9.45 0c-4.7,0 -8.56,-3.85 -8.56,-8.56l0 0c0,0 0,-11.68 0,-11.68l18.01 -0 0.01 0 8.55 0c0,5.7 0,5.97 0,11.68 0,4.71 -3.85,8.56 -8.56,8.56z"/>
   </g>
   <g>
    <path class="fil1" d="M79.06 11.26l-2.72 0 0 0 -0.01 -0.37 -0.03 -0.37 -0.05 -0.36 -0.06 -0.35 -0.08 -0.35 -0.1 -0.34 -0.11 -0.33 -0.13 -0.33 -0.14 -0.32 -0.16 -0.31 -0.17 -0.3 -0.19 -0.29 -0.2 -0.28 -0.21 -0.27 -0.23 -0.26 -0.24 -0.25 -0.25 -0.24 -0.26 -0.23 -0.27 -0.21 -0.28 -0.2 -0.29 -0.19 -0.3 -0.17 -0.31 -0.16 -0.32 -0.14 -0.33 -0.13 -0.33 -0.11 -0.34 -0.1 -0.35 -0.08 -0.35 -0.06 -0.36 -0.05 -0.37 -0.03 -0.37 -0.01 0 -2.72 0.51 0.01 0.5 0.04 0.5 0.06 0.49 0.09 0.48 0.11 0.47 0.13 0.46 0.16 0.45 0.18 0.44 0.2 0.43 0.22 0.42 0.24 0.4 0.26 0.39 0.28 0.37 0.29 0.36 0.31 0.34 0.33 0.33 0.34 0.31 0.36 0.29 0.37 0.28 0.39 0.26 0.4 0.24 0.42 0.22 0.43 0.2 0.44 0.18 0.45 0.16 0.46 0.13 0.47 0.11 0.48 0.09 0.49 0.06 0.5 0.04 0.5 0.01 0.51 0 0zm-9.92 9.92l0 -2.72 0 0 0.37 -0.01 0.37 -0.03 0.36 -0.05 0.35 -0.06 0.35 -0.08 0.34 -0.1 0.33 -0.11 0.33 -0.13 0.32 -0.14 0.31 -0.16 0.3 -0.17 0.29 -0.19 0.28 -0.2 0.27 -0.21 0.26 -0.23 0.25 -0.24 0.24 -0.25 0.23 -0.26 0.21 -0.27 0.2 -0.28 0.19 -0.29 0.17 -0.3 0.16 -0.31 0.14 -0.32 0.13 -0.33 0.11 -0.33 0.1 -0.34 0.08 -0.35 0.06 -0.35 0.05 -0.36 0.03 -0.37 0.01 -0.37 2.72 0 -0.01 0.51 -0.04 0.5 -0.06 0.5 -0.09 0.49 -0.11 0.48 -0.13 0.47 -0.16 0.46 -0.18 0.45 -0.2 0.44 -0.22 0.43 -0.24 0.42 -0.26 0.4 -0.28 0.39 -0.29 0.37 -0.31 0.36 -0.33 0.34 -0.34 0.33 -0.36 0.31 -0.37 0.29 -0.39 0.28 -0.4 0.26 -0.42 0.24 -0.43 0.22 -0.44 0.2 -0.45 0.18 -0.46 0.16 -0.47 0.13 -0.48 0.11 -0.49 0.09 -0.5 0.06 -0.5 0.04 -0.51 0.01 0 0zm-9.92 -9.92l2.72 0 0 0 0.01 0.37 0.03 0.37 0.05 0.36 0.06 0.35 0.08 0.35 0.1 0.34 0.11 0.33 0.13 0.33 0.14 0.32 0.16 0.31 0.17 0.3 0.19 0.29 0.2 0.28 0.21 0.27 0.23 0.26 0.24 0.25 0.25 0.24 0.26 0.23 0.27 0.21 0.28 0.2 0.29 0.19 0.3 0.17 0.31 0.16 0.32 0.14 0.33 0.13 0.33 0.11 0.34 0.1 0.35 0.08 0.35 0.06 0.36 0.05 0.37 0.03 0.37 0.01 0 2.72 -0.51 -0.01 -0.5 -0.04 -0.5 -0.06 -0.49 -0.09 -0.48 -0.11 -0.47 -0.13 -0.46 -0.16 -0.45 -0.18 -0.44 -0.2 -0.43 -0.22 -0.42 -0.24 -0.4 -0.26 -0.39 -0.28 -0.37 -0.29 -0.36 -0.31 -0.34 -0.33 -0.33 -0.34 -0.31 -0.36 -0.29 -0.37 -0.28 -0.39 -0.26 -0.4 -0.24 -0.42 -0.22 -0.43 -0.2 -0.44 -0.18 -0.45 -0.16 -0.46 -0.13 -0.47 -0.11 -0.48 -0.09 -0.49 -0.06 -0.5 -0.04 -0.5 -0.01 -0.51 0 0zm9.92 -9.92l0 2.72 0 0 -0.37 0.01 -0.37 0.03 -0.36 0.05 -0.35 0.06 -0.35 0.08 -0.34 0.1 -0.33 0.11 -0.33 0.13 -0.32 0.14 -0.31 0.16 -0.3 0.17 -0.29 0.19 -0.28 0.2 -0.27 0.21 -0.26 0.23 -0.25 0.24 -0.24 0.25 -0.23 0.26 -0.21 0.27 -0.2 0.28 -0.19 0.29 -0.17 0.3 -0.16 0.31 -0.14 0.32 -0.13 0.33 -0.11 0.33 -0.1 0.34 -0.08 0.35 -0.06 0.35 -0.05 0.36 -0.03 0.37 -0.01 0.37 -2.72 0 0.01 -0.51 0.04 -0.5 0.06 -0.5 0.09 -0.49 0.11 -0.48 0.13 -0.47 0.16 -0.46 0.18 -0.45 0.2 -0.44 0.22 -0.43 0.24 -0.42 0.26 -0.4 0.28 -0.39 0.29 -0.37 0.31 -0.36 0.33 -0.34 0.34 -0.33 0.36 -0.31 0.37 -0.29 0.39 -0.28 0.4 -0.26 0.42 -0.24 0.43 -0.22 0.44 -0.2 0.45 -0.18 0.46 -0.16 0.47 -0.13 0.48 -0.11 0.49 -0.09 0.5 -0.06 0.5 -0.04 0.51 -0.01 0 0z"/>
   </g>
   <g>
    <polygon class="fil1" points="60.58,12.62 45,12.62 45,9.89 60.58,9.89 "/>
   </g>
   <g>
    <polygon class="fil1" points="73.36,12.63 64.92,12.63 64.92,9.89 73.36,9.89 "/>
   </g>
   <g>
    <polygon class="fil1" points="67.77,15.48 67.77,7.03 70.51,7.03 70.51,15.48 "/>
   </g>
   <g>
    <path class="fil2" d="M-0 11.26l0 0 0.01 -0.51 0.04 -0.5 0.06 -0.5 0.09 -0.49 0.11 -0.48 0.13 -0.47 0.16 -0.46 0.18 -0.45 0.2 -0.44 0.22 -0.43 0.24 -0.42 0.26 -0.4 0.28 -0.39 0.29 -0.37 0.31 -0.36 0.33 -0.34 0.34 -0.33 0.36 -0.31 0.37 -0.29 0.39 -0.28 0.4 -0.26 0.42 -0.24 0.43 -0.22 0.44 -0.2 0.45 -0.18 0.46 -0.16 0.47 -0.13 0.48 -0.11 0.49 -0.09 0.5 -0.06 0.5 -0.04 0.51 -0.01 0 2.72 -0.37 0.01 -0.37 0.03 -0.36 0.05 -0.35 0.06 -0.35 0.08 -0.34 0.1 -0.33 0.11 -0.33 0.13 -0.32 0.14 -0.31 0.16 -0.3 0.17 -0.29 0.19 -0.28 0.2 -0.27 0.21 -0.26 0.23 -0.25 0.24 -0.24 0.25 -0.23 0.26 -0.21 0.27 -0.2 0.28 -0.19 0.29 -0.17 0.3 -0.16 0.31 -0.14 0.32 -0.13 0.33 -0.11 0.33 -0.1 0.34 -0.08 0.35 -0.06 0.35 -0.05 0.36 -0.03 0.37 -0.01 0.37 0 0 -2.72 0zm9.92 9.92l0 0 -0.51 -0.01 -0.5 -0.04 -0.5 -0.06 -0.49 -0.09 -0.48 -0.11 -0.47 -0.13 -0.46 -0.16 -0.45 -0.18 -0.44 -0.2 -0.43 -0.22 -0.42 -0.24 -0.4 -0.26 -0.39 -0.28 -0.37 -0.29 -0.36 -0.31 -0.34 -0.33 -0.33 -0.34 -0.31 -0.36 -0.29 -0.37 -0.28 -0.39 -0.26 -0.4 -0.24 -0.42 -0.22 -0.43 -0.2 -0.44 -0.18 -0.45 -0.16 -0.46 -0.13 -0.47 -0.11 -0.48 -0.09 -0.49 -0.06 -0.5 -0.04 -0.5 -0.01 -0.51 2.72 0 0.01 0.37 0.03 0.37 0.05 0.36 0.06 0.35 0.08 0.35 0.1 0.34 0.11 0.33 0.13 0.33 0.14 0.32 0.16 0.31 0.17 0.3 0.19 0.29 0.2 0.28 0.21 0.27 0.23 0.26 0.24 0.25 0.25 0.24 0.26 0.23 0.27 0.21 0.28 0.2 0.29 0.19 0.3 0.17 0.31 0.16 0.32 0.14 0.33 0.13 0.33 0.11 0.34 0.1 0.35 0.08 0.35 0.06 0.36 0.05 0.37 0.03 0.37 0.01 0 0 0 2.72zm9.92 -9.92l0 0 -0.01 0.51 -0.04 0.5 -0.06 0.5 -0.09 0.49 -0.11 0.48 -0.13 0.47 -0.16 0.46 -0.18 0.45 -0.2 0.44 -0.22 0.43 -0.24 0.42 -0.26 0.4 -0.28 0.39 -0.29 0.37 -0.31 0.36 -0.33 0.34 -0.34 0.33 -0.36 0.31 -0.37 0.29 -0.39 0.28 -0.4 0.26 -0.42 0.24 -0.43 0.22 -0.44 0.2 -0.45 0.18 -0.46 0.16 -0.47 0.13 -0.48 0.11 -0.49 0.09 -0.5 0.06 -0.5 0.04 -0.51 0.01 0 -2.72 0.37 -0.01 0.37 -0.03 0.36 -0.05 0.35 -0.06 0.35 -0.08 0.34 -0.1 0.33 -0.11 0.33 -0.13 0.32 -0.14 0.31 -0.16 0.3 -0.17 0.29 -0.19 0.28 -0.2 0.27 -0.21 0.26 -0.23 0.25 -0.24 0.24 -0.25 0.23 -0.26 0.21 -0.27 0.2 -0.28 0.19 -0.29 0.17 -0.3 0.16 -0.31 0.14 -0.32 0.13 -0.33 0.11 -0.33 0.1 -0.34 0.08 -0.35 0.06 -0.35 0.05 -0.36 0.03 -0.37 0.01 -0.37 0 0 2.72 0zm-9.92 -9.92l0 0 0.51 0.01 0.5 0.04 0.5 0.06 0.49 0.09 0.48 0.11 0.47 0.13 0.46 0.16 0.45 0.18 0.44 0.2 0.43 0.22 0.42 0.24 0.4 0.26 0.39 0.28 0.37 0.29 0.36 0.31 0.34 0.33 0.33 0.34 0.31 0.36 0.29 0.37 0.28 0.39 0.26 0.4 0.24 0.42 0.22 0.43 0.2 0.44 0.18 0.45 0.16 0.46 0.13 0.47 0.11 0.48 0.09 0.49 0.06 0.5 0.04 0.5 0.01 0.51 -2.72 0 -0.01 -0.37 -0.03 -0.37 -0.05 -0.36 -0.06 -0.35 -0.08 -0.35 -0.1 -0.34 -0.11 -0.33 -0.13 -0.33 -0.14 -0.32 -0.16 -0.31 -0.17 -0.3 -0.19 -0.29 -0.2 -0.28 -0.21 -0.27 -0.23 -0.26 -0.24 -0.25 -0.25 -0.24 -0.26 -0.23 -0.27 -0.21 -0.28 -0.2 -0.29 -0.19 -0.3 -0.17 -0.31 -0.16 -0.32 -0.14 -0.33 -0.13 -0.33 -0.11 -0.34 -0.1 -0.35 -0.08 -0.35 -0.06 -0.36 -0.05 -0.37 -0.03 -0.37 -0.01 0 0 0 -2.72z"/>
   </g>
   <g>
    <polygon class="fil2" points="18.48,12.63 18.48,9.89 34.01,9.89 34.01,12.63 "/>
   </g>
   <g>
    <polygon class="fil2" points="5.7,12.63 5.7,9.89 14.14,9.89 14.14,12.63 "/>
   </g>
   <rect class="fil3" x="30.52" y="7.76" width="6.99" height="6.99"/>
   <rect class="fil4" x="41.51" y="7.76" width="6.99" height="6.99"/>
  </g>
 </g>
</svg>
