<?xml version="1.0" encoding="UTF-8"?>
<!DOCTYPE svg PUBLIC "-//W3C//DTD SVG 1.1//EN" "http://www.w3.org/Graphics/SVG/1.1/DTD/svg11.dtd">
<!-- Creator: CorelDRAW 2019 (64-Bit) -->
<svg xmlns="http://www.w3.org/2000/svg" xml:space="preserve" width="17.7366mm" height="4.4507mm" version="1.1" style="shape-rendering:geometricPrecision; text-rendering:geometricPrecision; image-rendering:optimizeQuality; fill-rule:evenodd; clip-rule:evenodd"
viewBox="0 0 130.55 32.76"
 xmlns:xlink="http://www.w3.org/1999/xlink"
 xmlns:xodm="http://www.corel.com/coreldraw/odm/2003">
 <defs>
  <style type="text/css">
   <![CDATA[
    .str0 {stroke:black;stroke-width:4.5;stroke-miterlimit:22.9256}
    .fil0 {fill:none}
    .fil4 {fill:#A30005}
    .fil3 {fill:black}
    .fil1 {fill:#A30005;fill-rule:nonzero}
    .fil2 {fill:black;fill-rule:nonzero}
   ]]>
  </style>
 </defs>
 <g id="Слой_x0020_1">
  <metadata id="CorelCorpID_0Corel-Layer"/>
  <g id="_2093563090000">
   <g>
    <path class="fil0 str0" d="M75.25 30.51l-20.03 0c-7.77,0 -14.13,-6.36 -14.13,-14.13l0 0c0,0 0,-14.13 0,-14.13l34.16 -0 0.02 0 14.11 0c0,9.42 0,4.71 0,14.13 0,7.77 -6.36,14.13 -14.13,14.13z"/>
   </g>
   <g>
    <path class="fil1" d="M130.55 16.38l-4.5 0 0 0 -0.02 -0.61 -0.05 -0.6 -0.08 -0.59 -0.1 -0.58 -0.13 -0.57 -0.16 -0.56 -0.19 -0.55 -0.21 -0.54 -0.24 -0.53 -0.26 -0.51 -0.29 -0.5 -0.31 -0.48 -0.33 -0.47 -0.35 -0.45 -0.37 -0.43 -0.39 -0.41 -0.41 -0.39 -0.43 -0.37 -0.45 -0.35 -0.47 -0.33 -0.48 -0.31 -0.5 -0.29 -0.51 -0.26 -0.53 -0.24 -0.54 -0.21 -0.55 -0.19 -0.56 -0.16 -0.57 -0.13 -0.58 -0.1 -0.59 -0.08 -0.6 -0.05 -0.61 -0.02 0 -4.5 0.84 0.02 0.83 0.06 0.82 0.1 0.81 0.14 0.79 0.18 0.78 0.22 0.76 0.26 0.74 0.29 0.72 0.33 0.71 0.36 0.69 0.39 0.66 0.43 0.64 0.46 0.62 0.49 0.59 0.51 0.57 0.54 0.54 0.57 0.51 0.59 0.49 0.62 0.46 0.64 0.43 0.66 0.39 0.69 0.36 0.71 0.33 0.72 0.29 0.74 0.26 0.76 0.22 0.78 0.18 0.79 0.14 0.81 0.1 0.82 0.06 0.83 0.02 0.84 0 0zm-16.38 16.38l0 -4.5 0 0 0.61 -0.02 0.6 -0.05 0.59 -0.08 0.58 -0.1 0.57 -0.13 0.56 -0.16 0.55 -0.19 0.54 -0.21 0.53 -0.24 0.51 -0.26 0.5 -0.29 0.48 -0.31 0.47 -0.33 0.45 -0.35 0.43 -0.37 0.41 -0.39 0.39 -0.41 0.37 -0.43 0.35 -0.45 0.33 -0.47 0.31 -0.48 0.29 -0.5 0.26 -0.51 0.24 -0.53 0.21 -0.54 0.19 -0.55 0.16 -0.56 0.13 -0.57 0.1 -0.58 0.08 -0.59 0.05 -0.6 0.02 -0.61 4.5 0 -0.02 0.84 -0.06 0.83 -0.1 0.82 -0.14 0.81 -0.18 0.79 -0.22 0.78 -0.26 0.76 -0.29 0.74 -0.33 0.72 -0.36 0.71 -0.39 0.69 -0.43 0.66 -0.46 0.64 -0.49 0.62 -0.51 0.59 -0.54 0.57 -0.57 0.54 -0.59 0.51 -0.62 0.49 -0.64 0.46 -0.66 0.43 -0.69 0.39 -0.71 0.36 -0.72 0.33 -0.74 0.29 -0.76 0.26 -0.78 0.22 -0.79 0.18 -0.81 0.14 -0.82 0.1 -0.83 0.06 -0.84 0.02 0 0zm-16.38 -16.38l4.5 0 0 0 0.02 0.61 0.05 0.6 0.08 0.59 0.1 0.58 0.13 0.57 0.16 0.56 0.19 0.55 0.21 0.54 0.24 0.53 0.26 0.51 0.29 0.5 0.31 0.48 0.33 0.47 0.35 0.45 0.37 0.43 0.39 0.41 0.41 0.39 0.43 0.37 0.45 0.35 0.47 0.33 0.48 0.31 0.5 0.29 0.51 0.26 0.53 0.24 0.54 0.21 0.55 0.19 0.56 0.16 0.57 0.13 0.58 0.1 0.59 0.08 0.6 0.05 0.61 0.02 0 4.5 -0.84 -0.02 -0.83 -0.06 -0.82 -0.1 -0.81 -0.14 -0.79 -0.18 -0.78 -0.22 -0.76 -0.26 -0.74 -0.29 -0.72 -0.33 -0.71 -0.36 -0.69 -0.39 -0.66 -0.43 -0.64 -0.46 -0.62 -0.49 -0.59 -0.51 -0.57 -0.54 -0.54 -0.57 -0.51 -0.59 -0.49 -0.62 -0.46 -0.64 -0.43 -0.66 -0.39 -0.69 -0.36 -0.71 -0.33 -0.72 -0.29 -0.74 -0.26 -0.76 -0.22 -0.78 -0.18 -0.79 -0.14 -0.81 -0.1 -0.82 -0.06 -0.83 -0.02 -0.84 0 0zm16.38 -16.38l0 4.5 0 0 -0.61 0.02 -0.6 0.05 -0.59 0.08 -0.58 0.1 -0.57 0.13 -0.56 0.16 -0.55 0.19 -0.54 0.21 -0.53 0.24 -0.51 0.26 -0.5 0.29 -0.48 0.31 -0.47 0.33 -0.45 0.35 -0.43 0.37 -0.41 0.39 -0.39 0.41 -0.37 0.43 -0.35 0.45 -0.33 0.47 -0.31 0.48 -0.29 0.5 -0.26 0.51 -0.24 0.53 -0.21 0.54 -0.19 0.55 -0.16 0.56 -0.13 0.57 -0.1 0.58 -0.08 0.59 -0.05 0.6 -0.02 0.61 -4.5 0 0.02 -0.84 0.06 -0.83 0.1 -0.82 0.14 -0.81 0.18 -0.79 0.22 -0.78 0.26 -0.76 0.29 -0.74 0.33 -0.72 0.36 -0.71 0.39 -0.69 0.43 -0.66 0.46 -0.64 0.49 -0.62 0.51 -0.59 0.54 -0.57 0.57 -0.54 0.59 -0.51 0.62 -0.49 0.64 -0.46 0.66 -0.43 0.69 -0.39 0.71 -0.36 0.72 -0.33 0.74 -0.29 0.76 -0.26 0.78 -0.22 0.79 -0.18 0.81 -0.14 0.82 -0.1 0.83 -0.06 0.84 -0.02 0 0z"/>
   </g>
   <g>
    <polygon class="fil1" points="100.04,18.63 74.31,18.63 74.31,14.12 100.04,14.12 "/>
   </g>
   <g>
    <polygon class="fil1" points="121.14,18.64 107.19,18.64 107.19,14.12 121.14,14.12 "/>
   </g>
   <g>
    <polygon class="fil1" points="111.91,23.35 111.91,9.4 116.43,9.4 116.43,23.35 "/>
   </g>
   <g>
    <path class="fil2" d="M-0 16.38l0 0 0.02 -0.84 0.06 -0.83 0.1 -0.82 0.14 -0.81 0.18 -0.79 0.22 -0.78 0.26 -0.76 0.29 -0.74 0.33 -0.72 0.36 -0.71 0.39 -0.69 0.43 -0.66 0.46 -0.64 0.49 -0.62 0.51 -0.59 0.54 -0.57 0.57 -0.54 0.59 -0.51 0.62 -0.49 0.64 -0.46 0.66 -0.43 0.69 -0.39 0.71 -0.36 0.72 -0.33 0.74 -0.29 0.76 -0.26 0.78 -0.22 0.79 -0.18 0.81 -0.14 0.82 -0.1 0.83 -0.06 0.84 -0.02 0 4.5 -0.61 0.02 -0.6 0.05 -0.59 0.08 -0.58 0.1 -0.57 0.13 -0.56 0.16 -0.55 0.19 -0.54 0.21 -0.53 0.24 -0.51 0.26 -0.5 0.29 -0.48 0.31 -0.47 0.33 -0.45 0.35 -0.43 0.37 -0.41 0.39 -0.39 0.41 -0.37 0.43 -0.35 0.45 -0.33 0.47 -0.31 0.48 -0.29 0.5 -0.26 0.51 -0.24 0.53 -0.21 0.54 -0.19 0.55 -0.16 0.56 -0.13 0.57 -0.1 0.58 -0.08 0.59 -0.05 0.6 -0.02 0.61 0 0 -4.5 0zm16.38 16.38l0 0 -0.84 -0.02 -0.83 -0.06 -0.82 -0.1 -0.81 -0.14 -0.79 -0.18 -0.78 -0.22 -0.76 -0.26 -0.74 -0.29 -0.72 -0.33 -0.71 -0.36 -0.69 -0.39 -0.66 -0.43 -0.64 -0.46 -0.62 -0.49 -0.59 -0.51 -0.57 -0.54 -0.54 -0.57 -0.51 -0.59 -0.49 -0.62 -0.46 -0.64 -0.43 -0.66 -0.39 -0.69 -0.36 -0.71 -0.33 -0.72 -0.29 -0.74 -0.26 -0.76 -0.22 -0.78 -0.18 -0.79 -0.14 -0.81 -0.1 -0.82 -0.06 -0.83 -0.02 -0.84 4.5 0 0.02 0.61 0.05 0.6 0.08 0.59 0.1 0.58 0.13 0.57 0.16 0.56 0.19 0.55 0.21 0.54 0.24 0.53 0.26 0.51 0.29 0.5 0.31 0.48 0.33 0.47 0.35 0.45 0.37 0.43 0.39 0.41 0.41 0.39 0.43 0.37 0.45 0.35 0.47 0.33 0.48 0.31 0.5 0.29 0.51 0.26 0.53 0.24 0.54 0.21 0.55 0.19 0.56 0.16 0.57 0.13 0.58 0.1 0.59 0.08 0.6 0.05 0.61 0.02 0 0 0 4.5zm16.38 -16.38l0 0 -0.02 0.84 -0.06 0.83 -0.1 0.82 -0.14 0.81 -0.18 0.79 -0.22 0.78 -0.26 0.76 -0.29 0.74 -0.33 0.72 -0.36 0.71 -0.39 0.69 -0.43 0.66 -0.46 0.64 -0.49 0.62 -0.51 0.59 -0.54 0.57 -0.57 0.54 -0.59 0.51 -0.62 0.49 -0.64 0.46 -0.66 0.43 -0.69 0.39 -0.71 0.36 -0.72 0.33 -0.74 0.29 -0.76 0.26 -0.78 0.22 -0.79 0.18 -0.81 0.14 -0.82 0.1 -0.83 0.06 -0.84 0.02 0 -4.5 0.61 -0.02 0.6 -0.05 0.59 -0.08 0.58 -0.1 0.57 -0.13 0.56 -0.16 0.55 -0.19 0.54 -0.21 0.53 -0.24 0.51 -0.26 0.5 -0.29 0.48 -0.31 0.47 -0.33 0.45 -0.35 0.43 -0.37 0.41 -0.39 0.39 -0.41 0.37 -0.43 0.35 -0.45 0.33 -0.47 0.31 -0.48 0.29 -0.5 0.26 -0.51 0.24 -0.53 0.21 -0.54 0.19 -0.55 0.16 -0.56 0.13 -0.57 0.1 -0.58 0.08 -0.59 0.05 -0.6 0.02 -0.61 0 0 4.5 0zm-16.38 -16.38l0 0 0.84 0.02 0.83 0.06 0.82 0.1 0.81 0.14 0.79 0.18 0.78 0.22 0.76 0.26 0.74 0.29 0.72 0.33 0.71 0.36 0.69 0.39 0.66 0.43 0.64 0.46 0.62 0.49 0.59 0.51 0.57 0.54 0.54 0.57 0.51 0.59 0.49 0.62 0.46 0.64 0.43 0.66 0.39 0.69 0.36 0.71 0.33 0.72 0.29 0.74 0.26 0.76 0.22 0.78 0.18 0.79 0.14 0.81 0.1 0.82 0.06 0.83 0.02 0.84 -4.5 0 -0.02 -0.61 -0.05 -0.6 -0.08 -0.59 -0.1 -0.58 -0.13 -0.57 -0.16 -0.56 -0.19 -0.55 -0.21 -0.54 -0.24 -0.53 -0.26 -0.51 -0.29 -0.5 -0.31 -0.48 -0.33 -0.47 -0.35 -0.45 -0.37 -0.43 -0.39 -0.41 -0.41 -0.39 -0.43 -0.37 -0.45 -0.35 -0.47 -0.33 -0.48 -0.31 -0.5 -0.29 -0.51 -0.26 -0.53 -0.24 -0.54 -0.21 -0.55 -0.19 -0.56 -0.16 -0.57 -0.13 -0.58 -0.1 -0.59 -0.08 -0.6 -0.05 -0.61 -0.02 0 0 0 -4.5z"/>
   </g>
   <g>
    <polygon class="fil2" points="30.51,18.64 30.51,14.12 56.17,14.12 56.17,18.64 "/>
   </g>
   <g>
    <polygon class="fil2" points="9.4,18.64 9.4,14.12 23.35,14.12 23.35,18.64 "/>
   </g>
   <rect class="fil3" x="50.39" y="10.61" width="11.55" height="11.55"/>
   <rect class="fil4" x="68.54" y="10.61" width="11.55" height="11.55"/>
  </g>
 </g>
</svg>
