<?xml version="1.0" encoding="UTF-8"?>
<!DOCTYPE svg PUBLIC "-//W3C//DTD SVG 1.1//EN" "http://www.w3.org/Graphics/SVG/1.1/DTD/svg11.dtd">
<!-- Creator: CorelDRAW 2019 (64-Bit) -->
<svg xmlns="http://www.w3.org/2000/svg" xml:space="preserve" width="18.9398mm" height="4.4286mm" version="1.1" style="shape-rendering:geometricPrecision; text-rendering:geometricPrecision; image-rendering:optimizeQuality; fill-rule:evenodd; clip-rule:evenodd"
viewBox="0 0 149.61 34.98"
 xmlns:xlink="http://www.w3.org/1999/xlink"
 xmlns:xodm="http://www.corel.com/coreldraw/odm/2003">
 <defs>
  <style type="text/css">
   <![CDATA[
    .fil3 {fill:#A30005}
    .fil2 {fill:black}
    .fil1 {fill:#A30005;fill-rule:nonzero}
    .fil0 {fill:black;fill-rule:nonzero}
   ]]>
  </style>
 </defs>
 <g id="Слой_x0020_1">
  <metadata id="CorelCorpID_0Corel-Layer"/>
  <g id="_2093591945984">
   <g>
    <path class="fil0" d="M100.4 4.8l-51.2 0 0 -4.8 51.2 0 2.15 0.98 -2.15 3.83zm0 -4.8l1.35 0 0.8 0.98 -2.15 -0.98zm6.73 14.63l-8.88 -10.8 4.31 -2.85 8.88 10.8 0.52 1.43 -4.83 1.43zm4.31 -2.85l0.52 0.64 0 0.79 -0.52 -1.43zm-4.83 20.81l0 -19.38 5.36 0 0 19.38 -2.68 2.4 -2.68 -2.4zm5.36 0l0 2.4 -2.68 0 2.68 -2.4zm-71.64 -2.4l68.97 0 0 4.8 -68.97 0 -2.68 -2.4 2.68 -2.4zm0 4.8l-2.68 0 0 -2.4 2.68 2.4zm2.68 -21.78l0 19.38 -5.36 0 -0 -19.38 0.52 -1.43 4.83 1.43zm-5.36 0l0 -0.79 0.52 -0.64 -0.52 1.43zm13.72 -9.37l-8.88 10.8 -4.31 -2.85 8.88 -10.8 2.16 -0.98 2.16 3.83zm-4.31 -2.85l0.8 -0.98 1.35 0 -2.16 0.98z"/>
   </g>
   <g>
    <path class="fil1" d="M149.61 17.49l-4.8 0 0 0 -0.02 -0.65 -0.05 -0.65 -0.08 -0.64 -0.11 -0.62 -0.14 -0.61 -0.17 -0.6 -0.2 -0.59 -0.23 -0.58 -0.25 -0.56 -0.28 -0.55 -0.31 -0.53 -0.33 -0.52 -0.35 -0.5 -0.38 -0.48 -0.4 -0.46 -0.42 -0.44 -0.44 -0.42 -0.46 -0.4 -0.48 -0.38 -0.5 -0.35 -0.52 -0.33 -0.53 -0.31 -0.55 -0.28 -0.56 -0.25 -0.58 -0.23 -0.59 -0.2 -0.6 -0.17 -0.61 -0.14 -0.62 -0.11 -0.64 -0.08 -0.65 -0.05 -0.65 -0.02 0 -4.8 0.9 0.02 0.89 0.07 0.88 0.11 0.86 0.15 0.85 0.2 0.83 0.24 0.81 0.27 0.8 0.31 0.78 0.35 0.75 0.39 0.73 0.42 0.71 0.45 0.69 0.49 0.66 0.52 0.63 0.55 0.61 0.58 0.58 0.61 0.55 0.63 0.52 0.66 0.49 0.69 0.45 0.71 0.42 0.73 0.39 0.75 0.35 0.78 0.31 0.8 0.27 0.81 0.24 0.83 0.2 0.85 0.15 0.86 0.11 0.88 0.07 0.89 0.02 0.9 0 0zm-17.49 17.49l0 -4.8 0 0 0.65 -0.02 0.65 -0.05 0.64 -0.08 0.62 -0.11 0.61 -0.14 0.6 -0.17 0.59 -0.2 0.58 -0.23 0.56 -0.25 0.55 -0.28 0.53 -0.31 0.52 -0.33 0.5 -0.35 0.48 -0.38 0.46 -0.4 0.44 -0.42 0.42 -0.44 0.4 -0.46 0.38 -0.48 0.35 -0.5 0.33 -0.52 0.31 -0.53 0.28 -0.55 0.25 -0.56 0.23 -0.58 0.2 -0.59 0.17 -0.6 0.14 -0.61 0.11 -0.62 0.08 -0.64 0.05 -0.65 0.02 -0.65 4.8 0 -0.02 0.9 -0.07 0.89 -0.11 0.88 -0.15 0.86 -0.2 0.85 -0.24 0.83 -0.27 0.81 -0.31 0.8 -0.35 0.78 -0.39 0.75 -0.42 0.73 -0.45 0.71 -0.49 0.69 -0.52 0.66 -0.55 0.63 -0.58 0.61 -0.61 0.58 -0.63 0.55 -0.66 0.52 -0.69 0.49 -0.71 0.45 -0.73 0.42 -0.75 0.39 -0.78 0.35 -0.8 0.31 -0.81 0.27 -0.83 0.24 -0.85 0.2 -0.86 0.15 -0.88 0.11 -0.89 0.07 -0.9 0.02 0 0zm-17.49 -17.49l4.8 0 0 0 0.02 0.65 0.05 0.65 0.08 0.64 0.11 0.62 0.14 0.61 0.17 0.6 0.2 0.59 0.23 0.58 0.25 0.56 0.28 0.55 0.31 0.53 0.33 0.52 0.35 0.5 0.38 0.48 0.4 0.46 0.42 0.44 0.44 0.42 0.46 0.4 0.48 0.38 0.5 0.35 0.52 0.33 0.53 0.31 0.55 0.28 0.56 0.25 0.58 0.23 0.59 0.2 0.6 0.17 0.61 0.14 0.62 0.11 0.64 0.08 0.65 0.05 0.65 0.02 0 4.8 -0.9 -0.02 -0.89 -0.07 -0.88 -0.11 -0.86 -0.15 -0.85 -0.2 -0.83 -0.24 -0.81 -0.27 -0.8 -0.31 -0.78 -0.35 -0.75 -0.39 -0.73 -0.42 -0.71 -0.45 -0.69 -0.49 -0.66 -0.52 -0.63 -0.55 -0.61 -0.58 -0.58 -0.61 -0.55 -0.63 -0.52 -0.66 -0.49 -0.69 -0.45 -0.71 -0.42 -0.73 -0.39 -0.75 -0.35 -0.78 -0.31 -0.8 -0.27 -0.81 -0.24 -0.83 -0.2 -0.85 -0.15 -0.86 -0.11 -0.88 -0.07 -0.89 -0.02 -0.9 0 0zm17.49 -17.49l0 4.8 0 0 -0.65 0.02 -0.65 0.05 -0.64 0.08 -0.62 0.11 -0.61 0.14 -0.6 0.17 -0.59 0.2 -0.58 0.23 -0.56 0.25 -0.55 0.28 -0.53 0.31 -0.52 0.33 -0.5 0.35 -0.48 0.38 -0.46 0.4 -0.44 0.42 -0.42 0.44 -0.4 0.46 -0.38 0.48 -0.35 0.5 -0.33 0.52 -0.31 0.53 -0.28 0.55 -0.25 0.56 -0.23 0.58 -0.2 0.59 -0.17 0.6 -0.14 0.61 -0.11 0.62 -0.08 0.64 -0.05 0.65 -0.02 0.65 -4.8 0 0.02 -0.9 0.07 -0.89 0.11 -0.88 0.15 -0.86 0.2 -0.85 0.24 -0.83 0.27 -0.81 0.31 -0.8 0.35 -0.78 0.39 -0.75 0.42 -0.73 0.45 -0.71 0.49 -0.69 0.52 -0.66 0.55 -0.63 0.58 -0.61 0.61 -0.58 0.63 -0.55 0.66 -0.52 0.69 -0.49 0.71 -0.45 0.73 -0.42 0.75 -0.39 0.78 -0.35 0.8 -0.31 0.81 -0.27 0.83 -0.24 0.85 -0.2 0.86 -0.15 0.88 -0.11 0.89 -0.07 0.9 -0.02 0 0z"/>
   </g>
   <polygon class="fil1" points="98,19.92 118.43,19.92 118.43,24.72 98,24.72 "/>
   <g>
    <polygon class="fil1" points="139.56,19.91 124.67,19.91 124.67,15.07 139.56,15.07 "/>
   </g>
   <g>
    <polygon class="fil1" points="129.7,24.94 129.7,10.04 134.53,10.04 134.53,24.94 "/>
   </g>
   <g>
    <path class="fil0" d="M-0 17.49l0 0 0.02 -0.9 0.07 -0.89 0.11 -0.88 0.15 -0.86 0.2 -0.85 0.24 -0.83 0.27 -0.81 0.31 -0.8 0.35 -0.78 0.39 -0.75 0.42 -0.73 0.45 -0.71 0.49 -0.69 0.52 -0.66 0.55 -0.63 0.58 -0.61 0.61 -0.58 0.63 -0.55 0.66 -0.52 0.69 -0.49 0.71 -0.45 0.73 -0.42 0.75 -0.39 0.78 -0.35 0.8 -0.31 0.81 -0.27 0.83 -0.24 0.85 -0.2 0.86 -0.15 0.88 -0.11 0.89 -0.07 0.9 -0.02 0 4.8 -0.65 0.02 -0.65 0.05 -0.64 0.08 -0.62 0.11 -0.61 0.14 -0.6 0.17 -0.59 0.2 -0.58 0.23 -0.56 0.25 -0.55 0.28 -0.53 0.31 -0.52 0.33 -0.5 0.35 -0.48 0.38 -0.46 0.4 -0.44 0.42 -0.42 0.44 -0.4 0.46 -0.38 0.48 -0.35 0.5 -0.33 0.52 -0.31 0.53 -0.28 0.55 -0.25 0.56 -0.23 0.58 -0.2 0.59 -0.17 0.6 -0.14 0.61 -0.11 0.62 -0.08 0.64 -0.05 0.65 -0.02 0.65 0 0 -4.8 0zm17.49 17.49l0 0 -0.9 -0.02 -0.89 -0.07 -0.88 -0.11 -0.86 -0.15 -0.85 -0.2 -0.83 -0.24 -0.81 -0.27 -0.8 -0.31 -0.78 -0.35 -0.75 -0.39 -0.73 -0.42 -0.71 -0.45 -0.69 -0.49 -0.66 -0.52 -0.63 -0.55 -0.61 -0.58 -0.58 -0.61 -0.55 -0.63 -0.52 -0.66 -0.49 -0.69 -0.45 -0.71 -0.42 -0.73 -0.39 -0.75 -0.35 -0.78 -0.31 -0.8 -0.27 -0.81 -0.24 -0.83 -0.2 -0.85 -0.15 -0.86 -0.11 -0.88 -0.07 -0.89 -0.02 -0.9 4.8 0 0.02 0.65 0.05 0.65 0.08 0.64 0.11 0.62 0.14 0.61 0.17 0.6 0.2 0.59 0.23 0.58 0.25 0.56 0.28 0.55 0.31 0.53 0.33 0.52 0.35 0.5 0.38 0.48 0.4 0.46 0.42 0.44 0.44 0.42 0.46 0.4 0.48 0.38 0.5 0.35 0.52 0.33 0.53 0.31 0.55 0.28 0.56 0.25 0.58 0.23 0.59 0.2 0.6 0.17 0.61 0.14 0.62 0.11 0.64 0.08 0.65 0.05 0.65 0.02 0 0 0 4.8zm17.49 -17.49l0 0 -0.02 0.9 -0.07 0.89 -0.11 0.88 -0.15 0.86 -0.2 0.85 -0.24 0.83 -0.27 0.81 -0.31 0.8 -0.35 0.77 -0.39 0.75 -0.42 0.73 -0.45 0.71 -0.49 0.69 -0.52 0.66 -0.55 0.63 -0.58 0.61 -0.61 0.58 -0.63 0.55 -0.66 0.52 -0.69 0.49 -0.71 0.45 -0.73 0.42 -0.75 0.39 -0.77 0.35 -0.8 0.31 -0.81 0.27 -0.83 0.24 -0.85 0.2 -0.86 0.15 -0.88 0.11 -0.89 0.07 -0.9 0.02 0 -4.8 0.65 -0.02 0.65 -0.05 0.64 -0.08 0.62 -0.11 0.61 -0.14 0.6 -0.17 0.59 -0.2 0.57 -0.23 0.56 -0.25 0.55 -0.28 0.53 -0.31 0.52 -0.33 0.5 -0.35 0.48 -0.38 0.46 -0.4 0.44 -0.42 0.42 -0.44 0.4 -0.46 0.38 -0.48 0.35 -0.5 0.33 -0.52 0.3 -0.53 0.28 -0.55 0.25 -0.56 0.23 -0.58 0.2 -0.59 0.17 -0.6 0.14 -0.61 0.11 -0.62 0.08 -0.64 0.05 -0.65 0.02 -0.65 0 0 4.8 0zm-17.49 -17.49l0 0 0.9 0.02 0.89 0.07 0.88 0.11 0.86 0.15 0.85 0.2 0.83 0.24 0.81 0.27 0.8 0.31 0.77 0.35 0.75 0.39 0.73 0.42 0.71 0.45 0.69 0.49 0.66 0.52 0.63 0.55 0.61 0.58 0.58 0.61 0.55 0.63 0.52 0.66 0.49 0.69 0.45 0.71 0.42 0.73 0.39 0.75 0.35 0.77 0.31 0.8 0.27 0.81 0.24 0.83 0.2 0.85 0.15 0.86 0.11 0.88 0.07 0.89 0.02 0.9 -4.8 0 -0.02 -0.65 -0.05 -0.65 -0.08 -0.64 -0.11 -0.62 -0.14 -0.61 -0.17 -0.6 -0.2 -0.59 -0.23 -0.58 -0.25 -0.56 -0.28 -0.55 -0.3 -0.53 -0.33 -0.52 -0.35 -0.5 -0.38 -0.48 -0.4 -0.46 -0.42 -0.44 -0.44 -0.42 -0.46 -0.4 -0.48 -0.38 -0.5 -0.35 -0.52 -0.33 -0.53 -0.31 -0.55 -0.28 -0.56 -0.25 -0.57 -0.23 -0.59 -0.2 -0.6 -0.17 -0.61 -0.14 -0.62 -0.11 -0.64 -0.08 -0.65 -0.05 -0.65 -0.02 0 0 0 -4.8z"/>
   </g>
   <polygon class="fil0" points="51.61,24.75 32.58,24.75 32.58,19.92 51.61,19.92 "/>
   <g>
    <polygon class="fil0" points="10.04,19.91 10.04,15.07 24.94,15.07 24.94,19.91 "/>
   </g>
   <rect class="fil2" transform="matrix(1.9231E-14 0.88495 -0.564421 1.82182E-14 51.61 19.9222)" width="8.53" height="8.53"/>
   <rect class="fil2" transform="matrix(1.9231E-14 0.88495 -0.564421 1.82182E-14 58.9245 19.9222)" width="8.53" height="8.53"/>
   <rect class="fil2" transform="matrix(1.9231E-14 0.88495 -0.564421 1.82182E-14 66.239 19.9222)" width="8.53" height="8.53"/>
   <rect class="fil2" transform="matrix(1.9231E-14 0.88495 -0.564421 1.82182E-14 73.5535 19.9222)" width="8.53" height="8.53"/>
   <rect class="fil2" transform="matrix(1.9231E-14 0.88495 -0.564421 1.82182E-14 80.868 19.9222)" width="8.53" height="8.53"/>
   <rect class="fil2" transform="matrix(1.9231E-14 0.88495 -0.564421 1.82182E-14 88.1825 19.9222)" width="8.53" height="8.53"/>
   <rect class="fil2" transform="matrix(1.9231E-14 0.88495 -0.564421 1.82182E-14 95.497 19.9222)" width="8.53" height="8.53"/>
   <rect class="fil3" transform="matrix(1.9231E-14 0.88495 -0.564421 1.82182E-14 102.814 19.9222)" width="8.53" height="8.53"/>
  </g>
 </g>
</svg>
