<?xml version="1.0" encoding="UTF-8"?>
<!DOCTYPE svg PUBLIC "-//W3C//DTD SVG 1.1//EN" "http://www.w3.org/Graphics/SVG/1.1/DTD/svg11.dtd">
<!-- Creator: CorelDRAW 2019 (64-Bit) -->
<svg xmlns="http://www.w3.org/2000/svg" xml:space="preserve" width="18.9398mm" height="4.7286mm" version="1.1" style="shape-rendering:geometricPrecision; text-rendering:geometricPrecision; image-rendering:optimizeQuality; fill-rule:evenodd; clip-rule:evenodd"
viewBox="0 0 149.61 37.35"
 xmlns:xlink="http://www.w3.org/1999/xlink"
 xmlns:xodm="http://www.corel.com/coreldraw/odm/2003">
 <defs>
  <style type="text/css">
   <![CDATA[
    .str0 {stroke:black;stroke-width:4.8;stroke-miterlimit:22.9256}
    .fil0 {fill:none}
    .fil4 {fill:#A30005}
    .fil3 {fill:black}
    .fil1 {fill:#A30005;fill-rule:nonzero}
    .fil2 {fill:black;fill-rule:nonzero}
   ]]>
  </style>
 </defs>
 <g id="Слой_x0020_1">
  <metadata id="CorelCorpID_0Corel-Layer"/>
  <g id="_2093699379504">
   <g>
    <polygon class="fil0 str0" points="54.68,4.77 70.33,4.77 70.8,2.4 78.81,2.4 79.28,4.77 94.92,4.77 105.72,4.77 105.72,34.95 43.89,34.95 43.89,4.77 "/>
   </g>
   <g>
    <path class="fil1" d="M149.61 19.86l-4.8 0 0 0 -0.02 -0.65 -0.05 -0.65 -0.08 -0.64 -0.11 -0.62 -0.14 -0.61 -0.17 -0.6 -0.2 -0.59 -0.23 -0.58 -0.25 -0.56 -0.28 -0.55 -0.31 -0.53 -0.33 -0.52 -0.35 -0.5 -0.38 -0.48 -0.4 -0.46 -0.42 -0.44 -0.44 -0.42 -0.46 -0.4 -0.48 -0.38 -0.5 -0.35 -0.52 -0.33 -0.53 -0.31 -0.55 -0.28 -0.56 -0.25 -0.58 -0.23 -0.59 -0.2 -0.6 -0.17 -0.61 -0.14 -0.62 -0.11 -0.64 -0.08 -0.65 -0.05 -0.65 -0.02 0 -4.8 0.9 0.02 0.89 0.07 0.88 0.11 0.86 0.15 0.85 0.2 0.83 0.24 0.81 0.27 0.8 0.31 0.78 0.35 0.75 0.39 0.73 0.42 0.71 0.45 0.69 0.49 0.66 0.52 0.63 0.55 0.61 0.58 0.58 0.61 0.55 0.63 0.52 0.66 0.49 0.69 0.45 0.71 0.42 0.73 0.39 0.75 0.35 0.78 0.31 0.8 0.27 0.81 0.24 0.83 0.2 0.85 0.15 0.86 0.11 0.88 0.07 0.89 0.02 0.9 0 0zm-17.49 17.49l0 -4.8 0 0 0.65 -0.02 0.65 -0.05 0.64 -0.08 0.62 -0.11 0.61 -0.14 0.6 -0.17 0.59 -0.2 0.58 -0.23 0.56 -0.25 0.55 -0.28 0.53 -0.31 0.52 -0.33 0.5 -0.35 0.48 -0.38 0.46 -0.4 0.44 -0.42 0.42 -0.44 0.4 -0.46 0.38 -0.48 0.35 -0.5 0.33 -0.52 0.31 -0.53 0.28 -0.55 0.25 -0.56 0.23 -0.58 0.2 -0.59 0.17 -0.6 0.14 -0.61 0.11 -0.62 0.08 -0.64 0.05 -0.65 0.02 -0.65 4.8 0 -0.02 0.9 -0.07 0.89 -0.11 0.88 -0.15 0.86 -0.2 0.85 -0.24 0.83 -0.27 0.81 -0.31 0.8 -0.35 0.78 -0.39 0.75 -0.42 0.73 -0.45 0.71 -0.49 0.69 -0.52 0.66 -0.55 0.63 -0.58 0.61 -0.61 0.58 -0.63 0.55 -0.66 0.52 -0.69 0.49 -0.71 0.45 -0.73 0.42 -0.75 0.39 -0.78 0.35 -0.8 0.31 -0.81 0.27 -0.83 0.24 -0.85 0.2 -0.86 0.15 -0.88 0.11 -0.89 0.07 -0.9 0.02 0 0zm-17.49 -17.49l4.8 0 0 0 0.02 0.65 0.05 0.65 0.08 0.64 0.11 0.62 0.14 0.61 0.17 0.6 0.2 0.59 0.23 0.58 0.25 0.56 0.28 0.55 0.31 0.53 0.33 0.52 0.35 0.5 0.38 0.48 0.4 0.46 0.42 0.44 0.44 0.42 0.46 0.4 0.48 0.38 0.5 0.35 0.52 0.33 0.53 0.31 0.55 0.28 0.56 0.25 0.58 0.23 0.59 0.2 0.6 0.17 0.61 0.14 0.62 0.11 0.64 0.08 0.65 0.05 0.65 0.02 0 4.8 -0.9 -0.02 -0.89 -0.07 -0.88 -0.11 -0.86 -0.15 -0.85 -0.2 -0.83 -0.24 -0.81 -0.27 -0.8 -0.31 -0.78 -0.35 -0.75 -0.39 -0.73 -0.42 -0.71 -0.45 -0.69 -0.49 -0.66 -0.52 -0.63 -0.55 -0.61 -0.58 -0.58 -0.61 -0.55 -0.63 -0.52 -0.66 -0.49 -0.69 -0.45 -0.71 -0.42 -0.73 -0.39 -0.75 -0.35 -0.78 -0.31 -0.8 -0.27 -0.81 -0.24 -0.83 -0.2 -0.85 -0.15 -0.86 -0.11 -0.88 -0.07 -0.89 -0.02 -0.9 0 0zm17.49 -17.49l0 4.8 0 0 -0.65 0.02 -0.65 0.05 -0.64 0.08 -0.62 0.11 -0.61 0.14 -0.6 0.17 -0.59 0.2 -0.58 0.23 -0.56 0.25 -0.55 0.28 -0.53 0.31 -0.52 0.33 -0.5 0.35 -0.48 0.38 -0.46 0.4 -0.44 0.42 -0.42 0.44 -0.4 0.46 -0.38 0.48 -0.35 0.5 -0.33 0.52 -0.31 0.53 -0.28 0.55 -0.25 0.56 -0.23 0.58 -0.2 0.59 -0.17 0.6 -0.14 0.61 -0.11 0.62 -0.08 0.64 -0.05 0.65 -0.02 0.65 -4.8 0 0.02 -0.9 0.07 -0.89 0.11 -0.88 0.15 -0.86 0.2 -0.85 0.24 -0.83 0.27 -0.81 0.31 -0.8 0.35 -0.78 0.39 -0.75 0.42 -0.73 0.45 -0.71 0.49 -0.69 0.52 -0.66 0.55 -0.63 0.58 -0.61 0.61 -0.58 0.63 -0.55 0.66 -0.52 0.69 -0.49 0.71 -0.45 0.73 -0.42 0.75 -0.39 0.78 -0.35 0.8 -0.31 0.81 -0.27 0.83 -0.24 0.85 -0.2 0.86 -0.15 0.88 -0.11 0.89 -0.07 0.9 -0.02 0 0z"/>
   </g>
   <g>
    <polygon class="fil1" points="117.03,22.27 89.89,22.27 89.89,17.45 117.03,17.45 "/>
   </g>
   <g>
    <polygon class="fil1" points="139.56,22.28 124.67,22.28 124.67,17.44 139.56,17.44 "/>
   </g>
   <g>
    <polygon class="fil1" points="129.7,27.31 129.7,12.41 134.53,12.41 134.53,27.31 "/>
   </g>
   <g>
    <path class="fil2" d="M-0 19.86l0 0 0.02 -0.9 0.07 -0.89 0.11 -0.88 0.15 -0.86 0.2 -0.85 0.24 -0.83 0.27 -0.81 0.31 -0.8 0.35 -0.78 0.39 -0.75 0.42 -0.73 0.45 -0.71 0.49 -0.69 0.52 -0.66 0.55 -0.63 0.58 -0.61 0.61 -0.58 0.63 -0.55 0.66 -0.52 0.69 -0.49 0.71 -0.45 0.73 -0.42 0.75 -0.39 0.78 -0.35 0.8 -0.31 0.81 -0.27 0.83 -0.24 0.85 -0.2 0.86 -0.15 0.88 -0.11 0.89 -0.07 0.9 -0.02 0 4.8 -0.65 0.02 -0.65 0.05 -0.64 0.08 -0.62 0.11 -0.61 0.14 -0.6 0.17 -0.59 0.2 -0.58 0.23 -0.56 0.25 -0.55 0.28 -0.53 0.31 -0.52 0.33 -0.5 0.35 -0.48 0.38 -0.46 0.4 -0.44 0.42 -0.42 0.44 -0.4 0.46 -0.38 0.48 -0.35 0.5 -0.33 0.52 -0.31 0.53 -0.28 0.55 -0.25 0.56 -0.23 0.58 -0.2 0.59 -0.17 0.6 -0.14 0.61 -0.11 0.62 -0.08 0.64 -0.05 0.65 -0.02 0.65 0 0 -4.8 0zm17.49 17.49l0 0 -0.9 -0.02 -0.89 -0.07 -0.88 -0.11 -0.86 -0.15 -0.85 -0.2 -0.83 -0.24 -0.81 -0.27 -0.8 -0.31 -0.78 -0.35 -0.75 -0.39 -0.73 -0.42 -0.71 -0.45 -0.69 -0.49 -0.66 -0.52 -0.63 -0.55 -0.61 -0.58 -0.58 -0.61 -0.55 -0.63 -0.52 -0.66 -0.49 -0.69 -0.45 -0.71 -0.42 -0.73 -0.39 -0.75 -0.35 -0.78 -0.31 -0.8 -0.27 -0.81 -0.24 -0.83 -0.2 -0.85 -0.15 -0.86 -0.11 -0.88 -0.07 -0.89 -0.02 -0.9 4.8 0 0.02 0.65 0.05 0.65 0.08 0.64 0.11 0.62 0.14 0.61 0.17 0.6 0.2 0.59 0.23 0.58 0.25 0.56 0.28 0.55 0.31 0.53 0.33 0.52 0.35 0.5 0.38 0.48 0.4 0.46 0.42 0.44 0.44 0.42 0.46 0.4 0.48 0.38 0.5 0.35 0.52 0.33 0.53 0.31 0.55 0.28 0.56 0.25 0.58 0.23 0.59 0.2 0.6 0.17 0.61 0.14 0.62 0.11 0.64 0.08 0.65 0.05 0.65 0.02 0 0 0 4.8zm17.49 -17.49l0 0 -0.02 0.9 -0.07 0.89 -0.11 0.88 -0.15 0.86 -0.2 0.85 -0.24 0.83 -0.27 0.81 -0.31 0.8 -0.35 0.77 -0.39 0.75 -0.42 0.73 -0.45 0.71 -0.49 0.69 -0.52 0.66 -0.55 0.63 -0.58 0.61 -0.61 0.58 -0.63 0.55 -0.66 0.52 -0.69 0.49 -0.71 0.45 -0.73 0.42 -0.75 0.39 -0.77 0.35 -0.8 0.31 -0.81 0.27 -0.83 0.24 -0.85 0.2 -0.86 0.15 -0.88 0.11 -0.89 0.07 -0.9 0.02 0 -4.8 0.65 -0.02 0.65 -0.05 0.64 -0.08 0.62 -0.11 0.61 -0.14 0.6 -0.17 0.59 -0.2 0.57 -0.23 0.56 -0.25 0.55 -0.28 0.53 -0.31 0.52 -0.33 0.5 -0.35 0.48 -0.38 0.46 -0.4 0.44 -0.42 0.42 -0.44 0.4 -0.46 0.38 -0.48 0.35 -0.5 0.33 -0.52 0.3 -0.53 0.28 -0.55 0.25 -0.56 0.23 -0.58 0.2 -0.59 0.17 -0.6 0.14 -0.61 0.11 -0.62 0.08 -0.64 0.05 -0.65 0.02 -0.65 0 0 4.8 0zm-17.49 -17.49l0 0 0.9 0.02 0.89 0.07 0.88 0.11 0.86 0.15 0.85 0.2 0.83 0.24 0.81 0.27 0.8 0.31 0.77 0.35 0.75 0.39 0.73 0.42 0.71 0.45 0.69 0.49 0.66 0.52 0.63 0.55 0.61 0.58 0.58 0.61 0.55 0.63 0.52 0.66 0.49 0.69 0.45 0.71 0.42 0.73 0.39 0.75 0.35 0.77 0.31 0.8 0.27 0.81 0.24 0.83 0.2 0.85 0.15 0.86 0.11 0.88 0.07 0.89 0.02 0.9 -4.8 0 -0.02 -0.65 -0.05 -0.65 -0.08 -0.64 -0.11 -0.62 -0.14 -0.61 -0.17 -0.6 -0.2 -0.59 -0.23 -0.58 -0.25 -0.56 -0.28 -0.55 -0.3 -0.53 -0.33 -0.52 -0.35 -0.5 -0.38 -0.48 -0.4 -0.46 -0.42 -0.44 -0.44 -0.42 -0.46 -0.4 -0.48 -0.38 -0.5 -0.35 -0.52 -0.33 -0.53 -0.31 -0.55 -0.28 -0.56 -0.25 -0.57 -0.23 -0.59 -0.2 -0.6 -0.17 -0.61 -0.14 -0.62 -0.11 -0.64 -0.08 -0.65 -0.05 -0.65 -0.02 0 0 0 -4.8z"/>
   </g>
   <g>
    <polygon class="fil2" points="32.58,22.27 32.58,17.45 59.72,17.45 59.72,22.27 "/>
   </g>
   <g>
    <polygon class="fil2" points="10.04,22.28 10.04,17.44 24.94,17.44 24.94,22.28 "/>
   </g>
   <rect class="fil3" x="66.45" y="27.66" width="16.71" height="2.42"/>
   <rect class="fil4" x="89.89" y="11.44" width="8.42" height="8.42"/>
   <rect class="fil3" x="51.3" y="11.44" width="8.42" height="8.42"/>
   <rect class="fil3" x="51.3" y="23.71" width="47.01" height="2.42"/>
   <rect class="fil3" x="89.89" y="27.66" width="8.42" height="2.42"/>
   <rect class="fil3" x="51.3" y="27.66" width="8.42" height="2.42"/>
   <g>
    <rect class="fil3" x="76.95" y="19.86" width="8.42" height="2.42"/>
    <rect class="fil3" x="64.24" y="19.86" width="8.42" height="2.42"/>
   </g>
  </g>
 </g>
</svg>
