<?xml version="1.0" encoding="UTF-8"?>
<!DOCTYPE svg PUBLIC "-//W3C//DTD SVG 1.1//EN" "http://www.w3.org/Graphics/SVG/1.1/DTD/svg11.dtd">
<!-- Creator: CorelDRAW 2019 (64-Bit) -->
<svg xmlns="http://www.w3.org/2000/svg" xml:space="preserve" width="17.7366mm" height="4.4507mm" version="1.1" style="shape-rendering:geometricPrecision; text-rendering:geometricPrecision; image-rendering:optimizeQuality; fill-rule:evenodd; clip-rule:evenodd"
viewBox="0 0 96.95 24.33"
 xmlns:xlink="http://www.w3.org/1999/xlink"
 xmlns:xodm="http://www.corel.com/coreldraw/odm/2003">
 <defs>
  <style type="text/css">
   <![CDATA[
    .fil2 {fill:#A30005}
    .fil3 {fill:black}
    .fil1 {fill:#A30005;fill-rule:nonzero}
    .fil0 {fill:black;fill-rule:nonzero}
   ]]>
  </style>
 </defs>
 <g id="Слой_x0020_1">
  <metadata id="CorelCorpID_0Corel-Layer"/>
  <g id="_2093269419856">
   <g>
    <path class="fil0" d="M41.06 20.99l25.37 0 0 3.34 -25.37 0 0 0 0 -3.34zm-12.16 -8.82l3.34 0 0 0 0.01 0.45 0.03 0.45 0.06 0.44 0.08 0.43 0.1 0.42 0.12 0.42 0.14 0.41 0.16 0.4 0.18 0.39 0.2 0.38 0.21 0.37 0.23 0.36 0.25 0.35 0.26 0.33 0.28 0.32 0.29 0.31 0.31 0.29 0.32 0.28 0.33 0.26 0.35 0.25 0.36 0.23 0.37 0.21 0.38 0.2 0.39 0.18 0.4 0.16 0.41 0.14 0.42 0.12 0.42 0.1 0.43 0.08 0.44 0.06 0.45 0.03 0.45 0.01 0 3.34 -0.62 -0.02 -0.62 -0.05 -0.61 -0.08 -0.6 -0.11 -0.59 -0.14 -0.58 -0.17 -0.57 -0.19 -0.55 -0.22 -0.54 -0.24 -0.52 -0.27 -0.51 -0.29 -0.49 -0.32 -0.48 -0.34 -0.46 -0.36 -0.44 -0.38 -0.42 -0.4 -0.4 -0.42 -0.38 -0.44 -0.36 -0.46 -0.34 -0.48 -0.32 -0.49 -0.29 -0.51 -0.27 -0.53 -0.24 -0.54 -0.22 -0.55 -0.19 -0.56 -0.17 -0.58 -0.14 -0.59 -0.11 -0.6 -0.08 -0.61 -0.05 -0.62 -0.02 -0.62 0 0zm1.67 0l0 0 0 0 0 0 -1.67 0 1.67 0zm10.49 -12.16l0 3.34 0 0 -0.45 0.01 -0.45 0.03 -0.44 0.06 -0.43 0.08 -0.43 0.1 -0.42 0.12 -0.41 0.14 -0.4 0.16 -0.39 0.18 -0.38 0.2 -0.37 0.21 -0.36 0.23 -0.35 0.25 -0.33 0.26 -0.32 0.28 -0.31 0.29 -0.29 0.31 -0.28 0.32 -0.26 0.33 -0.25 0.35 -0.23 0.36 -0.21 0.37 -0.2 0.38 -0.18 0.39 -0.16 0.4 -0.14 0.41 -0.12 0.42 -0.1 0.42 -0.08 0.43 -0.06 0.44 -0.03 0.45 -0.01 0.45 -3.34 0 0.02 -0.62 0.05 -0.62 0.08 -0.61 0.11 -0.6 0.14 -0.59 0.17 -0.58 0.19 -0.57 0.22 -0.55 0.24 -0.54 0.27 -0.52 0.29 -0.51 0.32 -0.49 0.34 -0.48 0.36 -0.46 0.38 -0.44 0.4 -0.42 0.42 -0.4 0.44 -0.38 0.46 -0.36 0.48 -0.34 0.49 -0.32 0.51 -0.29 0.52 -0.27 0.54 -0.24 0.55 -0.22 0.57 -0.19 0.58 -0.17 0.59 -0.14 0.6 -0.11 0.61 -0.08 0.62 -0.05 0.62 -0.02 0 0zm25.37 3.34l-25.37 0 0 -3.34 25.37 0 1.67 1.67 -1.67 1.67zm0 -3.34l1.67 0 0 1.67 -1.67 -1.67zm0 24.33l0 -3.34 -1.67 1.67 0 -0.66 0 -0.66 0 -0.66 0 -0.66 0 -0.66 0 -0.66 0 -0.66 0 -0.66 0 -0.66 0 -0.66 0 -0.66 0 -0.66 0 -0.66 0 -0.66 0 -0.66 0 -0.66 0 -0.66 0 -0.66 0 -0.66 0 -0.66 0 -0.66 0 -0.66 0 -0.66 0 -0.66 0 -0.66 0 -0.66 0 -0.66 0 -0.66 0 -0.66 0 -0.66 0 -0.66 0 -0.66 3.34 0 0 0.66 0 0.66 0 0.66 0 0.66 0 0.66 0 0.66 0 0.66 0 0.66 0 0.66 0 0.66 0 0.66 0 0.66 0 0.66 0 0.66 0 0.66 0 0.66 0 0.66 0 0.66 0 0.66 0 0.66 0 0.66 0 0.66 0 0.66 0 0.66 0 0.66 0 0.66 0 0.66 0 0.66 0 0.66 0 0.66 0 0.66 0 0.66 -1.67 1.67zm1.67 -1.67l0 1.67 -1.67 0 1.67 -1.67z"/>
   </g>
   <g>
    <path class="fil1" d="M-0 12.16l0 0 0.02 -0.62 0.05 -0.62 0.08 -0.61 0.11 -0.6 0.14 -0.59 0.16 -0.58 0.19 -0.57 0.22 -0.55 0.24 -0.54 0.27 -0.53 0.29 -0.51 0.32 -0.49 0.34 -0.48 0.36 -0.46 0.38 -0.44 0.4 -0.42 0.42 -0.4 0.44 -0.38 0.46 -0.36 0.48 -0.34 0.49 -0.32 0.51 -0.29 0.53 -0.27 0.54 -0.24 0.55 -0.22 0.57 -0.19 0.58 -0.16 0.59 -0.14 0.6 -0.11 0.61 -0.08 0.62 -0.05 0.62 -0.02 0 3.34 -0.46 0.01 -0.45 0.03 -0.44 0.06 -0.43 0.08 -0.43 0.1 -0.42 0.12 -0.41 0.14 -0.4 0.16 -0.39 0.18 -0.38 0.19 -0.37 0.21 -0.36 0.23 -0.35 0.25 -0.33 0.26 -0.32 0.28 -0.31 0.29 -0.29 0.31 -0.28 0.32 -0.26 0.33 -0.25 0.35 -0.23 0.36 -0.21 0.37 -0.19 0.38 -0.18 0.39 -0.16 0.4 -0.14 0.41 -0.12 0.42 -0.1 0.43 -0.08 0.43 -0.06 0.44 -0.03 0.45 -0.01 0.46 0 0 -3.34 0zm12.16 12.16l0 0 -0.62 -0.02 -0.62 -0.05 -0.61 -0.08 -0.6 -0.11 -0.59 -0.14 -0.58 -0.16 -0.57 -0.19 -0.55 -0.22 -0.54 -0.24 -0.53 -0.27 -0.51 -0.29 -0.49 -0.32 -0.48 -0.34 -0.46 -0.36 -0.44 -0.38 -0.42 -0.4 -0.4 -0.42 -0.38 -0.44 -0.36 -0.46 -0.34 -0.48 -0.32 -0.49 -0.29 -0.51 -0.27 -0.53 -0.24 -0.54 -0.22 -0.55 -0.19 -0.57 -0.16 -0.58 -0.14 -0.59 -0.11 -0.6 -0.08 -0.61 -0.05 -0.62 -0.02 -0.62 3.34 0 0.01 0.46 0.03 0.45 0.06 0.44 0.08 0.43 0.1 0.43 0.12 0.42 0.14 0.41 0.16 0.4 0.18 0.39 0.19 0.38 0.21 0.37 0.23 0.36 0.25 0.35 0.26 0.33 0.28 0.32 0.29 0.31 0.31 0.29 0.32 0.28 0.33 0.26 0.35 0.25 0.36 0.23 0.37 0.21 0.38 0.19 0.39 0.18 0.4 0.16 0.41 0.14 0.42 0.12 0.43 0.1 0.43 0.08 0.44 0.06 0.45 0.03 0.46 0.01 0 0 0 3.34zm12.16 -12.16l0 0 -0.02 0.62 -0.05 0.62 -0.08 0.61 -0.11 0.6 -0.14 0.59 -0.16 0.58 -0.19 0.57 -0.22 0.55 -0.24 0.54 -0.27 0.53 -0.29 0.51 -0.32 0.49 -0.34 0.48 -0.36 0.46 -0.38 0.44 -0.4 0.42 -0.42 0.4 -0.44 0.38 -0.46 0.36 -0.48 0.34 -0.49 0.32 -0.51 0.29 -0.53 0.27 -0.54 0.24 -0.55 0.22 -0.57 0.19 -0.58 0.16 -0.59 0.14 -0.6 0.11 -0.61 0.08 -0.62 0.05 -0.62 0.02 0 -3.34 0.46 -0.01 0.45 -0.03 0.44 -0.06 0.43 -0.08 0.43 -0.1 0.42 -0.12 0.41 -0.14 0.4 -0.16 0.39 -0.18 0.38 -0.19 0.37 -0.21 0.36 -0.23 0.35 -0.25 0.33 -0.26 0.32 -0.28 0.31 -0.29 0.29 -0.31 0.28 -0.32 0.26 -0.33 0.25 -0.35 0.23 -0.36 0.21 -0.37 0.19 -0.38 0.18 -0.39 0.16 -0.4 0.14 -0.41 0.12 -0.42 0.1 -0.43 0.08 -0.43 0.06 -0.44 0.03 -0.45 0.01 -0.46 0 0 3.34 0zm-12.16 -12.16l0 0 0.62 0.02 0.62 0.05 0.61 0.08 0.6 0.11 0.59 0.14 0.58 0.16 0.57 0.19 0.55 0.22 0.54 0.24 0.53 0.27 0.51 0.29 0.49 0.32 0.48 0.34 0.46 0.36 0.44 0.38 0.42 0.4 0.4 0.42 0.38 0.44 0.36 0.46 0.34 0.48 0.32 0.49 0.29 0.51 0.27 0.53 0.24 0.54 0.22 0.55 0.19 0.57 0.16 0.58 0.14 0.59 0.11 0.6 0.08 0.61 0.05 0.62 0.02 0.62 -3.34 0 -0.01 -0.46 -0.03 -0.45 -0.06 -0.44 -0.08 -0.43 -0.1 -0.43 -0.12 -0.42 -0.14 -0.41 -0.16 -0.4 -0.18 -0.39 -0.19 -0.38 -0.21 -0.37 -0.23 -0.36 -0.25 -0.35 -0.26 -0.33 -0.28 -0.32 -0.29 -0.31 -0.31 -0.29 -0.32 -0.28 -0.33 -0.26 -0.35 -0.25 -0.36 -0.23 -0.37 -0.21 -0.38 -0.19 -0.39 -0.18 -0.4 -0.16 -0.41 -0.14 -0.42 -0.12 -0.43 -0.1 -0.43 -0.08 -0.44 -0.06 -0.45 -0.03 -0.46 -0.01 0 0 0 -3.34z"/>
   </g>
   <g>
    <polygon class="fil1" points="22.66,13.84 22.66,10.49 41.76,10.49 41.76,13.84 "/>
   </g>
   <g>
    <polygon class="fil1" points="6.98,13.85 6.98,10.48 17.34,10.48 17.34,13.85 "/>
   </g>
   <g>
    <polygon class="fil1" points="13.84,17.34 10.48,17.34 10.48,6.98 13.84,6.98 "/>
   </g>
   <circle class="fil2" cx="41.76" cy="12.16" r="4.31"/>
   <circle class="fil3" cx="55.24" cy="12.16" r="4.31"/>
   <g>
    <path class="fil0" d="M96.95 12.16l-3.34 0 0 0 -0.01 -0.46 -0.03 -0.45 -0.06 -0.44 -0.08 -0.43 -0.1 -0.43 -0.12 -0.42 -0.14 -0.41 -0.16 -0.4 -0.18 -0.39 -0.19 -0.38 -0.21 -0.37 -0.23 -0.36 -0.25 -0.35 -0.26 -0.33 -0.28 -0.32 -0.29 -0.31 -0.31 -0.29 -0.32 -0.28 -0.33 -0.26 -0.35 -0.25 -0.36 -0.23 -0.37 -0.21 -0.38 -0.19 -0.39 -0.18 -0.4 -0.16 -0.41 -0.14 -0.42 -0.12 -0.43 -0.1 -0.43 -0.08 -0.44 -0.06 -0.45 -0.03 -0.46 -0.01 0 -3.34 0.62 0.02 0.62 0.05 0.61 0.08 0.6 0.11 0.59 0.14 0.58 0.16 0.57 0.19 0.55 0.22 0.54 0.24 0.53 0.27 0.51 0.29 0.49 0.32 0.48 0.34 0.46 0.36 0.44 0.38 0.42 0.4 0.4 0.42 0.38 0.44 0.36 0.46 0.34 0.48 0.32 0.49 0.29 0.51 0.27 0.53 0.24 0.54 0.22 0.55 0.19 0.57 0.16 0.58 0.14 0.59 0.11 0.6 0.08 0.61 0.05 0.62 0.02 0.62 0 0zm-12.16 12.16l0 -3.34 0 0 0.46 -0.01 0.45 -0.03 0.44 -0.06 0.43 -0.08 0.43 -0.1 0.42 -0.12 0.41 -0.14 0.4 -0.16 0.39 -0.18 0.38 -0.19 0.37 -0.21 0.36 -0.23 0.35 -0.25 0.33 -0.26 0.32 -0.28 0.31 -0.29 0.29 -0.31 0.28 -0.32 0.26 -0.33 0.25 -0.35 0.23 -0.36 0.21 -0.37 0.19 -0.38 0.18 -0.39 0.16 -0.4 0.14 -0.41 0.12 -0.42 0.1 -0.43 0.08 -0.43 0.06 -0.44 0.03 -0.45 0.01 -0.46 3.34 0 -0.02 0.62 -0.05 0.62 -0.08 0.61 -0.11 0.6 -0.14 0.59 -0.16 0.58 -0.19 0.57 -0.22 0.55 -0.24 0.54 -0.27 0.53 -0.29 0.51 -0.32 0.49 -0.34 0.48 -0.36 0.46 -0.38 0.44 -0.4 0.42 -0.42 0.4 -0.44 0.38 -0.46 0.36 -0.48 0.34 -0.49 0.32 -0.51 0.29 -0.53 0.27 -0.54 0.24 -0.55 0.22 -0.57 0.19 -0.58 0.16 -0.59 0.14 -0.6 0.11 -0.61 0.08 -0.62 0.05 -0.62 0.02 0 0zm-12.16 -12.16l3.34 0 0 0 0.01 0.46 0.03 0.45 0.06 0.44 0.08 0.43 0.1 0.43 0.12 0.42 0.14 0.41 0.16 0.4 0.18 0.39 0.19 0.38 0.21 0.37 0.23 0.36 0.25 0.35 0.26 0.33 0.28 0.32 0.29 0.31 0.31 0.29 0.32 0.28 0.33 0.26 0.35 0.25 0.36 0.23 0.37 0.21 0.38 0.19 0.39 0.18 0.4 0.16 0.41 0.14 0.42 0.12 0.43 0.1 0.43 0.08 0.44 0.06 0.45 0.03 0.46 0.01 0 3.34 -0.62 -0.02 -0.62 -0.05 -0.61 -0.08 -0.6 -0.11 -0.59 -0.14 -0.58 -0.16 -0.57 -0.19 -0.55 -0.22 -0.54 -0.24 -0.53 -0.27 -0.51 -0.29 -0.49 -0.32 -0.48 -0.34 -0.46 -0.36 -0.44 -0.38 -0.42 -0.4 -0.4 -0.42 -0.38 -0.44 -0.36 -0.46 -0.34 -0.48 -0.32 -0.49 -0.29 -0.51 -0.27 -0.53 -0.24 -0.54 -0.22 -0.55 -0.19 -0.57 -0.16 -0.58 -0.14 -0.59 -0.11 -0.6 -0.08 -0.61 -0.05 -0.62 -0.02 -0.62 0 0zm12.16 -12.16l0 3.34 0 0 -0.46 0.01 -0.45 0.03 -0.44 0.06 -0.43 0.08 -0.43 0.1 -0.42 0.12 -0.41 0.14 -0.4 0.16 -0.39 0.18 -0.38 0.19 -0.37 0.21 -0.36 0.23 -0.35 0.25 -0.33 0.26 -0.32 0.28 -0.31 0.29 -0.29 0.31 -0.28 0.32 -0.26 0.33 -0.25 0.35 -0.23 0.36 -0.21 0.37 -0.19 0.38 -0.18 0.39 -0.16 0.4 -0.14 0.41 -0.12 0.42 -0.1 0.43 -0.08 0.43 -0.06 0.44 -0.03 0.45 -0.01 0.46 -3.34 0 0.02 -0.62 0.05 -0.62 0.08 -0.61 0.11 -0.6 0.14 -0.59 0.16 -0.58 0.19 -0.57 0.22 -0.55 0.24 -0.54 0.27 -0.53 0.29 -0.51 0.32 -0.49 0.34 -0.48 0.36 -0.46 0.38 -0.44 0.4 -0.42 0.42 -0.4 0.44 -0.38 0.46 -0.36 0.48 -0.34 0.49 -0.32 0.51 -0.29 0.53 -0.27 0.54 -0.24 0.55 -0.22 0.57 -0.19 0.58 -0.16 0.59 -0.14 0.6 -0.11 0.61 -0.08 0.62 -0.05 0.62 -0.02 0 0z"/>
   </g>
   <g>
    <polygon class="fil0" points="74.3,13.84 55.24,13.84 55.24,10.49 74.3,10.49 "/>
   </g>
   <g>
    <polygon class="fil0" points="89.97,13.85 79.61,13.85 79.61,10.48 89.97,10.48 "/>
   </g>
  </g>
 </g>
</svg>
