<?xml version="1.0" encoding="UTF-8"?>
<!DOCTYPE svg PUBLIC "-//W3C//DTD SVG 1.1//EN" "http://www.w3.org/Graphics/SVG/1.1/DTD/svg11.dtd">
<!-- Creator: CorelDRAW 2019 (64-Bit) -->
<svg xmlns="http://www.w3.org/2000/svg" xml:space="preserve" width="16.632mm" height="4.3961mm" version="1.1" style="shape-rendering:geometricPrecision; text-rendering:geometricPrecision; image-rendering:optimizeQuality; fill-rule:evenodd; clip-rule:evenodd"
viewBox="0 0 76.33 20.18"
 xmlns:xlink="http://www.w3.org/1999/xlink"
 xmlns:xodm="http://www.corel.com/coreldraw/odm/2003">
 <defs>
  <style type="text/css">
   <![CDATA[
    .str1 {stroke:black;stroke-width:2.77;stroke-miterlimit:22.9256}
    .str0 {stroke:black;stroke-width:2.77;stroke-miterlimit:22.9256}
    .str3 {stroke:black;stroke-width:2.77;stroke-miterlimit:22.9256}
    .str2 {stroke:black;stroke-width:2.77;stroke-miterlimit:22.9256}
    .fil2 {fill:none}
    .fil3 {fill:black}
    .fil0 {fill:black;fill-rule:nonzero}
    .fil1 {fill:black;fill-rule:nonzero}
   ]]>
  </style>
 </defs>
 <g id="Слой_x0020_1">
  <metadata id="CorelCorpID_0Corel-Layer"/>
  <g id="_2093595194528">
   <g>
    <path class="fil0" d="M8.12 8.06l0.44 2.75 0 0 -0.02 0 -0.03 0.01 -0.05 0.01 -0.05 0.02 -0.06 0.02 -0.07 0.03 -0.07 0.03 -0.08 0.04 -0.08 0.04 -0.08 0.04 -0.08 0.04 -0.09 0.05 -0.09 0.05 -0.08 0.05 -0.08 0.05 -0.08 0.05 -0.08 0.05 -0.08 0.05 -0.07 0.05 -0.07 0.05 -0.07 0.04 -0.07 0.05 -0.06 0.04 -0.05 0.04 -0.05 0.04 -0.04 0.03 -0.04 0.03 -0.03 0.02 -0.02 0.02 -0.02 0.01 0.01 -0 -0.01 0.01 -1.69 -2.21 -0 0 0.03 -0.02 0.03 -0.02 0.03 -0.02 0.04 -0.03 0.04 -0.03 0.06 -0.04 0.06 -0.04 0.07 -0.05 0.08 -0.05 0.08 -0.05 0.09 -0.06 0.09 -0.06 0.1 -0.06 0.1 -0.06 0.1 -0.06 0.11 -0.07 0.11 -0.07 0.12 -0.07 0.12 -0.07 0.12 -0.06 0.12 -0.07 0.13 -0.07 0.13 -0.06 0.13 -0.06 0.13 -0.06 0.14 -0.06 0.14 -0.05 0.15 -0.05 0.15 -0.04 0.16 -0.04 0.17 -0.03 0 0zm3.55 1.29l0.44 2.75 0 0 -0.24 0.02 -0.23 -0 -0.21 -0.02 -0.2 -0.03 -0.19 -0.04 -0.18 -0.05 -0.16 -0.06 -0.16 -0.06 -0.15 -0.07 -0.15 -0.07 -0.14 -0.07 -0.14 -0.07 -0.13 -0.07 -0.13 -0.07 -0.13 -0.07 -0.12 -0.07 -0.12 -0.07 -0.11 -0.06 -0.11 -0.06 -0.11 -0.06 -0.1 -0.05 -0.09 -0.05 -0.09 -0.04 -0.07 -0.03 -0.07 -0.03 -0.05 -0.02 -0.04 -0.01 -0.03 -0.01 -0 -0 0.01 0 0.04 -0 0.05 -0.01 -0.44 -2.75 0.24 -0.02 0.23 -0 0.21 0.02 0.2 0.03 0.19 0.04 0.18 0.05 0.17 0.06 0.16 0.06 0.16 0.07 0.15 0.07 0.14 0.07 0.14 0.07 0.13 0.07 0.13 0.07 0.13 0.07 0.12 0.07 0.12 0.07 0.11 0.06 0.11 0.06 0.1 0.06 0.1 0.05 0.09 0.04 0.09 0.04 0.08 0.03 0.07 0.03 0.06 0.02 0.04 0.01 0.02 0.01 0.01 0 -0.01 -0 -0.04 0 -0.06 0.01 0 0zm1.81 -1.04l1.72 2.19 -0.01 0.01 -0.02 0.01 -0.02 0.02 -0.03 0.02 -0.05 0.04 -0.05 0.04 -0.05 0.04 -0.06 0.04 -0.07 0.05 -0.07 0.05 -0.08 0.05 -0.08 0.06 -0.09 0.06 -0.09 0.06 -0.1 0.06 -0.1 0.07 -0.11 0.07 -0.11 0.07 -0.11 0.07 -0.11 0.07 -0.12 0.07 -0.13 0.07 -0.12 0.06 -0.13 0.06 -0.13 0.06 -0.14 0.06 -0.14 0.05 -0.14 0.05 -0.15 0.05 -0.15 0.04 -0.16 0.04 -0.17 0.03 -0.44 -2.75 0.02 -0 0.03 -0.01 0.04 -0.01 0.05 -0.02 0.06 -0.02 0.07 -0.03 0.07 -0.03 0.07 -0.03 0.08 -0.04 0.08 -0.04 0.08 -0.04 0.08 -0.05 0.08 -0.05 0.08 -0.05 0.08 -0.05 0.08 -0.05 0.08 -0.05 0.08 -0.05 0.07 -0.05 0.07 -0.05 0.07 -0.05 0.06 -0.04 0.06 -0.04 0.05 -0.04 0.05 -0.04 0.04 -0.03 0.04 -0.03 0.02 -0.02 0.02 -0.02 0.02 -0.01 0.01 -0.01 -0 0z"/>
   </g>
   <path class="fil1" d="M38.17 0c2.79,0 5.31,1.13 7.13,2.95l-1.96 1.96c-1.32,-1.32 -3.15,-2.14 -5.17,-2.14 -2.02,0 -3.85,0.82 -5.17,2.14 -1.32,1.32 -2.14,3.15 -2.14,5.17 0,2.02 0.82,3.85 2.14,5.17 1.32,1.32 3.15,2.14 5.17,2.14 2.02,0 3.85,-0.82 5.17,-2.14l1.96 1.96c-1.83,1.83 -4.35,2.95 -7.13,2.95 -2.79,0 -5.31,-1.13 -7.13,-2.95 -1.83,-1.83 -2.95,-4.35 -2.95,-7.13 0,-2.79 1.13,-5.31 2.95,-7.13 1.83,-1.83 4.35,-2.95 7.13,-2.95z"/>
   <g>
    <path class="fil2 str0" d="M66.24 1.39c4.81,0 8.7,3.9 8.7,8.7 0,4.81 -3.9,8.7 -8.7,8.7 -4.81,0 -8.7,-3.9 -8.7,-8.7 0,-4.81 3.9,-8.7 8.7,-8.7z"/>
   </g>
   <g>
    <path class="fil2 str1" d="M10.09 1.39c4.81,0 8.7,3.9 8.7,8.7 0,4.81 -3.9,8.7 -8.7,8.7 -4.81,0 -8.7,-3.9 -8.7,-8.7 0,-4.81 3.9,-8.7 8.7,-8.7z"/>
   </g>
   <circle class="fil3" cx="38.17" cy="10.09" r="3.57"/>
   <g>
    <line class="fil2 str2" x1="18.79" y1="10.09" x2="29.46" y2= "10.09" />
   </g>
   <g>
    <line class="fil2 str3" x1="38.17" y1="10.09" x2="57.54" y2= "10.09" />
   </g>
   <g>
    <path class="fil0" d="M64.27 8.06l0.44 2.75 0 0 -0.02 0 -0.03 0.01 -0.05 0.01 -0.05 0.02 -0.06 0.02 -0.07 0.03 -0.07 0.03 -0.08 0.04 -0.08 0.04 -0.08 0.04 -0.08 0.04 -0.09 0.05 -0.09 0.05 -0.08 0.05 -0.08 0.05 -0.08 0.05 -0.08 0.05 -0.08 0.05 -0.07 0.05 -0.07 0.05 -0.07 0.04 -0.07 0.05 -0.06 0.04 -0.05 0.04 -0.05 0.04 -0.04 0.03 -0.04 0.03 -0.03 0.02 -0.02 0.02 -0.02 0.01 0.01 -0 -0.01 0.01 -1.69 -2.21 -0 0 0.03 -0.02 0.03 -0.02 0.03 -0.02 0.04 -0.03 0.04 -0.03 0.06 -0.04 0.06 -0.04 0.07 -0.05 0.08 -0.05 0.08 -0.05 0.09 -0.06 0.09 -0.06 0.1 -0.06 0.1 -0.06 0.1 -0.06 0.11 -0.07 0.11 -0.07 0.12 -0.07 0.12 -0.07 0.12 -0.06 0.12 -0.07 0.13 -0.07 0.13 -0.06 0.13 -0.06 0.13 -0.06 0.14 -0.06 0.14 -0.05 0.15 -0.05 0.15 -0.04 0.16 -0.04 0.17 -0.03 0 0zm3.55 1.29l0.44 2.75 0 0 -0.24 0.02 -0.23 -0 -0.21 -0.02 -0.2 -0.03 -0.19 -0.04 -0.18 -0.05 -0.16 -0.06 -0.16 -0.06 -0.15 -0.07 -0.15 -0.07 -0.14 -0.07 -0.14 -0.07 -0.13 -0.07 -0.13 -0.07 -0.13 -0.07 -0.12 -0.07 -0.12 -0.07 -0.11 -0.06 -0.11 -0.06 -0.11 -0.06 -0.1 -0.05 -0.09 -0.05 -0.09 -0.04 -0.07 -0.03 -0.07 -0.03 -0.05 -0.02 -0.04 -0.01 -0.03 -0.01 -0 -0 0.01 0 0.04 -0 0.05 -0.01 -0.44 -2.75 0.24 -0.02 0.23 -0 0.21 0.02 0.2 0.03 0.19 0.04 0.18 0.05 0.17 0.06 0.16 0.06 0.16 0.07 0.15 0.07 0.14 0.07 0.14 0.07 0.13 0.07 0.13 0.07 0.13 0.07 0.12 0.07 0.12 0.07 0.11 0.06 0.11 0.06 0.1 0.06 0.1 0.05 0.09 0.04 0.09 0.04 0.08 0.03 0.07 0.03 0.06 0.02 0.04 0.01 0.02 0.01 0.01 0 -0.01 -0 -0.04 0 -0.06 0.01 0 0zm1.81 -1.04l1.72 2.19 -0.01 0.01 -0.02 0.01 -0.02 0.02 -0.03 0.02 -0.05 0.04 -0.05 0.04 -0.05 0.04 -0.06 0.04 -0.07 0.05 -0.07 0.05 -0.08 0.05 -0.08 0.06 -0.09 0.06 -0.09 0.06 -0.1 0.06 -0.1 0.07 -0.11 0.07 -0.11 0.07 -0.11 0.07 -0.11 0.07 -0.12 0.07 -0.13 0.07 -0.12 0.06 -0.13 0.06 -0.13 0.06 -0.14 0.06 -0.14 0.05 -0.14 0.05 -0.15 0.05 -0.15 0.04 -0.16 0.04 -0.17 0.03 -0.44 -2.75 0.02 -0 0.03 -0.01 0.04 -0.01 0.05 -0.02 0.06 -0.02 0.07 -0.03 0.07 -0.03 0.07 -0.03 0.08 -0.04 0.08 -0.04 0.08 -0.04 0.08 -0.05 0.08 -0.05 0.08 -0.05 0.08 -0.05 0.08 -0.05 0.08 -0.05 0.08 -0.05 0.07 -0.05 0.07 -0.05 0.07 -0.05 0.06 -0.04 0.06 -0.04 0.05 -0.04 0.05 -0.04 0.04 -0.03 0.04 -0.03 0.02 -0.02 0.02 -0.02 0.02 -0.01 0.01 -0.01 -0 0z"/>
   </g>
  </g>
 </g>
</svg>
