<?xml version="1.0" encoding="UTF-8"?>
<!DOCTYPE svg PUBLIC "-//W3C//DTD SVG 1.1//EN" "http://www.w3.org/Graphics/SVG/1.1/DTD/svg11.dtd">
<!-- Creator: CorelDRAW 2019 (64-Bit) -->
<svg xmlns="http://www.w3.org/2000/svg" xml:space="preserve" width="19.7545mm" height="12.1319mm" version="1.1" style="shape-rendering:geometricPrecision; text-rendering:geometricPrecision; image-rendering:optimizeQuality; fill-rule:evenodd; clip-rule:evenodd"
viewBox="0 0 128.93 79.18"
 xmlns:xlink="http://www.w3.org/1999/xlink"
 xmlns:xodm="http://www.corel.com/coreldraw/odm/2003">
 <defs>
  <style type="text/css">
   <![CDATA[
    .fil3 {fill:#A30005}
    .fil2 {fill:black}
    .fil1 {fill:#A30005;fill-rule:nonzero}
    .fil0 {fill:black;fill-rule:nonzero}
   ]]>
  </style>
 </defs>
 <g id="Слой_x0020_1">
  <metadata id="CorelCorpID_0Corel-Layer"/>
  <g id="_2093273718304">
   <g>
    <path class="fil0" d="M83.98 38.49l-39.08 0 0 -3.94 39.08 0 1.39 0.58 -1.39 3.37zm0 -3.94l0.82 0 0.58 0.58 -1.39 -0.58zm7.47 12.23l-8.87 -8.87 2.79 -2.79 8.87 8.87 0.58 1.39 -3.37 1.39zm2.79 -2.79l0.58 0.58 0 0.82 -0.58 -1.39zm-3.37 33.22l0 -31.82 3.94 0 0 31.82 -1.97 1.97 -1.97 -1.97zm3.94 0l0 1.97 -1.97 0 1.97 -1.97zm-58.78 -1.97l56.81 0 0 3.94 -56.81 0 -1.97 -1.97 1.97 -1.97zm0 3.94l-1.97 0 0 -1.97 1.97 1.97zm1.97 -33.79l0 31.82 -3.94 0 0 -31.82 0.58 -1.39 3.37 1.39zm-3.94 0l0 -0.82 0.58 -0.58 -0.58 1.39zm12.23 -7.47l-8.87 8.87 -2.79 -2.79 8.87 -8.87 1.39 -0.58 1.39 3.37zm-2.79 -2.79l0.58 -0.58 0.82 0 -1.39 0.58z"/>
   </g>
   <g>
    <path class="fil1" d="M128.93 64.82l-3.94 0 0 0 -0.01 -0.54 -0.04 -0.53 -0.07 -0.52 -0.09 -0.51 -0.12 -0.5 -0.14 -0.49 -0.16 -0.48 -0.19 -0.47 -0.21 -0.46 -0.23 -0.45 -0.25 -0.44 -0.27 -0.42 -0.29 -0.41 -0.31 -0.39 -0.33 -0.38 -0.35 -0.36 -0.36 -0.35 -0.38 -0.33 -0.39 -0.31 -0.41 -0.29 -0.42 -0.27 -0.44 -0.25 -0.45 -0.23 -0.46 -0.21 -0.47 -0.19 -0.48 -0.16 -0.49 -0.14 -0.5 -0.12 -0.51 -0.09 -0.52 -0.07 -0.53 -0.04 -0.54 -0.01 0 -3.94 0.74 0.02 0.73 0.06 0.72 0.09 0.71 0.13 0.7 0.16 0.68 0.19 0.67 0.23 0.65 0.26 0.64 0.29 0.62 0.32 0.6 0.35 0.58 0.37 0.56 0.4 0.54 0.43 0.52 0.45 0.5 0.47 0.48 0.5 0.45 0.52 0.43 0.54 0.4 0.56 0.37 0.58 0.35 0.6 0.32 0.62 0.29 0.64 0.26 0.65 0.23 0.67 0.19 0.68 0.16 0.7 0.13 0.71 0.09 0.72 0.06 0.73 0.02 0.74 0 0zm-14.36 14.36l0 -3.94 0 0 0.54 -0.01 0.53 -0.04 0.52 -0.07 0.51 -0.09 0.5 -0.12 0.49 -0.14 0.48 -0.16 0.47 -0.19 0.46 -0.21 0.45 -0.23 0.44 -0.25 0.42 -0.27 0.41 -0.29 0.39 -0.31 0.38 -0.33 0.36 -0.35 0.35 -0.36 0.33 -0.38 0.31 -0.39 0.29 -0.41 0.27 -0.42 0.25 -0.44 0.23 -0.45 0.21 -0.46 0.19 -0.47 0.16 -0.48 0.14 -0.49 0.12 -0.5 0.09 -0.51 0.07 -0.52 0.04 -0.53 0.01 -0.54 3.94 0 -0.02 0.74 -0.06 0.73 -0.09 0.72 -0.13 0.71 -0.16 0.7 -0.19 0.68 -0.23 0.67 -0.26 0.65 -0.29 0.64 -0.32 0.62 -0.35 0.6 -0.37 0.58 -0.4 0.56 -0.43 0.54 -0.45 0.52 -0.48 0.5 -0.5 0.48 -0.52 0.45 -0.54 0.43 -0.56 0.4 -0.58 0.37 -0.6 0.35 -0.62 0.32 -0.64 0.29 -0.65 0.26 -0.67 0.23 -0.68 0.19 -0.7 0.16 -0.71 0.13 -0.72 0.09 -0.73 0.06 -0.74 0.02 0 0zm-14.36 -14.36l3.94 0 0 0 0.01 0.54 0.04 0.53 0.07 0.52 0.09 0.51 0.12 0.5 0.14 0.49 0.16 0.48 0.19 0.47 0.21 0.46 0.23 0.45 0.25 0.44 0.27 0.42 0.29 0.41 0.31 0.39 0.33 0.38 0.35 0.36 0.36 0.35 0.38 0.33 0.39 0.31 0.41 0.29 0.42 0.27 0.44 0.25 0.45 0.23 0.46 0.21 0.47 0.19 0.48 0.16 0.49 0.14 0.5 0.12 0.51 0.09 0.52 0.07 0.53 0.04 0.54 0.01 0 3.94 -0.74 -0.02 -0.73 -0.06 -0.72 -0.09 -0.71 -0.13 -0.7 -0.16 -0.68 -0.19 -0.67 -0.23 -0.65 -0.26 -0.64 -0.29 -0.62 -0.32 -0.6 -0.35 -0.58 -0.37 -0.56 -0.4 -0.54 -0.43 -0.52 -0.45 -0.5 -0.48 -0.47 -0.5 -0.45 -0.52 -0.43 -0.54 -0.4 -0.56 -0.37 -0.58 -0.35 -0.6 -0.32 -0.62 -0.29 -0.64 -0.26 -0.65 -0.23 -0.67 -0.19 -0.68 -0.16 -0.7 -0.13 -0.71 -0.09 -0.72 -0.06 -0.73 -0.02 -0.74 0 0zm14.36 -14.36l0 3.94 0 0 -0.54 0.01 -0.53 0.04 -0.52 0.07 -0.51 0.09 -0.5 0.12 -0.49 0.14 -0.48 0.16 -0.47 0.19 -0.46 0.21 -0.45 0.23 -0.44 0.25 -0.42 0.27 -0.41 0.29 -0.39 0.31 -0.38 0.33 -0.36 0.35 -0.35 0.36 -0.33 0.38 -0.31 0.39 -0.29 0.41 -0.27 0.42 -0.25 0.44 -0.23 0.45 -0.21 0.46 -0.19 0.47 -0.16 0.48 -0.14 0.49 -0.12 0.5 -0.09 0.51 -0.07 0.52 -0.04 0.53 -0.01 0.54 -3.94 0 0.02 -0.74 0.06 -0.73 0.09 -0.72 0.13 -0.71 0.16 -0.7 0.19 -0.68 0.23 -0.67 0.26 -0.65 0.29 -0.64 0.32 -0.62 0.35 -0.6 0.37 -0.58 0.4 -0.56 0.43 -0.54 0.45 -0.52 0.47 -0.5 0.5 -0.47 0.52 -0.45 0.54 -0.43 0.56 -0.4 0.58 -0.37 0.6 -0.35 0.62 -0.32 0.64 -0.29 0.65 -0.26 0.67 -0.23 0.68 -0.19 0.7 -0.16 0.71 -0.13 0.72 -0.09 0.73 -0.06 0.74 -0.02 0 0z"/>
   </g>
   <g>
    <polygon class="fil1" points="102.18,66.8 79.63,66.8 79.63,62.84 102.18,62.84 "/>
   </g>
   <g>
    <polygon class="fil1" points="120.69,66.8 108.46,66.8 108.46,62.84 120.69,62.84 "/>
   </g>
   <circle class="fil2" cx="64.44" cy="64.82" r="5.09"/>
   <circle class="fil2" cx="49.24" cy="64.82" r="5.09"/>
   <g>
    <path class="fil0" d="M-0 64.82l0 0 0.02 -0.74 0.06 -0.73 0.09 -0.72 0.13 -0.71 0.16 -0.7 0.19 -0.68 0.23 -0.67 0.26 -0.65 0.29 -0.64 0.32 -0.62 0.35 -0.6 0.37 -0.58 0.4 -0.56 0.43 -0.54 0.45 -0.52 0.48 -0.5 0.5 -0.47 0.52 -0.45 0.54 -0.43 0.56 -0.4 0.58 -0.37 0.6 -0.35 0.62 -0.32 0.64 -0.29 0.65 -0.26 0.67 -0.23 0.68 -0.19 0.7 -0.16 0.71 -0.13 0.72 -0.09 0.73 -0.06 0.74 -0.02 0 3.94 -0.54 0.01 -0.53 0.04 -0.52 0.07 -0.51 0.09 -0.5 0.12 -0.49 0.14 -0.48 0.16 -0.47 0.19 -0.46 0.21 -0.45 0.23 -0.44 0.25 -0.42 0.27 -0.41 0.29 -0.39 0.31 -0.38 0.33 -0.36 0.35 -0.35 0.36 -0.33 0.38 -0.31 0.39 -0.29 0.41 -0.27 0.42 -0.25 0.44 -0.23 0.45 -0.21 0.46 -0.19 0.47 -0.16 0.48 -0.14 0.49 -0.12 0.5 -0.09 0.51 -0.07 0.52 -0.04 0.53 -0.01 0.54 0 0 -3.94 0zm14.36 14.36l0 0 -0.74 -0.02 -0.73 -0.06 -0.72 -0.09 -0.71 -0.13 -0.7 -0.16 -0.68 -0.19 -0.67 -0.23 -0.65 -0.26 -0.64 -0.29 -0.62 -0.32 -0.6 -0.35 -0.58 -0.37 -0.56 -0.4 -0.54 -0.43 -0.52 -0.45 -0.5 -0.48 -0.48 -0.5 -0.45 -0.52 -0.43 -0.54 -0.4 -0.56 -0.37 -0.58 -0.35 -0.6 -0.32 -0.62 -0.29 -0.64 -0.26 -0.65 -0.23 -0.67 -0.19 -0.68 -0.16 -0.7 -0.13 -0.71 -0.09 -0.72 -0.06 -0.73 -0.02 -0.74 3.94 0 0.01 0.54 0.04 0.53 0.07 0.52 0.09 0.51 0.12 0.5 0.14 0.49 0.16 0.48 0.19 0.47 0.21 0.46 0.23 0.45 0.25 0.44 0.27 0.42 0.29 0.41 0.31 0.39 0.33 0.38 0.35 0.36 0.36 0.35 0.38 0.33 0.39 0.31 0.41 0.29 0.42 0.27 0.44 0.25 0.45 0.23 0.46 0.21 0.47 0.19 0.48 0.16 0.49 0.14 0.5 0.12 0.51 0.09 0.52 0.07 0.53 0.04 0.54 0.01 0 0 0 3.94zm14.36 -14.36l0 0 -0.02 0.74 -0.06 0.73 -0.09 0.72 -0.13 0.71 -0.16 0.7 -0.19 0.68 -0.23 0.67 -0.26 0.65 -0.29 0.64 -0.32 0.62 -0.35 0.6 -0.37 0.58 -0.4 0.56 -0.43 0.54 -0.45 0.52 -0.47 0.5 -0.5 0.48 -0.52 0.45 -0.54 0.43 -0.56 0.4 -0.58 0.37 -0.6 0.35 -0.62 0.32 -0.64 0.29 -0.65 0.26 -0.67 0.23 -0.68 0.19 -0.7 0.16 -0.71 0.13 -0.72 0.09 -0.73 0.06 -0.74 0.02 0 -3.94 0.54 -0.01 0.53 -0.04 0.52 -0.07 0.51 -0.09 0.5 -0.12 0.49 -0.14 0.48 -0.16 0.47 -0.19 0.46 -0.21 0.45 -0.23 0.44 -0.25 0.42 -0.27 0.41 -0.29 0.39 -0.31 0.38 -0.33 0.36 -0.35 0.35 -0.36 0.33 -0.38 0.31 -0.39 0.29 -0.41 0.27 -0.42 0.25 -0.44 0.23 -0.45 0.21 -0.46 0.19 -0.47 0.16 -0.48 0.14 -0.49 0.12 -0.5 0.09 -0.51 0.07 -0.52 0.04 -0.53 0.01 -0.54 0 0 3.94 0zm-14.36 -14.36l0 0 0.74 0.02 0.73 0.06 0.72 0.09 0.71 0.13 0.7 0.16 0.68 0.19 0.67 0.23 0.65 0.26 0.64 0.29 0.62 0.32 0.6 0.35 0.58 0.37 0.56 0.4 0.54 0.43 0.52 0.45 0.5 0.47 0.47 0.5 0.45 0.52 0.43 0.54 0.4 0.56 0.37 0.58 0.35 0.6 0.32 0.62 0.29 0.64 0.26 0.65 0.23 0.67 0.19 0.68 0.16 0.7 0.13 0.71 0.09 0.72 0.06 0.73 0.02 0.74 -3.94 0 -0.01 -0.54 -0.04 -0.53 -0.07 -0.52 -0.09 -0.51 -0.12 -0.5 -0.14 -0.49 -0.16 -0.48 -0.19 -0.47 -0.21 -0.46 -0.23 -0.45 -0.25 -0.44 -0.27 -0.42 -0.29 -0.41 -0.31 -0.39 -0.33 -0.38 -0.35 -0.36 -0.36 -0.35 -0.38 -0.33 -0.39 -0.31 -0.41 -0.29 -0.42 -0.27 -0.44 -0.25 -0.45 -0.23 -0.46 -0.21 -0.47 -0.19 -0.48 -0.16 -0.49 -0.14 -0.5 -0.12 -0.51 -0.09 -0.52 -0.07 -0.53 -0.04 -0.54 -0.01 0 0 0 -3.94z"/>
   </g>
   <g>
    <polygon class="fil0" points="26.75,66.79 26.75,62.85 64.44,62.85 64.44,66.79 "/>
   </g>
   <g>
    <polygon class="fil0" points="8.25,66.8 8.25,62.84 20.48,62.84 20.48,66.8 "/>
   </g>
   <g>
    <polygon class="fil1" points="116.55,70.94 112.59,70.94 112.59,58.71 116.55,58.71 "/>
   </g>
   <circle class="fil3" cx="79.63" cy="64.82" r="5.09"/>
   <circle class="fil3" cx="64.44" cy="49.3" r="5.09"/>
   <circle class="fil2" cx="49.24" cy="49.3" r="5.09"/>
   <circle class="fil3" cx="79.63" cy="49.3" r="5.09"/>
   <g>
    <polygon class="fil0" points="51.21,64.82 47.28,64.82 47.28,49.3 51.21,49.3 "/>
   </g>
   <g>
    <path class="fil1" d="M79.63 0l0 3.94 0 0 -0.54 0.01 -0.53 0.04 -0.52 0.07 -0.51 0.09 -0.5 0.12 -0.49 0.14 -0.48 0.16 -0.47 0.19 -0.46 0.21 -0.45 0.23 -0.44 0.25 -0.42 0.27 -0.41 0.29 -0.39 0.31 -0.38 0.33 -0.36 0.35 -0.35 0.36 -0.33 0.38 -0.31 0.39 -0.29 0.41 -0.27 0.42 -0.25 0.44 -0.23 0.45 -0.21 0.46 -0.19 0.47 -0.16 0.48 -0.14 0.49 -0.12 0.5 -0.09 0.51 -0.07 0.52 -0.04 0.53 -0.01 0.54 -3.94 0 0.02 -0.74 0.06 -0.73 0.09 -0.72 0.13 -0.71 0.16 -0.7 0.19 -0.68 0.23 -0.67 0.26 -0.65 0.29 -0.64 0.32 -0.62 0.35 -0.6 0.37 -0.58 0.4 -0.56 0.43 -0.54 0.45 -0.52 0.47 -0.5 0.5 -0.47 0.52 -0.45 0.54 -0.43 0.56 -0.4 0.58 -0.37 0.6 -0.35 0.62 -0.32 0.64 -0.29 0.65 -0.26 0.67 -0.23 0.68 -0.19 0.7 -0.16 0.71 -0.13 0.72 -0.09 0.73 -0.06 0.74 -0.02 0 0zm14.36 14.36l-3.94 0 0 0 -0.01 -0.54 -0.04 -0.53 -0.07 -0.52 -0.09 -0.51 -0.12 -0.5 -0.14 -0.49 -0.16 -0.48 -0.19 -0.47 -0.21 -0.46 -0.23 -0.45 -0.25 -0.44 -0.27 -0.42 -0.29 -0.41 -0.31 -0.39 -0.33 -0.38 -0.35 -0.36 -0.36 -0.35 -0.38 -0.33 -0.39 -0.31 -0.41 -0.29 -0.42 -0.27 -0.44 -0.25 -0.45 -0.23 -0.46 -0.21 -0.47 -0.19 -0.48 -0.16 -0.49 -0.14 -0.5 -0.12 -0.51 -0.09 -0.52 -0.07 -0.53 -0.04 -0.54 -0.01 0 -3.94 0.74 0.02 0.73 0.06 0.72 0.09 0.71 0.13 0.69 0.16 0.68 0.19 0.67 0.23 0.65 0.26 0.64 0.29 0.62 0.32 0.6 0.35 0.58 0.37 0.56 0.4 0.54 0.43 0.52 0.45 0.5 0.47 0.47 0.5 0.45 0.52 0.43 0.54 0.4 0.56 0.37 0.58 0.35 0.6 0.32 0.62 0.29 0.64 0.26 0.65 0.23 0.67 0.19 0.68 0.16 0.7 0.13 0.71 0.09 0.72 0.06 0.73 0.02 0.74 0 0zm-14.36 14.36l0 -3.94 0 0 0.54 -0.01 0.53 -0.04 0.52 -0.07 0.51 -0.09 0.5 -0.12 0.49 -0.14 0.48 -0.16 0.47 -0.19 0.46 -0.21 0.45 -0.23 0.44 -0.25 0.42 -0.27 0.41 -0.29 0.39 -0.31 0.38 -0.33 0.36 -0.35 0.35 -0.36 0.33 -0.38 0.31 -0.39 0.29 -0.41 0.27 -0.42 0.25 -0.44 0.23 -0.45 0.21 -0.46 0.19 -0.47 0.16 -0.48 0.14 -0.49 0.12 -0.5 0.09 -0.51 0.07 -0.52 0.04 -0.53 0.01 -0.54 3.94 0 -0.02 0.74 -0.06 0.73 -0.09 0.72 -0.13 0.71 -0.16 0.69 -0.19 0.68 -0.23 0.67 -0.26 0.65 -0.29 0.64 -0.32 0.62 -0.35 0.6 -0.37 0.58 -0.4 0.56 -0.43 0.54 -0.45 0.52 -0.47 0.5 -0.5 0.48 -0.52 0.45 -0.54 0.43 -0.56 0.4 -0.58 0.37 -0.6 0.35 -0.62 0.32 -0.64 0.29 -0.65 0.26 -0.67 0.23 -0.68 0.19 -0.69 0.16 -0.71 0.13 -0.72 0.09 -0.73 0.06 -0.74 0.02 0 0zm-14.36 -14.36l3.94 0 0 0 0.01 0.54 0.04 0.53 0.07 0.52 0.09 0.51 0.12 0.5 0.14 0.49 0.16 0.48 0.19 0.47 0.21 0.46 0.23 0.45 0.25 0.44 0.27 0.42 0.29 0.41 0.31 0.39 0.33 0.38 0.35 0.36 0.36 0.35 0.38 0.33 0.39 0.31 0.41 0.29 0.42 0.27 0.44 0.25 0.45 0.23 0.46 0.21 0.47 0.19 0.48 0.16 0.49 0.14 0.5 0.12 0.51 0.09 0.52 0.07 0.53 0.04 0.54 0.01 0 3.94 -0.74 -0.02 -0.73 -0.06 -0.72 -0.09 -0.71 -0.13 -0.7 -0.16 -0.68 -0.19 -0.67 -0.23 -0.65 -0.26 -0.64 -0.29 -0.62 -0.32 -0.6 -0.35 -0.58 -0.37 -0.56 -0.4 -0.54 -0.43 -0.52 -0.45 -0.5 -0.48 -0.47 -0.5 -0.45 -0.52 -0.43 -0.54 -0.4 -0.56 -0.37 -0.58 -0.35 -0.6 -0.32 -0.62 -0.29 -0.64 -0.26 -0.65 -0.23 -0.67 -0.19 -0.68 -0.16 -0.69 -0.13 -0.71 -0.09 -0.72 -0.06 -0.73 -0.02 -0.74 0 0z"/>
   </g>
   <g>
    <polygon class="fil1" points="81.61,26.75 81.61,49.3 77.65,49.3 77.65,26.75 "/>
   </g>
   <g>
    <polygon class="fil1" points="81.61,8.25 81.61,20.48 77.65,20.48 77.65,8.25 "/>
   </g>
   <g>
    <polygon class="fil1" points="85.74,12.38 85.74,16.34 73.51,16.34 73.51,12.38 "/>
   </g>
   <g>
    <polygon class="fil1" points="79.63,47.34 79.63,51.26 64.11,51.26 64.11,47.34 "/>
   </g>
  </g>
 </g>
</svg>
