<?xml version="1.0" encoding="UTF-8"?>
<!DOCTYPE svg PUBLIC "-//W3C//DTD SVG 1.1//EN" "http://www.w3.org/Graphics/SVG/1.1/DTD/svg11.dtd">
<!-- Creator: CorelDRAW 2018 -->
<svg xmlns="http://www.w3.org/2000/svg" xml:space="preserve" width="17.4687mm" height="11.6129mm" version="1.1" style="shape-rendering:geometricPrecision; text-rendering:geometricPrecision; image-rendering:optimizeQuality; fill-rule:evenodd; clip-rule:evenodd"
viewBox="0 0 44.72 29.73"
 xmlns:xlink="http://www.w3.org/1999/xlink">
 <defs>
  <style type="text/css">
   <![CDATA[
    .str0 {stroke:black;stroke-width:1.54;stroke-miterlimit:22.9256}
    .str1 {stroke:#A30005;stroke-width:1.54;stroke-miterlimit:22.9256}
    .str2 {stroke:black;stroke-width:1.54;stroke-miterlimit:22.9256}
    .str3 {stroke:#A30005;stroke-width:1.54;stroke-miterlimit:22.9256}
    .fil0 {fill:none}
    .fil2 {fill:#A30005}
    .fil5 {fill:#A30005}
    .fil3 {fill:black}
    .fil1 {fill:#A30005;fill-rule:nonzero}
    .fil6 {fill:#A30005;fill-rule:nonzero}
    .fil4 {fill:black;fill-rule:nonzero}
   ]]>
  </style>
 </defs>
 <g id="Слой_x0020_1">
  <metadata id="CorelCorpID_0Corel-Layer"/>
  <g id="_807893864">
   <g>
    <polygon class="fil0 str0" points="17.54,14.13 27.16,14.13 30.62,17.6 30.62,28.96 14.08,28.96 14.08,17.6 "/>
   </g>
   <g>
    <path class="fil0 str1" d="M39.11 19.28c2.67,0 4.84,2.17 4.84,4.84 0,2.67 -2.17,4.84 -4.84,4.84 -2.67,0 -4.84,-2.17 -4.84,-4.84 0,-2.67 2.17,-4.84 4.84,-4.84z"/>
   </g>
   <g>
    <polygon class="fil1" points="34.27,24.89 25.46,24.89 25.46,23.35 34.27,23.35 "/>
   </g>
   <g>
    <polygon class="fil1" points="41.5,24.9 36.72,24.9 36.72,23.35 41.5,23.35 "/>
   </g>
   <circle class="fil2" cx="25.46" cy="24.12" r="1.99"/>
   <circle class="fil3" cx="19.24" cy="24.12" r="1.99"/>
   <g>
    <path class="fil0 str2" d="M5.61 19.28c-2.67,0 -4.84,2.17 -4.84,4.84 0,2.67 2.17,4.84 4.84,4.84 2.67,0 4.84,-2.17 4.84,-4.84 0,-2.67 -2.17,-4.84 -4.84,-4.84z"/>
   </g>
   <g>
    <polygon class="fil4" points="10.45,24.89 10.45,23.35 19.24,23.35 19.24,24.89 "/>
   </g>
   <g>
    <polygon class="fil4" points="3.22,24.9 3.22,23.35 8,23.35 8,24.9 "/>
   </g>
   <g>
    <polygon class="fil1" points="23.13,8 21.58,8 21.58,3.22 23.13,3.22 "/>
   </g>
   <g>
    <polygon class="fil1" points="39.89,26.51 38.34,26.51 38.34,21.73 39.89,21.73 "/>
   </g>
   <circle class="fil5" cx="22.35" cy="19.26" r="1.99"/>
   <g>
    <path class="fil0 str3" d="M27.19 5.61c0,-2.67 -2.17,-4.84 -4.84,-4.84 -2.67,0 -4.84,2.17 -4.84,4.84 0,2.67 2.17,4.84 4.84,4.84 2.67,0 4.84,-2.17 4.84,-4.84z"/>
   </g>
   <g>
    <polygon class="fil6" points="21.58,10.45 23.12,10.45 23.12,19.26 21.58,19.26 "/>
   </g>
   <g>
    <polygon class="fil6" points="24.74,4.84 24.74,6.39 19.96,6.39 19.96,4.84 "/>
   </g>
  </g>
 </g>
</svg>
