<?xml version="1.0" encoding="UTF-8"?>
<!DOCTYPE svg PUBLIC "-//W3C//DTD SVG 1.1//EN" "http://www.w3.org/Graphics/SVG/1.1/DTD/svg11.dtd">
<!-- Creator: CorelDRAW 2018 -->
<svg xmlns="http://www.w3.org/2000/svg" xml:space="preserve" width="19.1712mm" height="4.4508mm" version="1.1" style="shape-rendering:geometricPrecision; text-rendering:geometricPrecision; image-rendering:optimizeQuality; fill-rule:evenodd; clip-rule:evenodd"
viewBox="0 0 61.67 14.32"
 xmlns:xlink="http://www.w3.org/1999/xlink">
 <defs>
  <style type="text/css">
   <![CDATA[
    .str0 {stroke:black;stroke-width:1.97;stroke-miterlimit:22.9256}
    .fil2 {fill:none}
    .fil0 {fill:#A30005}
    .fil1 {fill:black}
    .fil3 {fill:#A30005;fill-rule:nonzero}
    .fil4 {fill:black;fill-rule:nonzero}
   ]]>
  </style>
 </defs>
 <g id="Слой_x0020_1">
  <metadata id="CorelCorpID_0Corel-Layer"/>
  <g id="_807896120">
   <circle class="fil0" cx="24.58" cy="7.16" r="2.5"/>
   <circle class="fil1" transform="matrix(0.02983 0.00799292 0.00799292 -0.02983 37.1206 7.15859)" r="80.85"/>
   <g>
    <path class="fil2 str0" d="M24.81 0.98l12.29 0c3.39,0 6.18,2.78 6.18,6.18l0 0c0,0 -0,6.18 -0,6.18l-9.08 0c0,-1.79 -1.45,-3.24 -3.24,-3.24 -1.79,0 -3.24,1.45 -3.24,3.24l0 0 -2.9 0 -0.01 0 -6.17 0c0,-4.12 -0,-2.06 -0,-6.18 0,-3.4 2.78,-6.18 6.18,-6.18z"/>
   </g>
   <g>
    <path class="fil3" d="M-0 7.16l0 0 0.01 -0.37 0.03 -0.36 0.05 -0.36 0.06 -0.35 0.08 -0.35 0.1 -0.34 0.11 -0.33 0.13 -0.33 0.14 -0.32 0.16 -0.31 0.17 -0.3 0.19 -0.29 0.2 -0.28 0.21 -0.27 0.22 -0.26 0.24 -0.25 0.25 -0.24 0.26 -0.22 0.27 -0.21 0.28 -0.2 0.29 -0.19 0.3 -0.17 0.31 -0.16 0.32 -0.14 0.33 -0.13 0.33 -0.11 0.34 -0.1 0.35 -0.08 0.35 -0.06 0.36 -0.05 0.36 -0.03 0.37 -0.01 0 1.97 -0.27 0.01 -0.26 0.02 -0.26 0.03 -0.26 0.05 -0.25 0.06 -0.25 0.07 -0.24 0.08 -0.24 0.09 -0.23 0.1 -0.22 0.11 -0.22 0.12 -0.21 0.14 -0.2 0.14 -0.2 0.15 -0.19 0.16 -0.18 0.17 -0.17 0.18 -0.16 0.19 -0.15 0.2 -0.14 0.2 -0.14 0.21 -0.12 0.22 -0.11 0.22 -0.1 0.23 -0.09 0.24 -0.08 0.24 -0.07 0.25 -0.06 0.25 -0.05 0.26 -0.03 0.26 -0.02 0.26 -0.01 0.27 0 0 -1.97 0zm7.16 7.16l0 0 -0.37 -0.01 -0.36 -0.03 -0.36 -0.05 -0.35 -0.06 -0.35 -0.08 -0.34 -0.1 -0.33 -0.11 -0.33 -0.13 -0.32 -0.14 -0.31 -0.16 -0.3 -0.17 -0.29 -0.19 -0.28 -0.2 -0.27 -0.21 -0.26 -0.22 -0.25 -0.24 -0.24 -0.25 -0.22 -0.26 -0.21 -0.27 -0.2 -0.28 -0.19 -0.29 -0.17 -0.3 -0.16 -0.31 -0.14 -0.32 -0.13 -0.33 -0.11 -0.33 -0.1 -0.34 -0.08 -0.35 -0.06 -0.35 -0.05 -0.36 -0.03 -0.36 -0.01 -0.37 1.97 0 0.01 0.27 0.02 0.26 0.03 0.26 0.05 0.26 0.06 0.25 0.07 0.25 0.08 0.24 0.09 0.24 0.1 0.23 0.11 0.22 0.12 0.22 0.14 0.21 0.14 0.2 0.15 0.2 0.16 0.19 0.17 0.18 0.18 0.17 0.19 0.16 0.2 0.15 0.2 0.14 0.21 0.14 0.22 0.12 0.22 0.11 0.23 0.1 0.24 0.09 0.24 0.08 0.25 0.07 0.25 0.06 0.26 0.05 0.26 0.03 0.26 0.02 0.27 0.01 0 0 0 1.97zm7.16 -7.16l0 0 -0.01 0.37 -0.03 0.36 -0.05 0.36 -0.06 0.35 -0.08 0.35 -0.1 0.34 -0.11 0.33 -0.13 0.33 -0.14 0.32 -0.16 0.31 -0.17 0.3 -0.19 0.29 -0.2 0.28 -0.21 0.27 -0.22 0.26 -0.24 0.25 -0.25 0.24 -0.26 0.22 -0.27 0.21 -0.28 0.2 -0.29 0.19 -0.3 0.17 -0.31 0.16 -0.32 0.14 -0.33 0.13 -0.33 0.11 -0.34 0.1 -0.35 0.08 -0.35 0.06 -0.36 0.05 -0.36 0.03 -0.37 0.01 0 -1.97 0.27 -0.01 0.26 -0.02 0.26 -0.03 0.26 -0.05 0.25 -0.06 0.25 -0.07 0.24 -0.08 0.24 -0.09 0.23 -0.1 0.22 -0.11 0.22 -0.12 0.21 -0.14 0.2 -0.14 0.2 -0.15 0.19 -0.16 0.18 -0.17 0.17 -0.18 0.16 -0.19 0.15 -0.2 0.14 -0.2 0.14 -0.21 0.12 -0.22 0.11 -0.22 0.1 -0.23 0.09 -0.24 0.08 -0.24 0.07 -0.25 0.06 -0.25 0.05 -0.26 0.03 -0.26 0.02 -0.26 0.01 -0.27 0 0 1.97 0zm-7.16 -7.16l0 0 0.37 0.01 0.36 0.03 0.36 0.05 0.35 0.06 0.35 0.08 0.34 0.1 0.33 0.11 0.33 0.13 0.32 0.14 0.31 0.16 0.3 0.17 0.29 0.19 0.28 0.2 0.27 0.21 0.26 0.22 0.25 0.24 0.24 0.25 0.22 0.26 0.21 0.27 0.2 0.28 0.19 0.29 0.17 0.3 0.16 0.31 0.14 0.32 0.13 0.33 0.11 0.33 0.1 0.34 0.08 0.35 0.06 0.35 0.05 0.36 0.03 0.36 0.01 0.37 -1.97 0 -0.01 -0.27 -0.02 -0.26 -0.03 -0.26 -0.05 -0.26 -0.06 -0.25 -0.07 -0.25 -0.08 -0.24 -0.09 -0.24 -0.1 -0.23 -0.11 -0.22 -0.12 -0.22 -0.14 -0.21 -0.14 -0.2 -0.15 -0.2 -0.16 -0.19 -0.17 -0.18 -0.18 -0.17 -0.19 -0.16 -0.2 -0.15 -0.2 -0.14 -0.21 -0.14 -0.22 -0.12 -0.22 -0.11 -0.23 -0.1 -0.24 -0.09 -0.24 -0.08 -0.25 -0.07 -0.25 -0.06 -0.26 -0.05 -0.26 -0.03 -0.26 -0.02 -0.27 -0.01 0 0 0 -1.97z"/>
   </g>
   <g>
    <polygon class="fil3" points="13.33,8.14 13.33,6.17 24.58,6.17 24.58,8.14 "/>
   </g>
   <g>
    <polygon class="fil3" points="4.11,8.15 4.11,6.17 10.21,6.17 10.21,8.15 "/>
   </g>
   <g>
    <polygon class="fil3" points="8.15,10.21 6.17,10.21 6.17,4.11 8.15,4.11 "/>
   </g>
   <g>
    <path class="fil4" d="M61.67 7.16l-1.97 0 0 0 -0.01 -0.27 -0.02 -0.26 -0.03 -0.26 -0.05 -0.26 -0.06 -0.25 -0.07 -0.25 -0.08 -0.24 -0.09 -0.24 -0.1 -0.23 -0.11 -0.22 -0.12 -0.22 -0.14 -0.21 -0.14 -0.2 -0.15 -0.2 -0.16 -0.19 -0.17 -0.18 -0.18 -0.17 -0.19 -0.16 -0.2 -0.15 -0.2 -0.14 -0.21 -0.14 -0.22 -0.12 -0.22 -0.11 -0.23 -0.1 -0.24 -0.09 -0.24 -0.08 -0.25 -0.07 -0.25 -0.06 -0.26 -0.05 -0.26 -0.03 -0.26 -0.02 -0.27 -0.01 0 -1.97 0.37 0.01 0.36 0.03 0.36 0.05 0.35 0.06 0.35 0.08 0.34 0.1 0.33 0.11 0.33 0.13 0.32 0.14 0.31 0.16 0.3 0.17 0.29 0.19 0.28 0.2 0.27 0.21 0.26 0.22 0.25 0.24 0.24 0.25 0.22 0.26 0.21 0.27 0.2 0.28 0.19 0.29 0.17 0.3 0.16 0.31 0.14 0.32 0.13 0.33 0.11 0.33 0.1 0.34 0.08 0.35 0.06 0.35 0.05 0.36 0.03 0.36 0.01 0.37 0 0zm-7.16 7.16l0 -1.97 0 0 0.27 -0.01 0.26 -0.02 0.26 -0.03 0.26 -0.05 0.25 -0.06 0.25 -0.07 0.24 -0.08 0.24 -0.09 0.23 -0.1 0.22 -0.11 0.22 -0.12 0.21 -0.14 0.2 -0.14 0.2 -0.15 0.19 -0.16 0.18 -0.17 0.17 -0.18 0.16 -0.19 0.15 -0.2 0.14 -0.2 0.14 -0.21 0.12 -0.22 0.11 -0.22 0.1 -0.23 0.09 -0.24 0.08 -0.24 0.07 -0.25 0.06 -0.25 0.05 -0.26 0.03 -0.26 0.02 -0.26 0.01 -0.27 1.97 0 -0.01 0.37 -0.03 0.36 -0.05 0.36 -0.06 0.35 -0.08 0.35 -0.1 0.34 -0.11 0.33 -0.13 0.33 -0.14 0.32 -0.16 0.31 -0.17 0.3 -0.19 0.29 -0.2 0.28 -0.21 0.27 -0.22 0.26 -0.24 0.25 -0.25 0.24 -0.26 0.22 -0.27 0.21 -0.28 0.2 -0.29 0.19 -0.3 0.17 -0.31 0.16 -0.32 0.14 -0.33 0.13 -0.33 0.11 -0.34 0.1 -0.35 0.08 -0.35 0.06 -0.36 0.05 -0.36 0.03 -0.37 0.01 0 0zm-7.16 -7.16l1.97 0 0 0 0.01 0.27 0.02 0.26 0.03 0.26 0.05 0.26 0.06 0.25 0.07 0.25 0.08 0.24 0.09 0.24 0.1 0.23 0.11 0.22 0.12 0.22 0.14 0.21 0.14 0.2 0.15 0.2 0.16 0.19 0.17 0.18 0.18 0.17 0.19 0.16 0.2 0.15 0.2 0.14 0.21 0.14 0.22 0.12 0.22 0.11 0.23 0.1 0.24 0.09 0.24 0.08 0.25 0.07 0.25 0.06 0.26 0.05 0.26 0.03 0.26 0.02 0.27 0.01 0 1.97 -0.37 -0.01 -0.36 -0.03 -0.36 -0.05 -0.35 -0.06 -0.35 -0.08 -0.34 -0.1 -0.33 -0.11 -0.33 -0.13 -0.32 -0.14 -0.31 -0.16 -0.3 -0.17 -0.29 -0.19 -0.28 -0.2 -0.27 -0.21 -0.26 -0.22 -0.25 -0.24 -0.24 -0.25 -0.22 -0.26 -0.21 -0.27 -0.2 -0.28 -0.19 -0.29 -0.17 -0.3 -0.16 -0.31 -0.14 -0.32 -0.13 -0.33 -0.11 -0.33 -0.1 -0.34 -0.08 -0.35 -0.06 -0.35 -0.05 -0.36 -0.03 -0.36 -0.01 -0.37 0 0zm7.16 -7.16l0 1.97 0 0 -0.27 0.01 -0.26 0.02 -0.26 0.03 -0.26 0.05 -0.25 0.06 -0.25 0.07 -0.24 0.08 -0.24 0.09 -0.23 0.1 -0.22 0.11 -0.22 0.12 -0.21 0.14 -0.2 0.14 -0.2 0.15 -0.19 0.16 -0.18 0.17 -0.17 0.18 -0.16 0.19 -0.15 0.2 -0.14 0.2 -0.14 0.21 -0.12 0.22 -0.11 0.22 -0.1 0.23 -0.09 0.24 -0.08 0.24 -0.07 0.25 -0.06 0.25 -0.05 0.26 -0.03 0.26 -0.02 0.26 -0.01 0.27 -1.97 0 0.01 -0.37 0.03 -0.36 0.05 -0.36 0.06 -0.35 0.08 -0.35 0.1 -0.34 0.11 -0.33 0.13 -0.33 0.14 -0.32 0.16 -0.31 0.17 -0.3 0.19 -0.29 0.2 -0.28 0.21 -0.27 0.22 -0.26 0.24 -0.25 0.25 -0.24 0.26 -0.22 0.27 -0.21 0.28 -0.2 0.29 -0.19 0.3 -0.17 0.31 -0.16 0.32 -0.14 0.33 -0.13 0.33 -0.11 0.34 -0.1 0.35 -0.08 0.35 -0.06 0.36 -0.05 0.36 -0.03 0.37 -0.01 0 0z"/>
   </g>
   <g>
    <polygon class="fil4" points="48.33,8.15 37.12,8.15 37.12,6.17 48.33,6.17 "/>
   </g>
   <g>
    <polygon class="fil4" points="57.56,8.15 51.46,8.15 51.46,6.17 57.56,6.17 "/>
   </g>
  </g>
 </g>
</svg>
