<?xml version="1.0" encoding="UTF-8"?>
<!DOCTYPE svg PUBLIC "-//W3C//DTD SVG 1.1//EN" "http://www.w3.org/Graphics/SVG/1.1/DTD/svg11.dtd">
<!-- Creator: CorelDRAW 2018 -->
<svg xmlns="http://www.w3.org/2000/svg" xml:space="preserve" width="27.9093mm" height="9.7686mm" version="1.1" style="shape-rendering:geometricPrecision; text-rendering:geometricPrecision; image-rendering:optimizeQuality; fill-rule:evenodd; clip-rule:evenodd"
viewBox="0 0 165.18 57.82"
 xmlns:xlink="http://www.w3.org/1999/xlink">
 <defs>
  <style type="text/css">
   <![CDATA[
    .fil4 {fill:#A30005}
    .fil2 {fill:black}
    .fil3 {fill:black}
    .fil1 {fill:#A30005;fill-rule:nonzero}
    .fil0 {fill:black;fill-rule:nonzero}
   ]]>
  </style>
 </defs>
 <g id="Слой_x0020_1">
  <metadata id="CorelCorpID_0Corel-Layer"/>
  <g id="_807896840">
   <g>
    <path class="fil0" d="M156.52 54.22l1.61 2.87 -1.61 0.73 -147.85 0 0 -3.6 147.85 0zm1.61 2.87l-0.6 0.73 -1.01 0 1.61 -0.73zm3.43 -10.23l3.62 1.07 -0.39 1.07 -6.66 8.09 -3.23 -2.14 6.66 -8.09zm3.62 1.07l0 0.59 -0.39 0.48 0.39 -1.07zm-4.01 -14.52l2.01 -1.8 2.01 1.8 0 14.52 -4.01 0 0 -14.52zm2.01 -1.8l2.01 0 0 1.8 -2.01 -1.8zm-161.17 3.6l-2.01 -1.8 2.01 -1.8 161.17 0 0 3.6 -161.17 0zm-2.01 -1.8l0 -1.8 2.01 0 -2.01 1.8zm4.01 14.52l-3.62 1.07 -0.39 -1.07 0 -14.52 4.01 0 -0 14.52zm-3.62 1.07l-0.39 -0.48 0 -0.59 0.39 1.07zm9.89 5.95l-1.62 2.87 -1.62 -0.73 -6.66 -8.09 3.23 -2.14 6.66 8.09zm-1.62 2.87l-1.01 0 -0.6 -0.73 1.62 0.73z"/>
   </g>
   <g>
    <path class="fil1" d="M70 13.11l-3.6 0 0 0 -0.01 -0.49 -0.04 -0.48 -0.06 -0.48 -0.08 -0.47 -0.11 -0.46 -0.13 -0.45 -0.15 -0.44 -0.17 -0.43 -0.19 -0.42 -0.21 -0.41 -0.23 -0.4 -0.25 -0.39 -0.26 -0.37 -0.28 -0.36 -0.3 -0.35 -0.31 -0.33 -0.33 -0.31 -0.35 -0.3 -0.36 -0.28 -0.37 -0.26 -0.39 -0.25 -0.4 -0.23 -0.41 -0.21 -0.42 -0.19 -0.43 -0.17 -0.44 -0.15 -0.45 -0.13 -0.46 -0.11 -0.47 -0.08 -0.48 -0.06 -0.48 -0.04 -0.49 -0.01 0 -3.6 0.67 0.02 0.66 0.05 0.66 0.08 0.65 0.12 0.64 0.15 0.62 0.18 0.61 0.21 0.6 0.23 0.58 0.26 0.56 0.29 0.55 0.32 0.53 0.34 0.51 0.37 0.5 0.39 0.47 0.41 0.46 0.43 0.43 0.46 0.41 0.47 0.39 0.5 0.37 0.51 0.34 0.53 0.32 0.55 0.29 0.56 0.26 0.58 0.23 0.6 0.21 0.61 0.18 0.62 0.15 0.64 0.12 0.65 0.08 0.66 0.05 0.66 0.02 0.67 0 0zm-13.11 13.11l0 -3.6 0 0 0.49 -0.01 0.48 -0.04 0.48 -0.06 0.47 -0.08 0.46 -0.11 0.45 -0.13 0.44 -0.15 0.43 -0.17 0.42 -0.19 0.41 -0.21 0.4 -0.23 0.39 -0.25 0.37 -0.26 0.36 -0.28 0.35 -0.3 0.33 -0.31 0.31 -0.33 0.3 -0.35 0.28 -0.36 0.26 -0.37 0.25 -0.39 0.23 -0.4 0.21 -0.41 0.19 -0.42 0.17 -0.43 0.15 -0.44 0.13 -0.45 0.11 -0.46 0.08 -0.47 0.06 -0.48 0.04 -0.48 0.01 -0.49 3.6 0 -0.02 0.67 -0.05 0.66 -0.08 0.66 -0.12 0.65 -0.15 0.64 -0.18 0.62 -0.21 0.61 -0.23 0.6 -0.26 0.58 -0.29 0.56 -0.32 0.55 -0.34 0.53 -0.37 0.51 -0.39 0.5 -0.41 0.47 -0.43 0.46 -0.46 0.43 -0.47 0.41 -0.5 0.39 -0.51 0.37 -0.53 0.34 -0.55 0.32 -0.56 0.29 -0.58 0.26 -0.6 0.23 -0.61 0.21 -0.62 0.18 -0.64 0.15 -0.65 0.12 -0.66 0.08 -0.66 0.05 -0.67 0.02 0 0zm-13.11 -13.11l3.6 0 0 0 0.01 0.49 0.04 0.48 0.06 0.48 0.08 0.47 0.11 0.46 0.13 0.45 0.15 0.44 0.17 0.43 0.19 0.42 0.21 0.41 0.23 0.4 0.25 0.39 0.26 0.37 0.28 0.36 0.3 0.35 0.31 0.33 0.33 0.31 0.35 0.3 0.36 0.28 0.37 0.26 0.39 0.25 0.4 0.23 0.41 0.21 0.42 0.19 0.43 0.17 0.44 0.15 0.45 0.13 0.46 0.11 0.47 0.08 0.48 0.06 0.48 0.04 0.49 0.01 0 3.6 -0.67 -0.02 -0.66 -0.05 -0.66 -0.08 -0.65 -0.12 -0.64 -0.15 -0.62 -0.18 -0.61 -0.21 -0.6 -0.23 -0.58 -0.26 -0.56 -0.29 -0.55 -0.32 -0.53 -0.34 -0.51 -0.37 -0.5 -0.39 -0.47 -0.41 -0.46 -0.43 -0.43 -0.46 -0.41 -0.47 -0.39 -0.5 -0.37 -0.51 -0.34 -0.53 -0.32 -0.55 -0.29 -0.56 -0.26 -0.58 -0.23 -0.6 -0.21 -0.61 -0.18 -0.62 -0.15 -0.64 -0.12 -0.65 -0.08 -0.66 -0.05 -0.66 -0.02 -0.67 0 0zm13.11 -13.11l0 3.6 0 0 -0.49 0.01 -0.48 0.04 -0.48 0.06 -0.47 0.08 -0.46 0.11 -0.45 0.13 -0.44 0.15 -0.43 0.17 -0.42 0.19 -0.41 0.21 -0.4 0.23 -0.39 0.25 -0.37 0.26 -0.36 0.28 -0.35 0.3 -0.33 0.31 -0.31 0.33 -0.3 0.35 -0.28 0.36 -0.26 0.37 -0.25 0.39 -0.23 0.4 -0.21 0.41 -0.19 0.42 -0.17 0.43 -0.15 0.44 -0.13 0.45 -0.11 0.46 -0.08 0.47 -0.06 0.48 -0.04 0.48 -0.01 0.49 -3.6 0 0.02 -0.67 0.05 -0.66 0.08 -0.66 0.12 -0.65 0.15 -0.64 0.18 -0.62 0.21 -0.61 0.23 -0.6 0.26 -0.58 0.29 -0.56 0.32 -0.55 0.34 -0.53 0.37 -0.51 0.39 -0.5 0.41 -0.47 0.43 -0.46 0.46 -0.43 0.47 -0.41 0.5 -0.39 0.51 -0.37 0.53 -0.34 0.55 -0.32 0.56 -0.29 0.58 -0.26 0.6 -0.23 0.61 -0.21 0.62 -0.18 0.64 -0.15 0.65 -0.12 0.66 -0.08 0.66 -0.05 0.67 -0.02 0 0z"/>
   </g>
   <g>
    <polygon class="fil1" points="62.47,14.92 51.31,14.92 51.31,11.29 62.47,11.29 "/>
   </g>
   <g>
    <polygon class="fil1" points="55.08,18.69 55.08,7.52 58.7,7.52 58.7,18.69 "/>
   </g>
   <g>
    <path class="fil0" d="M13.6 13.11l0 0 0.02 -0.67 0.05 -0.66 0.08 -0.66 0.12 -0.65 0.15 -0.64 0.18 -0.62 0.21 -0.61 0.23 -0.6 0.26 -0.58 0.29 -0.56 0.32 -0.55 0.34 -0.53 0.37 -0.51 0.39 -0.5 0.41 -0.47 0.43 -0.46 0.46 -0.43 0.47 -0.41 0.5 -0.39 0.51 -0.37 0.53 -0.34 0.55 -0.32 0.56 -0.29 0.58 -0.26 0.6 -0.23 0.61 -0.21 0.62 -0.18 0.64 -0.15 0.65 -0.12 0.66 -0.08 0.66 -0.05 0.67 -0.02 0 3.6 -0.49 0.01 -0.48 0.04 -0.48 0.06 -0.47 0.08 -0.46 0.11 -0.45 0.13 -0.44 0.15 -0.43 0.17 -0.42 0.19 -0.41 0.21 -0.4 0.23 -0.39 0.25 -0.37 0.26 -0.36 0.28 -0.35 0.3 -0.33 0.31 -0.31 0.33 -0.3 0.35 -0.28 0.36 -0.26 0.37 -0.25 0.39 -0.23 0.4 -0.21 0.41 -0.19 0.42 -0.17 0.43 -0.15 0.44 -0.13 0.45 -0.11 0.46 -0.08 0.47 -0.06 0.48 -0.04 0.48 -0.01 0.49 0 0 -3.6 0zm13.11 13.11l0 0 -0.67 -0.02 -0.66 -0.05 -0.66 -0.08 -0.65 -0.12 -0.64 -0.15 -0.62 -0.18 -0.61 -0.21 -0.6 -0.23 -0.58 -0.26 -0.56 -0.29 -0.55 -0.32 -0.53 -0.34 -0.51 -0.37 -0.5 -0.39 -0.47 -0.41 -0.46 -0.43 -0.43 -0.46 -0.41 -0.47 -0.39 -0.5 -0.37 -0.51 -0.34 -0.53 -0.32 -0.55 -0.29 -0.56 -0.26 -0.58 -0.23 -0.6 -0.21 -0.61 -0.18 -0.62 -0.15 -0.64 -0.12 -0.65 -0.08 -0.66 -0.05 -0.66 -0.02 -0.67 3.6 0 0.01 0.49 0.04 0.48 0.06 0.48 0.08 0.47 0.11 0.46 0.13 0.45 0.15 0.44 0.17 0.43 0.19 0.42 0.21 0.41 0.23 0.4 0.25 0.39 0.26 0.37 0.28 0.36 0.3 0.35 0.31 0.33 0.33 0.31 0.35 0.3 0.36 0.28 0.37 0.26 0.39 0.25 0.4 0.23 0.41 0.21 0.42 0.19 0.43 0.17 0.44 0.15 0.45 0.13 0.46 0.11 0.47 0.08 0.48 0.06 0.48 0.04 0.49 0.01 0 0 0 3.6zm13.11 -13.11l0 0 -0.02 0.67 -0.05 0.66 -0.08 0.66 -0.12 0.65 -0.15 0.64 -0.18 0.62 -0.21 0.61 -0.23 0.6 -0.26 0.58 -0.29 0.56 -0.32 0.55 -0.34 0.53 -0.37 0.51 -0.39 0.49 -0.41 0.47 -0.43 0.46 -0.45 0.43 -0.48 0.41 -0.5 0.39 -0.51 0.36 -0.53 0.34 -0.55 0.32 -0.57 0.29 -0.58 0.26 -0.6 0.23 -0.61 0.21 -0.62 0.18 -0.64 0.15 -0.65 0.12 -0.66 0.08 -0.66 0.05 -0.67 0.02 0 -3.6 0.49 -0.01 0.48 -0.04 0.48 -0.06 0.47 -0.08 0.46 -0.11 0.45 -0.13 0.44 -0.15 0.43 -0.17 0.42 -0.19 0.41 -0.21 0.4 -0.23 0.39 -0.25 0.37 -0.27 0.36 -0.28 0.35 -0.3 0.33 -0.32 0.32 -0.33 0.3 -0.35 0.28 -0.36 0.27 -0.37 0.25 -0.39 0.23 -0.4 0.21 -0.41 0.19 -0.42 0.17 -0.43 0.15 -0.44 0.13 -0.45 0.11 -0.46 0.08 -0.47 0.06 -0.48 0.04 -0.48 0.01 -0.49 0 0 3.6 0zm-13.11 -13.11l0 0 0.67 0.02 0.66 0.05 0.66 0.08 0.65 0.12 0.64 0.15 0.62 0.18 0.61 0.21 0.6 0.23 0.58 0.26 0.57 0.29 0.55 0.32 0.53 0.34 0.51 0.36 0.5 0.39 0.48 0.41 0.45 0.43 0.43 0.46 0.41 0.47 0.39 0.49 0.37 0.51 0.34 0.53 0.32 0.55 0.29 0.56 0.26 0.58 0.23 0.6 0.21 0.61 0.18 0.62 0.15 0.64 0.12 0.65 0.08 0.66 0.05 0.66 0.02 0.67 -3.6 0 -0.01 -0.49 -0.04 -0.48 -0.06 -0.48 -0.08 -0.47 -0.11 -0.46 -0.13 -0.45 -0.15 -0.44 -0.17 -0.43 -0.19 -0.42 -0.21 -0.41 -0.23 -0.4 -0.25 -0.39 -0.27 -0.37 -0.28 -0.36 -0.3 -0.35 -0.32 -0.33 -0.33 -0.32 -0.35 -0.3 -0.36 -0.28 -0.37 -0.27 -0.39 -0.25 -0.4 -0.23 -0.41 -0.21 -0.42 -0.19 -0.43 -0.17 -0.44 -0.15 -0.45 -0.13 -0.46 -0.11 -0.47 -0.08 -0.48 -0.06 -0.48 -0.04 -0.49 -0.01 0 0 0 -3.6z"/>
   </g>
   <g>
    <polygon class="fil0" points="21.13,14.92 21.13,11.29 32.29,11.29 32.29,14.92 "/>
   </g>
   <rect class="fil2" transform="matrix(1.65184E-14 0.760181 -0.484808 1.56496E-14 20.648 46.9306)" width="6.39" height="6.39"/>
   <rect class="fil2" transform="matrix(1.65184E-14 0.760181 -0.484808 1.56496E-14 25.3555 46.9306)" width="6.39" height="6.39"/>
   <rect class="fil2" transform="matrix(1.65184E-14 0.760181 -0.484808 1.56496E-14 30.0629 46.9306)" width="6.39" height="6.39"/>
   <rect class="fil2" transform="matrix(1.65184E-14 0.760181 -0.484808 1.56496E-14 34.7704 46.9306)" width="6.39" height="6.39"/>
   <rect class="fil2" transform="matrix(1.65184E-14 0.760181 -0.484808 1.56496E-14 39.4779 46.9306)" width="6.39" height="6.39"/>
   <rect class="fil3" transform="matrix(1.65184E-14 0.760181 -0.484808 1.56496E-14 44.1854 46.9306)" width="6.39" height="6.39"/>
   <rect class="fil4" transform="matrix(1.65184E-14 5.09321 -0.484808 1.04852E-13 48.8929 19.2235)" width="6.39" height="6.39"/>
   <rect class="fil4" transform="matrix(1.65184E-14 4.45964 -0.484808 9.18094E-14 53.6019 23.2748)" width="6.39" height="6.39"/>
   <rect class="fil3" transform="matrix(1.65184E-14 0.760181 -0.484808 1.56496E-14 58.3094 46.9306)" width="6.39" height="6.39"/>
   <rect class="fil3" transform="matrix(1.65184E-14 0.760181 -0.484808 1.56496E-14 63.0168 46.9306)" width="6.39" height="6.39"/>
   <rect class="fil3" transform="matrix(1.65184E-14 0.760181 -0.484808 1.56496E-14 67.7243 46.9306)" width="6.39" height="6.39"/>
   <rect class="fil3" transform="matrix(1.65184E-14 0.760181 -0.484808 1.56496E-14 72.4318 46.9306)" width="6.39" height="6.39"/>
   <rect class="fil3" transform="matrix(1.65184E-14 0.760181 -0.484808 1.56496E-14 77.1393 46.9306)" width="6.39" height="6.39"/>
   <rect class="fil3" transform="matrix(1.65184E-14 0.760181 -0.484808 1.56496E-14 81.8468 46.9306)" width="6.39" height="6.39"/>
   <rect class="fil3" transform="matrix(1.65184E-14 0.760181 -0.484808 1.56496E-14 86.5543 46.9306)" width="6.39" height="6.39"/>
   <rect class="fil3" transform="matrix(1.65184E-14 0.760181 -0.484808 1.56496E-14 91.2633 46.9306)" width="6.39" height="6.39"/>
   <rect class="fil3" transform="matrix(1.65184E-14 0.760181 -0.484808 1.56496E-14 95.9707 46.9306)" width="6.39" height="6.39"/>
   <rect class="fil3" transform="matrix(1.65184E-14 0.760181 -0.484808 1.56496E-14 100.678 46.9306)" width="6.39" height="6.39"/>
   <rect class="fil3" transform="matrix(1.65184E-14 0.760181 -0.484808 1.56496E-14 105.386 46.9306)" width="6.39" height="6.39"/>
   <rect class="fil3" transform="matrix(1.65184E-14 0.760181 -0.484808 1.56496E-14 110.093 46.9306)" width="6.39" height="6.39"/>
   <rect class="fil3" transform="matrix(1.65184E-14 0.760181 -0.484808 1.56496E-14 114.801 46.9306)" width="6.39" height="6.39"/>
   <rect class="fil3" transform="matrix(1.65184E-14 0.760181 -0.484808 1.56496E-14 119.508 46.9306)" width="6.39" height="6.39"/>
   <rect class="fil3" transform="matrix(1.65184E-14 0.760181 -0.484808 1.56496E-14 124.216 46.9306)" width="6.39" height="6.39"/>
   <rect class="fil3" transform="matrix(1.65184E-14 0.760181 -0.484808 1.56496E-14 128.925 46.9306)" width="6.39" height="6.39"/>
   <rect class="fil3" transform="matrix(1.65184E-14 0.760181 -0.484808 1.56496E-14 133.632 46.9306)" width="6.39" height="6.39"/>
   <rect class="fil3" transform="matrix(1.65184E-14 0.760181 -0.484808 1.56496E-14 138.34 46.9306)" width="6.39" height="6.39"/>
   <rect class="fil3" transform="matrix(1.65184E-14 0.760181 -0.484808 1.56496E-14 143.047 46.9306)" width="6.39" height="6.39"/>
   <rect class="fil3" transform="matrix(1.65184E-14 0.760181 -0.484808 1.56496E-14 147.755 46.9306)" width="6.39" height="6.39"/>
   <rect class="fil2" transform="matrix(1.65184E-14 4.60117 -0.484808 9.47229E-14 34.7704 22.3698)" width="6.39" height="6.39"/>
  </g>
 </g>
</svg>
