<?xml version="1.0" encoding="UTF-8"?>
<!DOCTYPE svg PUBLIC "-//W3C//DTD SVG 1.1//EN" "http://www.w3.org/Graphics/SVG/1.1/DTD/svg11.dtd">
<!-- Creator: CorelDRAW 2018 -->
<svg xmlns="http://www.w3.org/2000/svg" xml:space="preserve" width="20.69mm" height="21.3476mm" version="1.1" style="shape-rendering:geometricPrecision; text-rendering:geometricPrecision; image-rendering:optimizeQuality; fill-rule:evenodd; clip-rule:evenodd"
viewBox="0 0 72.46 74.77"
 xmlns:xlink="http://www.w3.org/1999/xlink">
 <defs>
  <style type="text/css">
   <![CDATA[
    .str0 {stroke:black;stroke-width:2.1;stroke-miterlimit:22.9256}
    .str2 {stroke:black;stroke-width:2.11;stroke-miterlimit:22.9256}
    .str4 {stroke:black;stroke-width:2.11;stroke-miterlimit:22.9256}
    .str1 {stroke:#A30005;stroke-width:2.11;stroke-miterlimit:22.9256}
    .str3 {stroke:#A30005;stroke-width:2.11;stroke-miterlimit:22.9256}
    .str5 {stroke:#A30005;stroke-width:2.11;stroke-miterlimit:22.9256}
    .fil0 {fill:none}
    .fil2 {fill:#A30005}
    .fil3 {fill:black}
    .fil1 {fill:#A30005;fill-rule:nonzero}
    .fil4 {fill:black;fill-rule:nonzero}
   ]]>
  </style>
 </defs>
 <g id="Слой_x0020_1">
  <metadata id="CorelCorpID_0Corel-Layer"/>
  <g id="_802877440">
   <path class="fil0 str0" d="M40.03 19.12c8.28,1.75 14.5,9.1 14.5,17.9 0,10.11 -8.19,18.3 -18.3,18.3 -10.11,0 -18.3,-8.19 -18.3,-18.3 0,-8.8 6.22,-16.15 14.5,-17.9 0.2,1.93 1.83,3.43 3.8,3.43 1.98,0 3.6,-1.5 3.8,-3.43z"/>
   <g>
    <path class="fil0 str1" d="M64.79 37.36c3.66,0 6.62,-2.97 6.62,-6.62 0,-3.66 -2.96,-6.62 -6.62,-6.62 -3.66,0 -6.62,2.96 -6.62,6.62 0,3.66 2.96,6.62 6.62,6.62z"/>
   </g>
   <g>
    <polygon class="fil1" points="58.17,29.68 58.17,31.79 44.71,31.79 44.71,29.68 "/>
   </g>
   <g>
    <polygon class="fil1" points="68.06,29.67 68.06,31.8 61.52,31.8 61.52,29.67 "/>
   </g>
   <g>
    <polygon class="fil1" points="65.85,27.47 65.85,34 63.73,34 63.73,27.47 "/>
   </g>
   <circle class="fil2" transform="matrix(0.02983 0.00799292 0.00799292 -0.02983 36.2317 47.0114)" r="88.03"/>
   <circle class="fil3" transform="matrix(0.02983 0.00799292 0.00799292 -0.02983 27.7549 42.1172)" r="88.03"/>
   <circle class="fil3" transform="matrix(0.02983 0.00799292 0.00799292 -0.02983 44.7084 42.1172)" r="88.03"/>
   <circle class="fil3" transform="matrix(0.02983 0.00799292 0.00799292 -0.02983 36.2317 35.6295)" r="88.03"/>
   <circle class="fil2" transform="matrix(0.02983 0.00799292 0.00799292 -0.02983 27.7549 30.7353)" r="88.03"/>
   <circle class="fil2" transform="matrix(0.02983 0.00799292 0.00799292 -0.02983 44.7084 30.7353)" r="88.03"/>
   <g>
    <path class="fil0 str2" d="M58.79 57.89c3.17,1.83 7.22,0.74 9.05,-2.42 1.83,-3.17 0.74,-7.22 -2.42,-9.05 -3.17,-1.83 -7.22,-0.74 -9.05,2.42 -1.83,3.17 -0.74,7.22 2.42,9.05z"/>
   </g>
   <g>
    <polygon class="fil4" points="56.89,47.93 55.83,49.76 44.18,43.03 45.24,41.2 "/>
   </g>
   <g>
    <polygon class="fil4" points="65.37,51.1 65.37,53.22 58.83,53.22 58.83,51.1 "/>
   </g>
   <g>
    <path class="fil0 str3" d="M7.68 37.36c-3.66,0 -6.62,-2.97 -6.62,-6.62 0,-3.66 2.96,-6.62 6.62,-6.62 3.66,0 6.62,2.96 6.62,6.62 0,3.66 -2.96,6.62 -6.62,6.62z"/>
   </g>
   <g>
    <polygon class="fil1" points="14.3,29.68 27.75,29.68 27.75,31.79 14.3,31.79 "/>
   </g>
   <g>
    <polygon class="fil1" points="4.41,29.67 10.94,29.67 10.94,31.8 4.41,31.8 "/>
   </g>
   <g>
    <polygon class="fil1" points="6.62,27.47 8.74,27.47 8.74,34 6.62,34 "/>
   </g>
   <g>
    <path class="fil0 str4" d="M13.68 57.89c-3.17,1.83 -7.22,0.74 -9.05,-2.42 -1.83,-3.17 -0.74,-7.22 2.42,-9.05 3.17,-1.83 7.22,-0.74 9.05,2.42 1.83,3.17 0.74,7.22 -2.42,9.05z"/>
   </g>
   <g>
    <polygon class="fil4" points="15.57,47.93 27.23,41.2 28.28,43.03 16.63,49.76 "/>
   </g>
   <g>
    <polygon class="fil4" points="7.1,51.1 13.63,51.1 13.63,53.22 7.1,53.22 "/>
   </g>
   <g>
    <path class="fil0 str5" d="M29.61 67.09c0,3.66 2.97,6.62 6.62,6.62 3.66,0 6.62,-2.96 6.62,-6.62 0,-3.66 -2.96,-6.62 -6.62,-6.62 -3.66,0 -6.62,2.96 -6.62,6.62z"/>
   </g>
   <g>
    <polygon class="fil1" points="37.29,60.47 35.18,60.47 35.18,47.01 37.29,47.01 "/>
   </g>
   <g>
    <polygon class="fil1" points="37.29,70.36 35.17,70.36 35.17,63.82 37.29,63.82 "/>
   </g>
   <g>
    <polygon class="fil1" points="39.5,68.15 32.96,68.15 32.96,66.03 39.5,66.03 "/>
   </g>
   <g>
    <path class="fil4" d="M36.23 0l0 0 0.39 0.01 0.39 0.03 0.38 0.05 0.38 0.07 0.37 0.09 0.36 0.1 0.36 0.12 0.35 0.14 0.34 0.15 0.33 0.17 0.32 0.18 0.31 0.2 0.3 0.21 0.29 0.23 0.28 0.24 0.27 0.25 0.25 0.27 0.24 0.28 0.23 0.29 0.21 0.3 0.2 0.31 0.18 0.32 0.17 0.33 0.15 0.34 0.14 0.35 0.12 0.36 0.1 0.36 0.09 0.37 0.07 0.38 0.05 0.38 0.03 0.39 0.01 0.39 -2.11 0 -0.01 -0.29 -0.02 -0.28 -0.04 -0.28 -0.05 -0.27 -0.06 -0.27 -0.07 -0.26 -0.09 -0.26 -0.1 -0.25 -0.11 -0.25 -0.12 -0.24 -0.13 -0.23 -0.14 -0.23 -0.16 -0.22 -0.17 -0.21 -0.18 -0.2 -0.18 -0.19 -0.19 -0.18 -0.2 -0.18 -0.21 -0.17 -0.22 -0.16 -0.23 -0.14 -0.23 -0.13 -0.24 -0.12 -0.25 -0.11 -0.25 -0.1 -0.26 -0.09 -0.26 -0.07 -0.27 -0.06 -0.27 -0.05 -0.28 -0.04 -0.28 -0.02 -0.29 -0.01 0 0 0 -2.11zm-7.68 7.68l0 0 0.01 -0.39 0.03 -0.39 0.05 -0.38 0.07 -0.38 0.09 -0.37 0.1 -0.36 0.12 -0.36 0.14 -0.35 0.15 -0.34 0.17 -0.33 0.18 -0.32 0.2 -0.31 0.21 -0.3 0.23 -0.29 0.24 -0.28 0.25 -0.27 0.27 -0.25 0.28 -0.24 0.29 -0.23 0.3 -0.21 0.31 -0.2 0.32 -0.18 0.33 -0.17 0.34 -0.15 0.35 -0.14 0.36 -0.12 0.36 -0.1 0.37 -0.09 0.38 -0.07 0.38 -0.05 0.39 -0.03 0.39 -0.01 0 2.11 -0.29 0.01 -0.28 0.02 -0.28 0.04 -0.27 0.05 -0.27 0.06 -0.26 0.07 -0.26 0.09 -0.25 0.1 -0.25 0.11 -0.24 0.12 -0.23 0.13 -0.23 0.14 -0.22 0.16 -0.21 0.17 -0.2 0.18 -0.19 0.18 -0.18 0.19 -0.18 0.2 -0.17 0.21 -0.16 0.22 -0.14 0.23 -0.13 0.23 -0.12 0.24 -0.11 0.25 -0.1 0.25 -0.09 0.26 -0.07 0.26 -0.06 0.27 -0.05 0.27 -0.04 0.28 -0.02 0.28 -0.01 0.29 0 0 -2.11 0zm7.68 7.68l0 0 -0.39 -0.01 -0.39 -0.03 -0.38 -0.05 -0.38 -0.07 -0.37 -0.09 -0.36 -0.1 -0.36 -0.12 -0.35 -0.14 -0.34 -0.15 -0.33 -0.17 -0.32 -0.18 -0.31 -0.2 -0.3 -0.21 -0.29 -0.23 -0.28 -0.24 -0.27 -0.25 -0.25 -0.27 -0.24 -0.28 -0.23 -0.29 -0.21 -0.3 -0.2 -0.31 -0.18 -0.32 -0.17 -0.33 -0.15 -0.34 -0.14 -0.35 -0.12 -0.36 -0.1 -0.36 -0.09 -0.37 -0.07 -0.38 -0.05 -0.38 -0.03 -0.39 -0.01 -0.39 2.11 0 0.01 0.29 0.02 0.28 0.04 0.28 0.05 0.27 0.06 0.27 0.07 0.26 0.09 0.26 0.1 0.25 0.11 0.25 0.12 0.24 0.13 0.23 0.14 0.23 0.16 0.22 0.17 0.21 0.18 0.2 0.18 0.19 0.19 0.18 0.2 0.18 0.21 0.17 0.22 0.16 0.23 0.14 0.23 0.13 0.24 0.12 0.25 0.11 0.25 0.1 0.26 0.09 0.26 0.07 0.27 0.06 0.27 0.05 0.28 0.04 0.28 0.02 0.29 0.01 0 0 0 2.11zm7.68 -7.68l0 0 -0.01 0.39 -0.03 0.39 -0.05 0.38 -0.07 0.38 -0.09 0.37 -0.1 0.36 -0.12 0.36 -0.14 0.35 -0.15 0.34 -0.17 0.33 -0.18 0.32 -0.2 0.31 -0.21 0.3 -0.23 0.29 -0.24 0.28 -0.25 0.27 -0.27 0.25 -0.28 0.24 -0.29 0.23 -0.3 0.21 -0.31 0.2 -0.32 0.18 -0.33 0.17 -0.34 0.15 -0.35 0.14 -0.36 0.12 -0.36 0.1 -0.37 0.09 -0.38 0.07 -0.38 0.05 -0.39 0.03 -0.39 0.01 0 -2.11 0.29 -0.01 0.28 -0.02 0.28 -0.04 0.27 -0.05 0.27 -0.06 0.26 -0.07 0.26 -0.09 0.25 -0.1 0.25 -0.11 0.24 -0.12 0.23 -0.13 0.23 -0.14 0.22 -0.16 0.21 -0.17 0.2 -0.18 0.19 -0.18 0.18 -0.19 0.18 -0.2 0.17 -0.21 0.16 -0.22 0.14 -0.23 0.13 -0.23 0.12 -0.24 0.11 -0.25 0.1 -0.25 0.09 -0.26 0.07 -0.26 0.06 -0.27 0.05 -0.27 0.04 -0.28 0.02 -0.28 0.01 -0.29 0 0 2.11 0z"/>
   </g>
   <g>
    <polygon class="fil4" points="35.18,14.3 37.29,14.3 37.29,35.63 35.18,35.63 "/>
   </g>
   <g>
    <polygon class="fil4" points="32.96,6.62 39.5,6.62 39.5,8.74 32.96,8.74 "/>
   </g>
  </g>
 </g>
</svg>
