<?xml version="1.0" encoding="UTF-8"?>
<!DOCTYPE svg PUBLIC "-//W3C//DTD SVG 1.1//EN" "http://www.w3.org/Graphics/SVG/1.1/DTD/svg11.dtd">
<!-- Creator: CorelDRAW 2019 (64-Bit) -->
<svg xmlns="http://www.w3.org/2000/svg" xml:space="preserve" width="17.6488mm" height="4.4286mm" version="1.1" style="shape-rendering:geometricPrecision; text-rendering:geometricPrecision; image-rendering:optimizeQuality; fill-rule:evenodd; clip-rule:evenodd"
viewBox="0 0 250.09 62.76"
 xmlns:xlink="http://www.w3.org/1999/xlink"
 xmlns:xodm="http://www.corel.com/coreldraw/odm/2003">
 <defs>
  <style type="text/css">
   <![CDATA[
    .fil2 {fill:#A30005}
    .fil1 {fill:black}
    .fil3 {fill:#A30005;fill-rule:nonzero}
    .fil0 {fill:black;fill-rule:nonzero}
   ]]>
  </style>
 </defs>
 <g id="Слой_x0020_1">
  <metadata id="CorelCorpID_0Corel-Layer"/>
  <g id="_2093408967280">
   <g>
    <path class="fil0" d="M151.87 8.62l-73.14 0 0 -8.62 73.14 0 3.05 1.26 -3.05 7.35zm0 -8.62l1.79 0 1.26 1.26 -3.05 -1.26zm16.33 26.73l-19.37 -19.37 6.09 -6.09 19.37 19.37 1.26 3.05 -7.35 3.05zm6.09 -6.09l1.26 1.26 0 1.79 -1.26 -3.05zm-7.35 37.81l0 -34.77 8.62 0 0 34.77 -4.31 4.31 -4.31 -4.31zm8.62 0l0 4.31 -4.31 0 4.31 -4.31zm-96.82 -4.31l92.51 0 0 8.62 -92.51 0 -4.31 -4.31 4.31 -4.31zm0 8.62l-4.31 0 0 -4.31 4.31 4.31zm4.31 -58.45l0 54.14 -8.62 0 0 -54.14 4.31 -4.31 4.31 4.31zm-8.62 0l0 -4.31 4.31 0 -4.31 4.31z"/>
   </g>
   <g>
    <path class="fil0" d="M250.09 31.38l-8.62 0 0 0 -0.03 -1.17 -0.09 -1.16 -0.14 -1.14 -0.2 -1.12 -0.25 -1.1 -0.31 -1.08 -0.36 -1.06 -0.41 -1.03 -0.45 -1 -0.5 -0.98 -0.55 -0.96 -0.59 -0.93 -0.63 -0.89 -0.67 -0.86 -0.72 -0.83 -0.75 -0.79 -0.79 -0.75 -0.83 -0.72 -0.86 -0.67 -0.89 -0.63 -0.93 -0.59 -0.96 -0.55 -0.98 -0.5 -1 -0.45 -1.03 -0.41 -1.06 -0.36 -1.08 -0.31 -1.1 -0.25 -1.12 -0.2 -1.14 -0.14 -1.16 -0.09 -1.17 -0.03 0 -8.62 1.61 0.04 1.59 0.12 1.57 0.2 1.55 0.28 1.52 0.35 1.49 0.42 1.46 0.49 1.43 0.56 1.39 0.63 1.35 0.69 1.31 0.76 1.27 0.81 1.23 0.87 1.19 0.93 1.14 0.98 1.09 1.04 1.04 1.09 0.98 1.14 0.93 1.19 0.87 1.23 0.81 1.27 0.76 1.31 0.69 1.35 0.63 1.39 0.56 1.43 0.49 1.46 0.42 1.49 0.35 1.52 0.28 1.55 0.2 1.57 0.12 1.59 0.04 1.61 0 0zm-31.38 31.38l0 -8.62 0 0 1.17 -0.03 1.16 -0.09 1.14 -0.14 1.12 -0.2 1.1 -0.25 1.08 -0.31 1.06 -0.36 1.03 -0.41 1 -0.45 0.98 -0.5 0.96 -0.55 0.93 -0.59 0.89 -0.63 0.86 -0.67 0.83 -0.72 0.79 -0.75 0.75 -0.79 0.72 -0.83 0.67 -0.86 0.63 -0.89 0.59 -0.93 0.55 -0.96 0.5 -0.98 0.45 -1 0.41 -1.03 0.36 -1.06 0.31 -1.08 0.25 -1.1 0.2 -1.12 0.14 -1.14 0.09 -1.16 0.03 -1.17 8.62 0 -0.04 1.61 -0.12 1.59 -0.2 1.57 -0.28 1.55 -0.35 1.52 -0.42 1.49 -0.49 1.46 -0.56 1.43 -0.63 1.39 -0.69 1.35 -0.76 1.31 -0.81 1.27 -0.87 1.23 -0.93 1.19 -0.98 1.14 -1.04 1.09 -1.09 1.04 -1.14 0.98 -1.19 0.93 -1.23 0.87 -1.27 0.81 -1.31 0.76 -1.35 0.69 -1.39 0.63 -1.43 0.56 -1.46 0.49 -1.49 0.42 -1.52 0.35 -1.55 0.28 -1.57 0.2 -1.59 0.12 -1.61 0.04 0 0zm-31.38 -31.38l8.62 0 0 0 0.03 1.17 0.09 1.16 0.14 1.14 0.2 1.12 0.25 1.1 0.31 1.08 0.36 1.06 0.41 1.03 0.46 1.01 0.5 0.98 0.55 0.95 0.59 0.93 0.63 0.89 0.68 0.86 0.72 0.83 0.76 0.79 0.79 0.76 0.83 0.72 0.86 0.67 0.89 0.63 0.93 0.59 0.95 0.55 0.98 0.5 1.01 0.45 1.03 0.41 1.06 0.36 1.08 0.31 1.1 0.25 1.12 0.2 1.14 0.14 1.16 0.09 1.17 0.03 0 8.62 -1.61 -0.04 -1.59 -0.12 -1.57 -0.2 -1.55 -0.28 -1.52 -0.35 -1.49 -0.42 -1.46 -0.49 -1.43 -0.56 -1.39 -0.63 -1.35 -0.69 -1.32 -0.76 -1.27 -0.82 -1.23 -0.87 -1.19 -0.93 -1.14 -0.99 -1.09 -1.04 -1.04 -1.09 -0.98 -1.14 -0.93 -1.18 -0.88 -1.23 -0.82 -1.27 -0.76 -1.32 -0.69 -1.35 -0.63 -1.39 -0.56 -1.43 -0.49 -1.46 -0.42 -1.49 -0.35 -1.52 -0.28 -1.55 -0.2 -1.57 -0.12 -1.59 -0.04 -1.61 0 0zm31.38 -31.38l0 8.62 0 0 -1.17 0.03 -1.16 0.09 -1.14 0.14 -1.12 0.2 -1.1 0.25 -1.08 0.31 -1.06 0.36 -1.03 0.41 -1.01 0.45 -0.98 0.5 -0.95 0.55 -0.93 0.59 -0.89 0.63 -0.86 0.67 -0.83 0.72 -0.79 0.76 -0.76 0.79 -0.72 0.83 -0.68 0.86 -0.63 0.89 -0.59 0.93 -0.55 0.95 -0.5 0.98 -0.46 1.01 -0.41 1.03 -0.36 1.06 -0.31 1.08 -0.25 1.1 -0.2 1.12 -0.14 1.14 -0.09 1.16 -0.03 1.17 -8.62 0 0.04 -1.61 0.12 -1.59 0.2 -1.57 0.28 -1.55 0.35 -1.52 0.42 -1.49 0.49 -1.46 0.56 -1.43 0.63 -1.39 0.69 -1.35 0.76 -1.32 0.82 -1.27 0.88 -1.23 0.93 -1.18 0.98 -1.14 1.04 -1.09 1.09 -1.04 1.14 -0.99 1.19 -0.93 1.23 -0.87 1.27 -0.82 1.32 -0.76 1.35 -0.69 1.39 -0.63 1.43 -0.56 1.46 -0.49 1.49 -0.42 1.52 -0.35 1.55 -0.28 1.57 -0.2 1.59 -0.12 1.61 -0.04 0 0z"/>
   </g>
   <g>
    <polygon class="fil0" points="191.65,35.7 142.36,35.7 142.36,27.06 191.65,27.06 "/>
   </g>
   <g>
    <polygon class="fil0" points="232.08,35.71 205.35,35.71 205.35,27.04 232.08,27.04 "/>
   </g>
   <circle class="fil1" cx="142.36" cy="31.38" r="11.11"/>
   <circle class="fil2" cx="107.6" cy="31.38" r="11.11"/>
   <g>
    <path class="fil3" d="M-0 31.38l0 0 0.04 -1.61 0.12 -1.59 0.2 -1.57 0.28 -1.55 0.35 -1.52 0.42 -1.49 0.49 -1.46 0.56 -1.43 0.63 -1.39 0.69 -1.35 0.76 -1.31 0.81 -1.27 0.87 -1.23 0.93 -1.19 0.98 -1.14 1.04 -1.09 1.09 -1.04 1.14 -0.98 1.19 -0.93 1.23 -0.87 1.27 -0.81 1.31 -0.76 1.35 -0.69 1.39 -0.63 1.43 -0.56 1.46 -0.49 1.49 -0.42 1.52 -0.35 1.55 -0.28 1.57 -0.2 1.59 -0.12 1.61 -0.04 0 8.62 -1.17 0.03 -1.16 0.09 -1.14 0.14 -1.12 0.2 -1.1 0.25 -1.08 0.31 -1.06 0.36 -1.03 0.41 -1 0.45 -0.98 0.5 -0.96 0.55 -0.93 0.59 -0.89 0.63 -0.86 0.67 -0.83 0.72 -0.79 0.75 -0.75 0.79 -0.72 0.83 -0.67 0.86 -0.63 0.89 -0.59 0.93 -0.55 0.96 -0.5 0.98 -0.45 1 -0.41 1.03 -0.36 1.06 -0.31 1.08 -0.25 1.1 -0.2 1.12 -0.14 1.14 -0.09 1.16 -0.03 1.17 0 0 -8.62 0zm31.38 31.38l0 0 -1.61 -0.04 -1.59 -0.12 -1.57 -0.2 -1.55 -0.28 -1.52 -0.35 -1.49 -0.42 -1.46 -0.49 -1.43 -0.56 -1.39 -0.63 -1.35 -0.69 -1.31 -0.76 -1.27 -0.81 -1.23 -0.87 -1.19 -0.93 -1.14 -0.98 -1.09 -1.04 -1.04 -1.09 -0.98 -1.14 -0.93 -1.19 -0.87 -1.23 -0.81 -1.27 -0.76 -1.31 -0.69 -1.35 -0.63 -1.39 -0.56 -1.43 -0.49 -1.46 -0.42 -1.49 -0.35 -1.52 -0.28 -1.55 -0.2 -1.57 -0.12 -1.59 -0.04 -1.61 8.62 0 0.03 1.17 0.09 1.16 0.14 1.14 0.2 1.12 0.25 1.1 0.31 1.08 0.36 1.06 0.41 1.03 0.45 1 0.5 0.98 0.55 0.96 0.59 0.93 0.63 0.89 0.67 0.86 0.72 0.83 0.75 0.79 0.79 0.75 0.83 0.72 0.86 0.67 0.89 0.63 0.93 0.59 0.96 0.55 0.98 0.5 1 0.45 1.03 0.41 1.06 0.36 1.08 0.31 1.1 0.25 1.12 0.2 1.14 0.14 1.16 0.09 1.17 0.03 0 0 0 8.62zm31.38 -31.38l0 0 -0.04 1.61 -0.12 1.59 -0.2 1.57 -0.28 1.55 -0.35 1.52 -0.42 1.49 -0.49 1.46 -0.56 1.43 -0.63 1.39 -0.69 1.35 -0.76 1.31 -0.81 1.27 -0.87 1.23 -0.93 1.19 -0.98 1.14 -1.04 1.09 -1.09 1.04 -1.14 0.98 -1.19 0.93 -1.23 0.87 -1.27 0.81 -1.31 0.76 -1.35 0.69 -1.39 0.63 -1.43 0.56 -1.46 0.49 -1.49 0.42 -1.52 0.35 -1.55 0.28 -1.57 0.2 -1.59 0.12 -1.61 0.04 0 -8.62 1.17 -0.03 1.16 -0.09 1.14 -0.14 1.12 -0.2 1.1 -0.25 1.08 -0.31 1.06 -0.36 1.03 -0.41 1 -0.45 0.98 -0.5 0.96 -0.55 0.93 -0.59 0.89 -0.63 0.86 -0.67 0.83 -0.72 0.79 -0.75 0.75 -0.79 0.72 -0.83 0.67 -0.86 0.63 -0.89 0.59 -0.93 0.55 -0.96 0.5 -0.98 0.45 -1 0.41 -1.03 0.36 -1.06 0.31 -1.08 0.25 -1.1 0.2 -1.12 0.14 -1.14 0.09 -1.16 0.03 -1.17 0 0 8.62 0zm-31.38 -31.38l0 0 1.61 0.04 1.59 0.12 1.57 0.2 1.55 0.28 1.52 0.35 1.49 0.42 1.46 0.49 1.43 0.56 1.39 0.63 1.35 0.69 1.31 0.76 1.27 0.81 1.23 0.87 1.19 0.93 1.14 0.98 1.09 1.04 1.04 1.09 0.98 1.14 0.93 1.19 0.87 1.23 0.81 1.27 0.76 1.31 0.69 1.35 0.63 1.39 0.56 1.43 0.49 1.46 0.42 1.49 0.35 1.52 0.28 1.55 0.2 1.57 0.12 1.59 0.04 1.61 -8.62 0 -0.03 -1.17 -0.09 -1.16 -0.14 -1.14 -0.2 -1.12 -0.25 -1.1 -0.31 -1.08 -0.36 -1.06 -0.41 -1.03 -0.45 -1 -0.5 -0.98 -0.55 -0.96 -0.59 -0.93 -0.63 -0.89 -0.67 -0.86 -0.72 -0.83 -0.75 -0.79 -0.79 -0.75 -0.83 -0.72 -0.86 -0.67 -0.89 -0.63 -0.93 -0.59 -0.96 -0.55 -0.98 -0.5 -1 -0.45 -1.03 -0.41 -1.06 -0.36 -1.08 -0.31 -1.1 -0.25 -1.12 -0.2 -1.14 -0.14 -1.16 -0.09 -1.17 -0.03 0 0 0 -8.62z"/>
   </g>
   <g>
    <polygon class="fil3" points="58.45,35.71 58.45,27.05 107.6,27.05 107.6,35.71 "/>
   </g>
   <g>
    <polygon class="fil3" points="18.02,35.71 18.02,27.04 44.74,27.04 44.74,35.71 "/>
   </g>
   <g>
    <polygon class="fil3" points="35.71,44.74 27.04,44.74 27.04,18.02 35.71,18.02 "/>
   </g>
  </g>
 </g>
</svg>
