<?xml version="1.0" encoding="UTF-8"?>
<!DOCTYPE svg PUBLIC "-//W3C//DTD SVG 1.1//EN" "http://www.w3.org/Graphics/SVG/1.1/DTD/svg11.dtd">
<!-- Creator: CorelDRAW 2019 (64-Bit) -->
<svg xmlns="http://www.w3.org/2000/svg" xml:space="preserve" width="18.9398mm" height="4.4286mm" version="1.1" style="shape-rendering:geometricPrecision; text-rendering:geometricPrecision; image-rendering:optimizeQuality; fill-rule:evenodd; clip-rule:evenodd"
viewBox="0 0 291.04 68.05"
 xmlns:xlink="http://www.w3.org/1999/xlink"
 xmlns:xodm="http://www.corel.com/coreldraw/odm/2003">
 <defs>
  <style type="text/css">
   <![CDATA[
    .fil3 {fill:#A30005}
    .fil2 {fill:black}
    .fil1 {fill:#A30005;fill-rule:nonzero}
    .fil0 {fill:black;fill-rule:nonzero}
   ]]>
  </style>
 </defs>
 <g id="Слой_x0020_1">
  <metadata id="CorelCorpID_0Corel-Layer"/>
  <g id="_2093408511040">
   <g>
    <path class="fil0" d="M184.66 9.34l-78.28 0 0 -9.34 78.28 0 3.3 1.37 -3.3 7.98zm0 -9.34l1.94 0 1.37 1.37 -3.3 -1.37zm17.7 28.98l-21.01 -21.01 6.61 -6.61 21.01 21.01 1.37 3.3 -7.98 3.3zm6.61 -6.61l1.37 1.37 0 1.94 -1.37 -3.3zm-7.98 41.01l0 -37.7 9.34 0 0 37.7 -4.67 4.67 -4.67 -4.67zm9.34 0l0 4.67 -4.67 0 4.67 -4.67zm-124.96 -4.67l120.29 0 0 9.34 -120.29 0 -4.67 -4.67 4.67 -4.67zm0 9.34l-4.67 0 0 -4.67 4.67 4.67zm4.67 -42.37l0 37.7 -9.34 0 -0 -37.7 1.37 -3.3 7.98 3.3zm-9.34 0l0 -1.94 1.37 -1.37 -1.37 3.3zm28.98 -17.7l-21.01 21.01 -6.61 -6.61 21.01 -21.01 3.3 -1.37 3.3 7.98zm-6.61 -6.61l1.37 -1.37 1.94 0 -3.3 1.37z"/>
   </g>
   <g>
    <path class="fil1" d="M291.04 34.03l-9.34 0 0 0 -0.03 -1.27 -0.1 -1.26 -0.16 -1.24 -0.22 -1.22 -0.28 -1.19 -0.33 -1.17 -0.39 -1.15 -0.44 -1.12 -0.49 -1.09 -0.55 -1.06 -0.59 -1.04 -0.64 -1 -0.69 -0.97 -0.73 -0.93 -0.78 -0.9 -0.82 -0.86 -0.86 -0.82 -0.9 -0.78 -0.93 -0.73 -0.97 -0.69 -1 -0.64 -1.04 -0.59 -1.06 -0.55 -1.09 -0.49 -1.12 -0.44 -1.15 -0.39 -1.17 -0.33 -1.19 -0.28 -1.22 -0.22 -1.24 -0.16 -1.26 -0.1 -1.27 -0.03 0 -9.34 1.75 0.04 1.72 0.13 1.7 0.22 1.68 0.3 1.65 0.38 1.62 0.46 1.58 0.53 1.55 0.61 1.51 0.68 1.47 0.75 1.42 0.82 1.38 0.88 1.34 0.95 1.29 1.01 1.23 1.07 1.18 1.12 1.12 1.18 1.07 1.23 1.01 1.29 0.95 1.34 0.88 1.38 0.82 1.42 0.75 1.47 0.68 1.51 0.61 1.55 0.53 1.58 0.46 1.62 0.38 1.65 0.3 1.68 0.22 1.7 0.13 1.72 0.04 1.75 0 0zm-34.03 34.03l0 -9.34 0 0 1.27 -0.03 1.26 -0.1 1.24 -0.16 1.22 -0.22 1.19 -0.28 1.17 -0.33 1.15 -0.39 1.12 -0.44 1.09 -0.49 1.06 -0.55 1.04 -0.59 1 -0.64 0.97 -0.69 0.93 -0.73 0.9 -0.78 0.86 -0.82 0.82 -0.86 0.78 -0.9 0.73 -0.93 0.69 -0.97 0.64 -1 0.59 -1.04 0.55 -1.06 0.49 -1.09 0.44 -1.12 0.39 -1.15 0.33 -1.17 0.28 -1.19 0.22 -1.22 0.16 -1.24 0.1 -1.26 0.03 -1.27 9.34 0 -0.04 1.75 -0.13 1.72 -0.22 1.7 -0.3 1.68 -0.38 1.65 -0.46 1.62 -0.53 1.58 -0.61 1.55 -0.68 1.51 -0.75 1.47 -0.82 1.42 -0.88 1.38 -0.95 1.34 -1.01 1.29 -1.07 1.23 -1.12 1.18 -1.18 1.12 -1.23 1.07 -1.29 1.01 -1.34 0.95 -1.38 0.88 -1.42 0.82 -1.47 0.75 -1.51 0.68 -1.55 0.61 -1.58 0.53 -1.62 0.46 -1.65 0.38 -1.68 0.3 -1.7 0.22 -1.72 0.13 -1.75 0.04 0 0zm-34.03 -34.03l9.34 0 0 0 0.03 1.27 0.1 1.26 0.16 1.24 0.22 1.22 0.28 1.19 0.33 1.17 0.39 1.15 0.44 1.12 0.49 1.09 0.55 1.06 0.59 1.04 0.64 1 0.69 0.97 0.73 0.93 0.78 0.9 0.82 0.86 0.86 0.82 0.9 0.78 0.93 0.73 0.97 0.69 1 0.64 1.04 0.59 1.06 0.55 1.09 0.49 1.12 0.44 1.15 0.39 1.17 0.33 1.19 0.28 1.22 0.22 1.24 0.16 1.26 0.1 1.27 0.03 0 9.34 -1.75 -0.04 -1.72 -0.13 -1.7 -0.22 -1.68 -0.3 -1.65 -0.38 -1.62 -0.46 -1.58 -0.53 -1.55 -0.61 -1.51 -0.68 -1.47 -0.75 -1.42 -0.82 -1.38 -0.88 -1.34 -0.95 -1.29 -1.01 -1.23 -1.07 -1.18 -1.12 -1.12 -1.18 -1.07 -1.23 -1.01 -1.29 -0.95 -1.34 -0.88 -1.38 -0.82 -1.42 -0.75 -1.47 -0.68 -1.51 -0.61 -1.55 -0.53 -1.58 -0.46 -1.62 -0.38 -1.65 -0.3 -1.68 -0.22 -1.7 -0.13 -1.72 -0.04 -1.75 0 0zm34.03 -34.03l0 9.34 0 0 -1.27 0.03 -1.26 0.1 -1.24 0.16 -1.22 0.22 -1.19 0.28 -1.17 0.33 -1.15 0.39 -1.12 0.44 -1.09 0.49 -1.06 0.55 -1.04 0.59 -1 0.64 -0.97 0.69 -0.93 0.73 -0.9 0.78 -0.86 0.82 -0.82 0.86 -0.78 0.9 -0.73 0.93 -0.69 0.97 -0.64 1 -0.59 1.04 -0.55 1.06 -0.49 1.09 -0.44 1.12 -0.39 1.15 -0.33 1.17 -0.28 1.19 -0.22 1.22 -0.16 1.24 -0.1 1.26 -0.03 1.27 -9.34 0 0.04 -1.75 0.13 -1.72 0.22 -1.7 0.3 -1.68 0.38 -1.65 0.46 -1.62 0.53 -1.58 0.61 -1.55 0.68 -1.51 0.75 -1.47 0.82 -1.42 0.88 -1.38 0.95 -1.34 1.01 -1.29 1.07 -1.23 1.12 -1.18 1.18 -1.12 1.23 -1.07 1.29 -1.01 1.34 -0.95 1.38 -0.88 1.42 -0.82 1.47 -0.75 1.51 -0.68 1.55 -0.61 1.58 -0.53 1.62 -0.46 1.65 -0.38 1.68 -0.3 1.7 -0.22 1.72 -0.13 1.75 -0.04 0 0z"/>
   </g>
   <g>
    <polygon class="fil1" points="227.66,38.71 168.39,38.71 168.39,29.34 227.66,29.34 "/>
   </g>
   <g>
    <polygon class="fil1" points="271.5,38.73 242.52,38.73 242.52,29.33 271.5,29.33 "/>
   </g>
   <g>
    <polygon class="fil1" points="252.31,48.51 252.31,19.54 261.71,19.54 261.71,48.51 "/>
   </g>
   <g>
    <path class="fil0" d="M-0 34.03l0 0 0.04 -1.75 0.13 -1.72 0.22 -1.7 0.3 -1.68 0.38 -1.65 0.46 -1.62 0.53 -1.58 0.61 -1.55 0.68 -1.51 0.75 -1.47 0.82 -1.42 0.88 -1.38 0.95 -1.34 1.01 -1.29 1.07 -1.23 1.12 -1.18 1.18 -1.12 1.23 -1.07 1.29 -1.01 1.34 -0.95 1.38 -0.88 1.42 -0.82 1.47 -0.75 1.51 -0.68 1.55 -0.61 1.58 -0.53 1.62 -0.46 1.65 -0.38 1.68 -0.3 1.7 -0.22 1.72 -0.13 1.75 -0.04 0 9.34 -1.27 0.03 -1.26 0.1 -1.24 0.16 -1.22 0.22 -1.19 0.28 -1.17 0.33 -1.15 0.39 -1.12 0.44 -1.09 0.49 -1.06 0.55 -1.04 0.59 -1 0.64 -0.97 0.69 -0.93 0.73 -0.9 0.78 -0.86 0.82 -0.82 0.86 -0.78 0.9 -0.73 0.93 -0.69 0.97 -0.64 1 -0.59 1.04 -0.55 1.06 -0.49 1.09 -0.44 1.12 -0.39 1.15 -0.33 1.17 -0.28 1.19 -0.22 1.22 -0.16 1.24 -0.1 1.26 -0.03 1.27 0 0 -9.34 0zm34.03 34.03l0 0 -1.75 -0.04 -1.72 -0.13 -1.7 -0.22 -1.68 -0.3 -1.65 -0.38 -1.62 -0.46 -1.58 -0.53 -1.55 -0.61 -1.51 -0.68 -1.47 -0.75 -1.42 -0.82 -1.38 -0.88 -1.34 -0.95 -1.29 -1.01 -1.23 -1.07 -1.18 -1.12 -1.12 -1.18 -1.07 -1.23 -1.01 -1.29 -0.95 -1.34 -0.88 -1.38 -0.82 -1.42 -0.75 -1.47 -0.68 -1.51 -0.61 -1.55 -0.53 -1.58 -0.46 -1.62 -0.38 -1.65 -0.3 -1.68 -0.22 -1.7 -0.13 -1.72 -0.04 -1.75 9.34 0 0.03 1.27 0.1 1.26 0.16 1.24 0.22 1.22 0.28 1.19 0.33 1.17 0.39 1.15 0.44 1.12 0.49 1.09 0.55 1.06 0.59 1.04 0.64 1 0.69 0.97 0.73 0.93 0.78 0.9 0.82 0.86 0.86 0.82 0.9 0.78 0.93 0.73 0.97 0.69 1 0.64 1.04 0.59 1.06 0.55 1.09 0.49 1.12 0.44 1.15 0.39 1.17 0.33 1.19 0.28 1.22 0.22 1.24 0.16 1.26 0.1 1.27 0.03 0 0 0 9.34zm34.03 -34.03l0 0 -0.04 1.75 -0.13 1.72 -0.22 1.7 -0.3 1.68 -0.38 1.65 -0.46 1.62 -0.53 1.58 -0.61 1.55 -0.68 1.51 -0.75 1.47 -0.82 1.43 -0.89 1.38 -0.95 1.34 -1.01 1.28 -1.07 1.23 -1.13 1.18 -1.18 1.12 -1.23 1.07 -1.29 1.01 -1.33 0.95 -1.38 0.89 -1.43 0.82 -1.47 0.75 -1.51 0.68 -1.55 0.61 -1.58 0.53 -1.62 0.46 -1.65 0.38 -1.68 0.3 -1.7 0.22 -1.72 0.13 -1.75 0.04 0 -9.34 1.27 -0.03 1.26 -0.1 1.24 -0.16 1.22 -0.22 1.19 -0.28 1.17 -0.33 1.15 -0.39 1.12 -0.44 1.09 -0.49 1.06 -0.55 1.03 -0.59 1 -0.64 0.97 -0.69 0.93 -0.73 0.9 -0.78 0.86 -0.82 0.82 -0.86 0.78 -0.9 0.73 -0.93 0.69 -0.97 0.64 -1 0.59 -1.03 0.54 -1.06 0.49 -1.09 0.44 -1.12 0.39 -1.15 0.33 -1.17 0.28 -1.19 0.22 -1.22 0.16 -1.24 0.1 -1.26 0.03 -1.27 0 0 9.34 0zm-34.03 -34.03l0 0 1.75 0.04 1.72 0.13 1.7 0.22 1.68 0.3 1.65 0.38 1.62 0.46 1.58 0.53 1.55 0.61 1.51 0.68 1.47 0.75 1.43 0.82 1.38 0.89 1.33 0.95 1.29 1.01 1.23 1.07 1.18 1.12 1.13 1.18 1.07 1.23 1.01 1.28 0.95 1.34 0.89 1.38 0.82 1.43 0.75 1.47 0.68 1.51 0.61 1.55 0.53 1.58 0.46 1.62 0.38 1.65 0.3 1.68 0.22 1.7 0.13 1.72 0.04 1.75 -9.34 0 -0.03 -1.27 -0.1 -1.26 -0.16 -1.24 -0.22 -1.22 -0.28 -1.19 -0.33 -1.17 -0.39 -1.15 -0.44 -1.12 -0.49 -1.09 -0.54 -1.06 -0.59 -1.03 -0.64 -1 -0.69 -0.97 -0.73 -0.93 -0.78 -0.9 -0.82 -0.86 -0.86 -0.82 -0.9 -0.78 -0.93 -0.73 -0.97 -0.69 -1 -0.64 -1.03 -0.59 -1.06 -0.55 -1.09 -0.49 -1.12 -0.44 -1.15 -0.39 -1.17 -0.33 -1.19 -0.28 -1.22 -0.22 -1.24 -0.16 -1.26 -0.1 -1.27 -0.03 0 0 0 -9.34z"/>
   </g>
   <g>
    <polygon class="fil0" points="63.38,38.72 63.38,29.33 122.65,29.33 122.65,38.72 "/>
   </g>
   <g>
    <polygon class="fil0" points="19.54,38.73 19.54,29.33 48.52,29.33 48.52,38.73 "/>
   </g>
   <rect class="fil2" x="110.59" y="21.97" width="24.11" height="24.11"/>
   <rect class="fil3" x="156.34" y="21.97" width="24.11" height="24.11"/>
  </g>
 </g>
</svg>
