<?xml version="1.0" encoding="UTF-8"?>
<!DOCTYPE svg PUBLIC "-//W3C//DTD SVG 1.1//EN" "http://www.w3.org/Graphics/SVG/1.1/DTD/svg11.dtd">
<!-- Creator: CorelDRAW 2019 (64-Bit) -->
<svg xmlns="http://www.w3.org/2000/svg" xml:space="preserve" width="17.6488mm" height="4.4286mm" version="1.1" style="shape-rendering:geometricPrecision; text-rendering:geometricPrecision; image-rendering:optimizeQuality; fill-rule:evenodd; clip-rule:evenodd"
viewBox="0 0 250.09 62.76"
 xmlns:xlink="http://www.w3.org/1999/xlink"
 xmlns:xodm="http://www.corel.com/coreldraw/odm/2003">
 <defs>
  <style type="text/css">
   <![CDATA[
    .fil2 {fill:#A30005}
    .fil3 {fill:black}
    .fil1 {fill:#A30005;fill-rule:nonzero}
    .fil0 {fill:black;fill-rule:nonzero}
   ]]>
  </style>
 </defs>
 <g id="Слой_x0020_1">
  <metadata id="CorelCorpID_0Corel-Layer"/>
  <g id="_2093606467232">
   <g>
    <path class="fil0" d="M98.23 8.62l-3.05 -7.35 3.05 -1.26 73.14 0 0 8.62 -73.14 0zm-3.05 -7.35l1.26 -1.26 1.79 0 -3.05 1.26zm-13.28 25.47l-7.35 -3.05 1.26 -3.05 19.37 -19.37 6.09 6.09 -19.37 19.37zm-7.35 -3.05l0 -1.79 1.26 -1.26 -1.26 3.05zm8.62 34.77l-4.31 4.31 -4.31 -4.31 0 -34.77 8.62 0 0 34.77zm-4.31 4.31l-4.31 0 0 -4.31 4.31 4.31zm92.51 -8.62l4.31 4.31 -4.31 4.31 -92.51 0 0 -8.62 92.51 0zm4.31 4.31l0 4.31 -4.31 0 4.31 -4.31zm-8.62 -54.14l4.31 -4.31 4.31 4.31 0 54.14 -8.62 0 0 -54.14zm4.31 -4.31l4.31 0 0 4.31 -4.31 -4.31z"/>
   </g>
   <g>
    <path class="fil1" d="M-0 31.38l0 0 0.04 -1.61 0.12 -1.59 0.2 -1.57 0.28 -1.55 0.35 -1.52 0.42 -1.49 0.49 -1.46 0.56 -1.43 0.63 -1.39 0.69 -1.35 0.76 -1.31 0.81 -1.27 0.87 -1.23 0.93 -1.19 0.98 -1.14 1.04 -1.09 1.09 -1.04 1.14 -0.98 1.19 -0.93 1.23 -0.87 1.27 -0.81 1.31 -0.76 1.35 -0.69 1.39 -0.63 1.43 -0.56 1.46 -0.49 1.49 -0.42 1.52 -0.35 1.55 -0.28 1.57 -0.2 1.59 -0.12 1.61 -0.04 0 8.62 -1.17 0.03 -1.16 0.09 -1.14 0.14 -1.12 0.2 -1.1 0.25 -1.08 0.31 -1.06 0.36 -1.03 0.41 -1 0.45 -0.98 0.5 -0.96 0.55 -0.93 0.59 -0.89 0.63 -0.86 0.67 -0.83 0.72 -0.79 0.75 -0.75 0.79 -0.72 0.83 -0.67 0.86 -0.63 0.89 -0.59 0.93 -0.55 0.96 -0.5 0.98 -0.45 1 -0.41 1.03 -0.36 1.06 -0.31 1.08 -0.25 1.1 -0.2 1.12 -0.14 1.14 -0.09 1.16 -0.03 1.17 0 0 -8.62 0zm31.38 31.38l0 0 -1.61 -0.04 -1.59 -0.12 -1.57 -0.2 -1.55 -0.28 -1.52 -0.35 -1.49 -0.42 -1.46 -0.49 -1.43 -0.56 -1.39 -0.63 -1.35 -0.69 -1.31 -0.76 -1.27 -0.81 -1.23 -0.87 -1.19 -0.93 -1.14 -0.98 -1.09 -1.04 -1.04 -1.09 -0.98 -1.14 -0.93 -1.19 -0.87 -1.23 -0.81 -1.27 -0.76 -1.31 -0.69 -1.35 -0.63 -1.39 -0.56 -1.43 -0.49 -1.46 -0.42 -1.49 -0.35 -1.52 -0.28 -1.55 -0.2 -1.57 -0.12 -1.59 -0.04 -1.61 8.62 0 0.03 1.17 0.09 1.16 0.14 1.14 0.2 1.12 0.25 1.1 0.31 1.08 0.36 1.06 0.41 1.03 0.45 1 0.5 0.98 0.55 0.96 0.59 0.93 0.63 0.89 0.67 0.86 0.72 0.83 0.75 0.79 0.79 0.75 0.83 0.72 0.86 0.67 0.89 0.63 0.93 0.59 0.96 0.55 0.98 0.5 1 0.45 1.03 0.41 1.06 0.36 1.08 0.31 1.1 0.25 1.12 0.2 1.14 0.14 1.16 0.09 1.17 0.03 0 0 0 8.62zm31.38 -31.38l0 0 -0.04 1.61 -0.12 1.59 -0.2 1.57 -0.28 1.55 -0.35 1.52 -0.42 1.49 -0.49 1.46 -0.56 1.43 -0.63 1.39 -0.69 1.35 -0.76 1.31 -0.81 1.27 -0.87 1.23 -0.93 1.19 -0.98 1.14 -1.04 1.09 -1.09 1.04 -1.14 0.98 -1.19 0.93 -1.23 0.87 -1.27 0.81 -1.31 0.76 -1.35 0.69 -1.39 0.63 -1.43 0.56 -1.46 0.49 -1.49 0.42 -1.52 0.35 -1.55 0.28 -1.57 0.2 -1.59 0.12 -1.61 0.04 0 -8.62 1.17 -0.03 1.16 -0.09 1.14 -0.14 1.12 -0.2 1.1 -0.25 1.08 -0.31 1.06 -0.36 1.03 -0.41 1 -0.45 0.98 -0.5 0.96 -0.55 0.93 -0.59 0.89 -0.63 0.86 -0.67 0.83 -0.72 0.79 -0.75 0.75 -0.79 0.72 -0.83 0.67 -0.86 0.63 -0.89 0.59 -0.93 0.55 -0.96 0.5 -0.98 0.45 -1 0.41 -1.03 0.36 -1.06 0.31 -1.08 0.25 -1.1 0.2 -1.12 0.14 -1.14 0.09 -1.16 0.03 -1.17 0 0 8.62 0zm-31.38 -31.38l0 0 1.61 0.04 1.59 0.12 1.57 0.2 1.55 0.28 1.52 0.35 1.49 0.42 1.46 0.49 1.43 0.56 1.39 0.63 1.35 0.69 1.31 0.76 1.27 0.81 1.23 0.87 1.19 0.93 1.14 0.98 1.09 1.04 1.04 1.09 0.98 1.14 0.93 1.19 0.87 1.23 0.81 1.27 0.76 1.31 0.69 1.35 0.63 1.39 0.56 1.43 0.49 1.46 0.42 1.49 0.35 1.52 0.28 1.55 0.2 1.57 0.12 1.59 0.04 1.61 -8.62 0 -0.03 -1.17 -0.09 -1.16 -0.14 -1.14 -0.2 -1.12 -0.25 -1.1 -0.31 -1.08 -0.36 -1.06 -0.41 -1.03 -0.45 -1 -0.5 -0.98 -0.55 -0.96 -0.59 -0.93 -0.63 -0.89 -0.67 -0.86 -0.72 -0.83 -0.75 -0.79 -0.79 -0.75 -0.83 -0.72 -0.86 -0.67 -0.89 -0.63 -0.93 -0.59 -0.96 -0.55 -0.98 -0.5 -1 -0.45 -1.03 -0.41 -1.06 -0.36 -1.08 -0.31 -1.1 -0.25 -1.12 -0.2 -1.14 -0.14 -1.16 -0.09 -1.17 -0.03 0 0 0 -8.62z"/>
   </g>
   <g>
    <polygon class="fil1" points="58.45,35.7 58.45,27.06 107.73,27.06 107.73,35.7 "/>
   </g>
   <g>
    <polygon class="fil1" points="18.02,35.71 18.02,27.04 44.74,27.04 44.74,35.71 "/>
   </g>
   <g>
    <polygon class="fil1" points="35.71,44.74 27.04,44.74 27.04,18.01 35.71,18.01 "/>
   </g>
   <circle class="fil2" cx="107.73" cy="31.38" r="11.11"/>
   <circle class="fil3" cx="142.49" cy="31.38" r="11.11"/>
   <g>
    <path class="fil0" d="M250.09 31.38l-8.62 0 0 0 -0.03 -1.17 -0.09 -1.16 -0.14 -1.14 -0.2 -1.12 -0.25 -1.1 -0.31 -1.08 -0.36 -1.06 -0.41 -1.03 -0.45 -1 -0.5 -0.98 -0.55 -0.96 -0.59 -0.93 -0.63 -0.89 -0.67 -0.86 -0.72 -0.83 -0.75 -0.79 -0.79 -0.75 -0.83 -0.72 -0.86 -0.67 -0.89 -0.63 -0.93 -0.59 -0.96 -0.55 -0.98 -0.5 -1 -0.45 -1.03 -0.41 -1.06 -0.36 -1.08 -0.31 -1.1 -0.25 -1.12 -0.2 -1.14 -0.14 -1.16 -0.09 -1.17 -0.03 0 -8.62 1.61 0.04 1.59 0.12 1.57 0.2 1.55 0.28 1.52 0.35 1.49 0.42 1.46 0.49 1.43 0.56 1.39 0.63 1.35 0.69 1.31 0.76 1.27 0.81 1.23 0.87 1.19 0.93 1.14 0.98 1.09 1.04 1.04 1.09 0.98 1.14 0.93 1.19 0.87 1.23 0.81 1.27 0.76 1.31 0.69 1.35 0.63 1.39 0.56 1.43 0.49 1.46 0.42 1.49 0.35 1.52 0.28 1.55 0.2 1.57 0.12 1.59 0.04 1.61 0 0zm-31.38 31.38l0 -8.62 0 0 1.17 -0.03 1.16 -0.09 1.14 -0.14 1.12 -0.2 1.1 -0.25 1.08 -0.31 1.06 -0.36 1.03 -0.41 1 -0.45 0.98 -0.5 0.96 -0.55 0.93 -0.59 0.89 -0.63 0.86 -0.67 0.83 -0.72 0.79 -0.75 0.75 -0.79 0.72 -0.83 0.67 -0.86 0.63 -0.89 0.59 -0.93 0.55 -0.96 0.5 -0.98 0.45 -1 0.41 -1.03 0.36 -1.06 0.31 -1.08 0.25 -1.1 0.2 -1.12 0.14 -1.14 0.09 -1.16 0.03 -1.17 8.62 0 -0.04 1.61 -0.12 1.59 -0.2 1.57 -0.28 1.55 -0.35 1.52 -0.42 1.49 -0.49 1.46 -0.56 1.43 -0.63 1.39 -0.69 1.35 -0.76 1.31 -0.81 1.27 -0.87 1.23 -0.93 1.19 -0.98 1.14 -1.04 1.09 -1.09 1.04 -1.14 0.98 -1.19 0.93 -1.23 0.87 -1.27 0.81 -1.31 0.76 -1.35 0.69 -1.39 0.63 -1.43 0.56 -1.46 0.49 -1.49 0.42 -1.52 0.35 -1.55 0.28 -1.57 0.2 -1.59 0.12 -1.61 0.04 0 0zm-31.38 -31.38l8.62 0 0 0 0.03 1.17 0.09 1.16 0.14 1.14 0.2 1.12 0.25 1.1 0.31 1.08 0.36 1.06 0.41 1.03 0.46 1.01 0.5 0.98 0.55 0.95 0.59 0.93 0.63 0.89 0.68 0.86 0.72 0.83 0.76 0.79 0.79 0.76 0.83 0.72 0.86 0.67 0.89 0.63 0.93 0.59 0.95 0.55 0.98 0.5 1.01 0.45 1.03 0.41 1.06 0.36 1.08 0.31 1.1 0.25 1.12 0.2 1.14 0.14 1.16 0.09 1.17 0.03 0 8.62 -1.61 -0.04 -1.59 -0.12 -1.57 -0.2 -1.55 -0.28 -1.52 -0.35 -1.49 -0.42 -1.46 -0.49 -1.43 -0.56 -1.39 -0.63 -1.35 -0.69 -1.32 -0.76 -1.27 -0.82 -1.23 -0.87 -1.19 -0.93 -1.14 -0.99 -1.09 -1.04 -1.04 -1.09 -0.98 -1.14 -0.93 -1.18 -0.88 -1.23 -0.82 -1.27 -0.76 -1.32 -0.69 -1.35 -0.63 -1.39 -0.56 -1.43 -0.49 -1.46 -0.42 -1.49 -0.35 -1.52 -0.28 -1.55 -0.2 -1.57 -0.12 -1.59 -0.04 -1.61 0 0zm31.38 -31.38l0 8.62 0 0 -1.17 0.03 -1.16 0.09 -1.14 0.14 -1.12 0.2 -1.1 0.25 -1.08 0.31 -1.06 0.36 -1.03 0.41 -1.01 0.45 -0.98 0.5 -0.95 0.55 -0.93 0.59 -0.89 0.63 -0.86 0.67 -0.83 0.72 -0.79 0.76 -0.76 0.79 -0.72 0.83 -0.68 0.86 -0.63 0.89 -0.59 0.93 -0.55 0.95 -0.5 0.98 -0.46 1.01 -0.41 1.03 -0.36 1.06 -0.31 1.08 -0.25 1.1 -0.2 1.12 -0.14 1.14 -0.09 1.16 -0.03 1.17 -8.62 0 0.04 -1.61 0.12 -1.59 0.2 -1.57 0.28 -1.55 0.35 -1.52 0.42 -1.49 0.49 -1.46 0.56 -1.43 0.63 -1.39 0.69 -1.35 0.76 -1.32 0.82 -1.27 0.88 -1.23 0.93 -1.18 0.98 -1.14 1.04 -1.09 1.09 -1.04 1.14 -0.99 1.19 -0.93 1.23 -0.87 1.27 -0.82 1.32 -0.76 1.35 -0.69 1.39 -0.63 1.43 -0.56 1.46 -0.49 1.49 -0.42 1.52 -0.35 1.55 -0.28 1.57 -0.2 1.59 -0.12 1.61 -0.04 0 0z"/>
   </g>
   <g>
    <polygon class="fil0" points="191.65,35.71 142.49,35.71 142.49,27.05 191.65,27.05 "/>
   </g>
   <g>
    <polygon class="fil0" points="232.08,35.71 205.35,35.71 205.35,27.04 232.08,27.04 "/>
   </g>
  </g>
 </g>
</svg>
